<?xml version="1.0" encoding="utf-8"?>
<!-- Generator: Adobe Illustrator 22.1.0, SVG Export Plug-In . SVG Version: 6.00 Build 0)  -->
<svg version="1.1" id="layer_1" xmlns="http://www.w3.org/2000/svg" xmlns:xlink="http://www.w3.org/1999/xlink" x="0px" y="0px"
	 viewBox="0 0 159.7 86.8" style="enable-background:new 0 0 159.7 86.8;" xml:space="preserve">
<style type="text/css">
	.st0{fill:#FFFFFF;}
</style>
<path class="st0" d="M154,13.8c0,1.6,1.3,2.8,2.8,2.8s2.8-1.3,2.8-2.8c0-1.6-1.3-2.8-2.8-2.8S154,12.3,154,13.8z"/>
<path class="st0" d="M153.3,70c2.4-0.7,4.2-3,4.2-5.6c0-3.2-2.6-5.9-5.9-5.9c-2.2,0-4.1,1.2-5.1,2.9c-0.9-0.6-1.8-1-2.9-1.2
	c1.3-2.1,2.1-4.5,2.1-7.2c0-6.4-4.5-11.7-10.4-13.1c-0.3-1.5-0.8-3-1.6-4.2c0.8-0.7,1.5-1.5,2-2.5c0.9,4,4.5,7,8.8,7c5,0,9-4,9-9
	s-4-9-9-9c-0.1,0-0.2,0-0.4,0c0.2-0.5,0.4-1,0.4-1.6c0-2.1-1.7-3.8-3.8-3.8c-2.1,0-3.8,1.7-3.8,3.8c0,1.5,0.9,2.9,2.2,3.5
	c-1,0.8-1.8,1.7-2.4,2.8c-0.6-2.5-2.2-4.6-4.3-5.8c0-0.2,0-0.4,0-0.6c0-8.5-6.9-15.3-15.3-15.3c-6.9,0-12.7,4.5-14.6,10.7
	c-2.1-2.1-4.9-3.3-8.1-3.3c-2.5,0-4.8,0.8-6.7,2.2C85.8,6.3,78.5,0,69.6,0c-7.2,0-13.4,4.2-16.4,10.2c-0.8-0.2-1.6-0.2-2.4-0.2
	c-1.3,0-2.6,0.2-3.8,0.6C44.5,6,39.6,2.8,33.9,2.8c-8.2,0-14.8,6.6-14.8,14.8c0,2.7,0.8,5.3,2,7.5c-0.6-0.1-1.2-0.2-1.8-0.2
	c-5.8,0-10.5,4.7-10.5,10.5c0,2.6,1,5,2.5,6.8c-0.7,0.7-1.2,1.6-1.4,2.6c-0.9-0.5-2-0.7-3.1-0.7c-3.9,0-7,3.1-7,7s3.1,7,7,7
	c3.5,0,6.4-2.6,6.9-5.9c0.7,0.2,1.4,0.4,2.1,0.4c3.4,0,6.1-2.7,6.1-6.1c0-0.3,0-0.6-0.1-0.8c4.5-1.2,7.9-5.2,7.9-10.1
	c0-1.3-0.3-2.6-0.7-3.8c1.5,0.5,3.1,0.8,4.8,0.8c2.9,0,5.5-0.8,7.8-2.2c2.2,2.5,5.4,4.1,9,4.1c2.5,0,4.9-0.8,6.8-2.1
	c3.2,2.8,7.4,4.5,11.9,4.5c6,0,11.3-2.9,14.7-7.4c1.9,3.6,5.7,6,10,6c4.4,0,8.2-2.5,10.1-6.1c2.4,3.4,6.1,5.8,10.4,6.5
	c-1.2,1.8-1.8,3.9-1.8,6.2c0,4.3,2.4,8,6,9.9c0,0.4-0.1,0.9-0.1,1.3c0,7.4,6,13.4,13.4,13.4c0.4,0,0.7,0,1.1-0.1
	c-0.2,0.7-0.3,1.5-0.3,2.2c0,4.8,3.9,8.7,8.7,8.7c0,0,0,0,0,0c0,0.3,0,0.6,0,0.8c0,4.8,3.9,8.7,8.7,8.7c4.8,0,8.7-3.9,8.7-8.7
	C159.1,74.4,156.6,71.2,153.3,70z"/>
<path class="st0" d="M3.7,15.2C3.7,16.7,5,18,6.5,18c1.6,0,2.8-1.3,2.8-2.8c0-1.6-1.3-2.8-2.8-2.8C5,12.3,3.7,13.6,3.7,15.2z"/>
</svg>
