<?xml version="1.0" encoding="utf-8"?>
<!-- Generator: Adobe Illustrator 22.1.0, SVG Export Plug-In . SVG Version: 6.00 Build 0)  -->
<svg version="1.1" id="Layer_1" xmlns="http://www.w3.org/2000/svg" xmlns:xlink="http://www.w3.org/1999/xlink" x="0px" y="0px"
	 viewBox="0 0 181 38.3" enable-background="new 0 0 181 38.3" xml:space="preserve">
<g>
	<g>
		<g>
			<g>
				<path fill="#5C5CFF" d="M13.4,20.9l10.7,16.8c0.3,0.4,0.7,0.6,1.2,0.6h4c0.8,0,1.4-0.6,1.4-1.4V1.4c0-1.3-1.6-1.9-2.5-0.8
					L13.4,19.3C13.1,19.7,13.1,20.4,13.4,20.9z"/>
			</g>
			<g>
				<path fill="#5C5CFF" d="M1.4,38.3h7.1c0.8,0,1.4-0.6,1.4-1.4v-9c0-1.3-1.6-1.9-2.5-0.8l-7.1,9C-0.4,37.1,0.3,38.3,1.4,38.3z"/>
			</g>
		</g>
	</g>
	<g>
		<path fill="#FFFFFF" d="M127.9,18c-0.1-0.1-0.2-0.2-0.3-0.3c-0.1,0-0.1-0.1-0.1-0.1c0,0,0,0-0.1-0.1c-0.4-0.3-0.7-0.5-1.1-0.7
			c-0.4-0.2-0.8-0.4-1.3-0.6c-0.5-0.2-1-0.3-1.5-0.4c-1.3-0.2-2.6-0.2-3.9,0.2c-0.8,0.2-1.5,0.5-2.1,0.9c-0.7,0.4-1.3,0.9-1.8,1.4
			c-0.5,0.5-1,1.1-1.4,1.8c-0.4,0.7-0.7,1.4-0.9,2.1c-0.4,1.5-0.4,3.2,0,4.7c0.2,0.8,0.5,1.5,0.9,2.1c0.4,0.7,0.9,1.3,1.4,1.8
			c0.5,0.5,1.2,1,1.8,1.4c0.7,0.4,1.4,0.7,2.1,0.9c1.3,0.4,2.7,0.5,4,0.2c0.5-0.1,1-0.2,1.5-0.4c0.5-0.2,0.9-0.4,1.3-0.7
			c0.4-0.3,0.9-0.5,1.2-0.8c0.1-0.1,0.2-0.2,0.3-0.3l0.1-0.1c0.1-0.2,0.2-0.3,0.2-0.4l0-0.1c0-0.2,0-0.3-0.1-0.5l0-0.1
			c0-0.1-0.1-0.1-0.1-0.2l-0.1-0.2c-0.2-0.3-0.4-0.6-0.7-0.9c-0.1-0.1-0.2-0.2-0.4-0.3c-0.1,0-0.3,0-0.4,0c-0.2,0.1-0.4,0.2-0.5,0.3
			l-0.2,0.2c-0.2,0.2-0.3,0.3-0.6,0.5c-0.2,0.2-0.5,0.3-0.8,0.5c-0.3,0.2-0.7,0.3-1,0.3c-1.1,0.2-2.3,0.1-3.4-0.4
			c-0.7-0.3-1.3-0.7-1.8-1.3c-0.5-0.5-1-1.2-1.3-1.9c-0.7-1.4-0.6-3.1,0-4.5c0.3-0.8,0.8-1.4,1.3-1.9c0.5-0.5,1.2-1,1.8-1.3
			c1-0.5,2.1-0.6,3.2-0.4c0.4,0.1,0.7,0.2,1,0.3c0.3,0.1,0.6,0.3,0.9,0.5c0.6,0.4,1.3,1.4,2,0.6l1-1.3c0.1-0.2,0.1-0.3,0.1-0.4
			C128,18.3,127.9,18.1,127.9,18z"/>
		<path fill="#FFFFFF" d="M67.1,32.1L56.3,7.6C56.2,7.2,55.8,7,55.4,7h-1.7c-0.4,0-0.8,0.2-0.9,0.6L42,32.1c-0.2,0.3-0.1,0.7,0.1,1
			c0.2,0.3,0.5,0.5,0.8,0.5h1.6c0.4,0,0.8-0.2,0.9-0.6l2.6-6.1h13.1l2.6,6.1c0.1,0.4,0.5,0.6,0.9,0.6h1.6c0.3,0,0.7-0.1,0.8-0.4
			C67.2,32.8,67.3,32.5,67.1,32.1z M49.4,23.7L49.4,23.7l5.2-12.2l5.2,12.2H49.4z"/>
		<path fill="#FFFFFF" d="M166,21.9c-0.3-0.9-0.7-1.9-1.2-2.7l0,0c-0.4-0.6-1-1.1-1.4-1.5c-0.6-0.5-1.1-0.9-1.7-1.1
			c-0.6-0.3-1.2-0.5-1.9-0.7c-1.4-0.4-3-0.3-4.4,0.1c-0.8,0.2-1.4,0.5-2.1,0.9c-0.7,0.4-1.3,0.9-1.8,1.4c-0.6,0.6-1,1.2-1.3,1.8
			c-0.4,0.7-0.7,1.4-0.9,2.1c-0.3,1.2-0.4,2.5-0.2,3.7c0.1,0.5,0.2,1,0.3,1.4c0.3,0.9,0.7,1.9,1.2,2.7c0.4,0.6,1,1.1,1.4,1.5
			c0.6,0.5,1.1,0.9,1.7,1.1c0.6,0.3,1.2,0.5,1.9,0.7c1.4,0.4,3,0.3,4.4-0.1c0.8-0.2,1.4-0.5,2.1-0.9c0.7-0.4,1.3-0.9,1.8-1.4
			c0.6-0.6,0.9-1.1,1.3-1.7l0-0.1c0.2-0.3,0.1-0.5,0.1-0.6c-0.1-0.2-0.3-0.2-0.4-0.2h-2.6c-0.2,0-0.4,0.1-0.6,0.3
			c-0.3,0.4-0.7,0.7-1.1,1c-0.5,0.3-0.9,0.5-1.5,0.7c-1.1,0.3-2.4,0.3-3.5-0.1c-0.6-0.2-1.1-0.5-1.7-0.9c-0.5-0.4-0.9-0.9-1.2-1.4
			c-0.3-0.5-0.5-1.5-0.6-1.9l0-0.1h0.1l13.3,0c0.5,0,0.9-0.3,0.9-0.9C166.5,23.6,166.3,22.9,166,21.9z M163.2,23l-10.7,0l0-0.1
			c0.2-0.6,0.4-1.2,0.8-1.7c0.5-0.7,1-1.2,1.6-1.6c0.5-0.3,0.9-0.5,1.5-0.7c1.1-0.3,2.4-0.3,3.5,0.1c0.6,0.2,1.1,0.5,1.7,0.9
			c0.5,0.4,0.9,0.9,1.2,1.4C163,22,163.2,22.4,163.2,23L163.2,23L163.2,23z"/>
		<path fill="#FFFFFF" d="M86.2,30.9c0.6-0.6,1.1-1.2,1.4-1.8c0.4-0.7,0.7-1.4,0.9-2.1c0.4-1.5,0.4-3.2,0-4.7
			c-0.2-0.8-0.5-1.5-0.9-2.1c-0.4-0.7-0.9-1.3-1.4-1.8c-0.5-0.5-1.2-1-1.8-1.4c-0.6-0.4-1.4-0.7-2.1-0.9c-1.9-0.5-4-0.4-5.8,0.4
			c-0.8,0.4-1.5,0.8-2.1,1.3l-0.1,0.1v-1c0-0.6-0.3-0.9-0.9-0.9H72c-0.6,0-0.9,0.3-0.9,0.9v20.7c0,0.5,0.4,0.9,0.9,0.9h1.4
			c0.3,0,0.5-0.1,0.7-0.2c0.2-0.2,0.2-0.4,0.2-0.6v-6l0.1,0.1c0.6,0.5,1.3,1,2.1,1.3c1.8,0.8,3.9,0.9,5.8,0.4
			c0.8-0.2,1.5-0.5,2.1-0.9C85,31.9,85.6,31.5,86.2,30.9z M82.1,30c-1.3,0.6-3.1,0.6-4.4,0c-0.7-0.3-1.3-0.8-1.8-1.3
			c-0.5-0.5-0.9-1.2-1.2-1.9c-0.6-1.4-0.6-3.1,0-4.5c0.3-0.7,0.7-1.3,1.2-1.9c0.5-0.5,1.1-0.9,1.8-1.3c1.3-0.6,3.1-0.6,4.4,0
			c0.7,0.3,1.3,0.8,1.8,1.3c0.5,0.5,0.9,1.2,1.2,1.9c0.6,1.4,0.6,3.1,0,4.5c-0.3,0.7-0.7,1.4-1.2,1.9C83.4,29.2,82.8,29.7,82.1,30z"
			/>
		<path fill="#FFFFFF" d="M94.8,15.9h-1.4c-0.6,0-0.9,0.3-0.9,0.9v20.6c0,0.3,0.1,0.5,0.2,0.6c0.2,0.2,0.4,0.2,0.6,0.2h1.4
			c0.3,0,0.5-0.1,0.7-0.2c0.2-0.2,0.2-0.4,0.2-0.6v-6l0.1,0.1c0.6,0.5,1.3,1,2.1,1.3c1.8,0.8,3.9,0.9,5.8,0.4
			c0.8-0.2,1.5-0.5,2.1-0.9c0.7-0.4,1.3-0.9,1.8-1.4c0.6-0.6,1.1-1.2,1.4-1.8c0.4-0.7,0.7-1.4,0.9-2.1c0.4-1.5,0.4-3.2,0-4.7
			c-0.2-0.8-0.5-1.5-0.9-2.1c-0.4-0.7-0.9-1.3-1.4-1.8c-0.5-0.5-1.2-1-1.8-1.4c-0.6-0.4-1.4-0.7-2.1-0.9c-1.9-0.5-4-0.4-5.8,0.4
			c-0.8,0.4-1.5,0.8-2.1,1.3l-0.1,0.1v-0.9C95.6,16.2,95.3,15.9,94.8,15.9z M96,22.3c0.3-0.7,0.7-1.3,1.2-1.9
			c0.5-0.5,1.1-0.9,1.8-1.3c1.3-0.6,3.1-0.6,4.4,0c0.7,0.3,1.3,0.8,1.8,1.3c0.5,0.5,0.9,1.2,1.2,1.9c0.6,1.4,0.6,3.1,0,4.5
			c-0.3,0.7-0.7,1.4-1.2,1.9c-0.5,0.5-1.1,1-1.8,1.3c-1.3,0.6-3.1,0.6-4.4,0c-0.7-0.3-1.3-0.8-1.8-1.3c-0.5-0.5-0.9-1.2-1.2-1.9
			C95.4,25.4,95.4,23.8,96,22.3z"/>
		<path fill="#FFFFFF" d="M145.8,16.6c0-0.6-0.3-0.9-0.9-0.9h-1.4c-0.6,0-0.9,0.3-0.9,0.9v9.9c0,0.6-0.1,1.2-0.4,1.7
			c-0.3,0.5-0.6,0.9-0.9,1.2c-0.4,0.3-0.8,0.6-1.3,0.8c-1,0.4-2.3,0.4-3.3-0.1c-0.5-0.3-0.9-0.6-1.2-1c-0.3-0.4-0.5-0.9-0.7-1.4
			c-0.1-0.6-0.2-1.1-0.2-1.6v-9.1c0-0.4-0.1-0.6-0.2-0.9c-0.1-0.1-0.4-0.3-0.9-0.3h-1c-0.3,0-0.6,0.1-0.8,0.3
			c-0.2,0.2-0.3,0.5-0.3,0.9V26c0,1.1,0.1,2.1,0.4,2.9c0.3,0.9,0.8,1.7,1.3,2.4c0.6,0.7,1.3,1.3,2.2,1.6c1.4,0.6,3.1,0.7,4.6,0.4
			c0.5-0.1,0.9-0.3,1.2-0.4c0.4-0.2,0.7-0.4,1-0.7c0.1-0.1,0.1-0.1,0.2-0.2l0.1-0.1v0.7c0,0.2,0.1,0.4,0.2,0.6
			c0.2,0.2,0.4,0.3,0.7,0.3h1.4c0.2,0,0.4-0.1,0.6-0.2c0.2-0.2,0.2-0.3,0.2-0.6V16.6z"/>
		<path fill="#FFFFFF" d="M177.8,19.9"/>
	</g>
	<path fill="#FFFFFF" d="M180.5,26.3c-0.3-0.6-0.7-1.1-1.2-1.6c-0.5-0.4-1.2-0.8-1.9-1.1c-0.8-0.3-1.6-0.6-2.4-0.7
		c-0.4-0.1-0.8-0.2-1.2-0.4c-0.3-0.1-0.7-0.3-1-0.5c-0.4-0.3-0.7-0.6-0.9-1.1c-0.1-0.3-0.1-0.7,0-1c0.1-0.4,0.6-1.4,2.4-1.5
		c1.7-0.1,2.6,0.8,2.9,1.2c0,0.1,0.5,0.6,0.8,0.9c0,0,0,0,0,0c0.1,0.1,0.1,0.1,0.2,0.1c0.2,0.1,0.5,0,0.7-0.1l1-0.8
		c0.2-0.2,0.4-0.4,0.4-0.7l0,0c0-0.2-0.1-0.3-0.2-0.6c-0.4-0.5-0.7-0.9-1-1.3c-0.3-0.4-0.7-0.7-1.1-1c-0.4-0.2-0.8-0.4-1.4-0.6
		c-1.3-0.4-2.9-0.3-4.2,0.2c-0.7,0.2-1.4,0.6-1.9,1c-0.5,0.4-0.9,1-1.2,1.6c-0.5,1.2-0.6,2.7-0.1,3.9c0.3,0.6,0.6,1.1,1.1,1.5
		c0.5,0.4,1,0.8,1.7,1.1c0.7,0.3,1.4,0.6,2.2,0.8c0.2,0.1,0.4,0.1,0.7,0.2c0.2,0.1,0.5,0.1,0.7,0.2c0.4,0.1,0.8,0.2,1.2,0.4
		c0.3,0.2,0.6,0.4,0.8,0.6c0.4,0.5,0.4,1.4,0,1.9c-0.2,0.3-0.5,0.5-0.8,0.7c-0.3,0.2-0.7,0.3-1,0.4c-0.7,0.1-1.2,0.2-1.9,0
		c-0.3-0.1-0.6-0.2-0.9-0.3c-0.3-0.2-0.6-0.4-0.8-0.6c-0.3-0.3-0.4-0.5-0.6-0.8c-0.1-0.2-0.2-0.4-0.3-0.5c-0.2-0.2-0.6-0.2-0.9-0.1
		l-1.3,0.6c-0.1,0.1-0.2,0.1-0.3,0.2c-0.1,0.1-0.1,0.2-0.2,0.2c-0.1,0.1,0,0.2,0,0.4c0,0.1,0,0.2,0.1,0.4c0.2,0.6,0.5,1,0.9,1.6
		c0.4,0.5,0.9,0.9,1.5,1.3c0.5,0.3,1.1,0.6,1.8,0.7c1.4,0.3,2.9,0.3,4.3-0.1c0.8-0.2,1.5-0.6,2-1c0.6-0.4,1-1,1.4-1.7
		C181.1,29.2,181.2,27.6,180.5,26.3z"/>
</g>
</svg>
