<?xml version="1.0" encoding="utf-8"?>
<!-- Generator: Adobe Illustrator 22.1.0, SVG Export Plug-In . SVG Version: 6.00 Build 0)  -->
<svg version="1.1" id="Layer_1" xmlns="http://www.w3.org/2000/svg" xmlns:xlink="http://www.w3.org/1999/xlink" x="0px" y="0px"
	 viewBox="0 0 30.2 30.2" enable-background="new 0 0 30.2 30.2" xml:space="preserve">
<g>
	<path fill="#FFFFFF" d="M26.5,30H4.4c-1.6,0-2.9-1.3-2.9-2.9V3c0-1.6,1.3-2.9,2.9-2.9h22.1c1.6,0,2.9,1.3,2.9,2.9v24.1
		C29.3,28.7,28,30,26.5,30z M4.4,2.1C3.9,2.1,3.5,2.5,3.5,3v24.1c0,0.5,0.4,0.9,0.9,0.9h22.1c0.5,0,0.9-0.4,0.9-0.9V3
		c0-0.5-0.4-0.9-0.9-0.9H4.4z"/>
</g>
<g>
	<rect x="2.5" y="4.1" fill="#FFFFFF" width="25.4" height="2"/>
</g>
<g>
	<rect x="7.5" y="11.5" fill="#FFFFFF" width="15.9" height="2"/>
</g>
<g>
	<rect x="7.4" y="15.8" fill="#FFFFFF" width="15.9" height="2"/>
</g>
<g>
	<rect x="7.5" y="20.6" fill="#FFFFFF" width="15.9" height="2"/>
</g>
</svg>
