<?xml version="1.0" encoding="utf-8"?>
<!-- Generator: Adobe Illustrator 22.1.0, SVG Export Plug-In . SVG Version: 6.00 Build 0)  -->
<svg version="1.1" id="Layer_1" xmlns="http://www.w3.org/2000/svg" xmlns:xlink="http://www.w3.org/1999/xlink" x="0px" y="0px"
	 viewBox="0 0 30.2 30.2" enable-background="new 0 0 30.2 30.2" xml:space="preserve">
<g>
	<path fill="#FFFFFF" d="M15.1,0.6C7,0.6,0.4,7.1,0.4,15.2S7,29.9,15.1,29.9s14.7-6.6,14.7-14.7S23.2,0.6,15.1,0.6z M15.1,27.9
		c-7,0-12.7-5.7-12.7-12.7S8.1,2.6,15.1,2.6s12.7,5.7,12.7,12.7S22.1,27.9,15.1,27.9z"/>
	<path fill="#FFFFFF" d="M20,11.1l-6.3,6.3L11.3,15c-0.4-0.4-1.1-0.4-1.5,0c-0.2,0.2-0.3,0.5-0.3,0.7c0,0.3,0.1,0.5,0.3,0.7l3.1,3.1
		c0.2,0.2,0.5,0.3,0.7,0.3h0c0.3,0,0.5-0.1,0.7-0.3l7-7c0.2-0.2,0.3-0.5,0.3-0.7c0-0.3-0.1-0.5-0.3-0.7C21.1,10.7,20.4,10.7,20,11.1
		z"/>
</g>
</svg>
