<?xml version="1.0" encoding="utf-8"?>
<!-- Generator: Adobe Illustrator 22.1.0, SVG Export Plug-In . SVG Version: 6.00 Build 0)  -->
<svg version="1.1" id="Layer_1" xmlns="http://www.w3.org/2000/svg" xmlns:xlink="http://www.w3.org/1999/xlink" x="0px" y="0px"
	 viewBox="0 0 30.2 30.2" enable-background="new 0 0 30.2 30.2" xml:space="preserve">
<g>
	<path fill="#FFFFFF" d="M5.1,15.8h14.3c0.6,0,1-0.6,1-1.2s-0.5-1.2-1-1.2H5.1c-0.6,0-1,0.6-1,1.2S4.5,15.8,5.1,15.8z"/>
	<path fill="#FFFFFF" d="M5.1,20.9h14.3c0.6,0,1-0.6,1-1.2s-0.5-1.2-1-1.2H5.1c-0.6,0-1,0.6-1,1.2S4.5,20.9,5.1,20.9z"/>
	<path fill="#FFFFFF" d="M12.1,23.4H5.2c-0.6,0-1,0.6-1,1.2s0.5,1.2,1,1.2h6.9c0.6,0,1-0.6,1-1.2S12.6,23.4,12.1,23.4z"/>
	<path fill="#FFFFFF" d="M5.2,10.9h6.9c0.6,0,1-0.6,1-1.2s-0.5-1.2-1-1.2H5.2c-0.6,0-1,0.6-1,1.2S4.6,10.9,5.2,10.9z"/>
	<path fill="#FFFFFF" d="M29.4,10.6l-9.2-9.8c0,0,0,0,0,0c-0.1-0.1-0.2-0.1-0.2-0.2c0,0-0.1,0-0.1,0c-0.1,0-0.2,0-0.3-0.1l-15,0
		c-2.3,0-4.1,1.9-4.1,4.1v21c0,2.3,1.9,4.1,4.1,4.1h21.1c2.3,0,4.1-1.9,4.1-4.1l0-14.2c0,0,0,0,0-0.1C29.7,11.1,29.6,10.8,29.4,10.6
		z M2.3,4.6c0-1.2,1-2.2,2.2-2.2h13.9v5.8c0,2.3,1.9,4.1,4.1,4.1h5.2v13.3c0,1.2-1,2.2-2.2,2.2H4.5c-1.2,0-2.2-1-2.2-2.2V4.6z
		 M22.6,10.4c-1.2,0-2.2-1-2.2-2.2V3.9l6,6.4H22.6z"/>
</g>
</svg>
