<?xml version="1.0" encoding="utf-8"?>
<!-- Generator: Adobe Illustrator 22.1.0, SVG Export Plug-In . SVG Version: 6.00 Build 0)  -->
<svg version="1.1" id="Layer_1" xmlns="http://www.w3.org/2000/svg" xmlns:xlink="http://www.w3.org/1999/xlink" x="0px" y="0px"
	 viewBox="0 0 15 6" style="enable-background:new 0 0 15 6;" xml:space="preserve">
<style type="text/css">
	.st0{fill:#242A35;}
</style>
<g>
	<path class="st0" d="M2.8,5.7c0.1,0.1,0.2,0.1,0.3,0s0.1-0.2,0-0.3L0.7,3l2.4-2.4c0.1-0.1,0.1-0.2,0-0.3L3,0.1c0,0-0.1,0-0.1,0.1
		L0.4,2.7L0.3,2.8c0,0.1,0,0.1,0.1,0.1L2.8,5.7z"/>
	<path class="st0" d="M3-0.1c0.1,0,0.2,0,0.3,0.1c0.2,0.2,0.2,0.5,0,0.7L1.1,3l2.2,2.2c0.2,0.2,0.2,0.5,0,0.7
		c-0.2,0.2-0.5,0.2-0.7,0L0.1,3.4C0,3.2,0,3,0,3s0.1-0.2,0.1-0.3l2.5-2.5C2.7-0.1,2.9-0.1,3-0.1z"/>
</g>
<g>
	<path class="st0" d="M14.5,2.7H0.8C0.7,2.7,0.5,2.8,0.5,3l0,0c0,0.1,0.1,0.3,0.3,0.3h13.7c0.2,0,0.3-0.1,0.3-0.3l0,0
		C14.8,2.8,14.7,2.7,14.5,2.7z"/>
	<path class="st0" d="M0.8,2.5h13.7C14.8,2.5,15,2.7,15,3l0,0c0,0.3-0.2,0.5-0.5,0.5H0.8C0.5,3.5,0.3,3.2,0.3,3l0,0
		C0.4,2.7,0.6,2.5,0.8,2.5z M14.5,3C14.6,3,14.6,3,14.5,3L14.6,3c0,0,0-0.1-0.1-0.1H0.8c0,0-0.1,0-0.1,0.1l0,0c0,0,0,0.1,0.1,0.1
		H14.5z"/>
</g>
</svg>
