<?xml version="1.0" encoding="utf-8"?>
<!-- Generator: Adobe Illustrator 22.1.0, SVG Export Plug-In . SVG Version: 6.00 Build 0)  -->
<svg version="1.1" id="Layer_1" xmlns="http://www.w3.org/2000/svg" xmlns:xlink="http://www.w3.org/1999/xlink" x="0px" y="0px"
	 viewBox="0 0 323 269.2" style="enable-background:new 0 0 323 269.2;" xml:space="preserve">
<style type="text/css">
	.st0{fill:#8AD5FF;}
	.st1{fill:#2CB4FF;}
	.st2{fill:#5C5CFF;}
	.st3{fill:#0D7EF9;}
	.st4{fill:#0558AA;}
</style>
<g>
	<g>
		<path class="st0" d="M199.3,4c0.4-0.2,0.8-0.2,1.1-0.2l0,0l53.4,5.6l-0.4,4.5l-47-4.9l28.8,28.8l-3.2,3.2l-29.1-29.1l2.5,49.2
			l-4.6,0.3L198,6.2C197.9,5.3,198.6,4.5,199.3,4z"/>
		<path class="st1" d="M227.6,33.5L245,50.9c-0.3,0.3-0.5,0.6-0.8,0.9c-16.1,16.1-37,21.4-46.6,11.8L227.6,33.5z"/>
		<path class="st0" d="M256,5.1c9.4,9.4,4.5,29.8-11.1,45.7l-17.4-17.4L256,5.1z"/>
		<path class="st2" d="M194.7,7.5c0-4,3.3-7.4,7.4-7.4s7.4,3.3,7.4,7.4s-3.2,7.4-7.4,7.4C198,14.9,194.7,11.6,194.7,7.5z"/>
	</g>
	<g>
		<g>
			<path class="st0" d="M214.7,99.6L243,71.9V52.7c0-1.5,1.2-2.7,2.7-2.7c0.1,0,0.1,0,0.2,0v52.9c-0.1,0-0.1,0-0.2,0
				c-1.5,0-2.7-1.2-2.7-2.7V79.6l-24.6,24c-1.1,1.1-2.8,1.1-3.9-0.1C213.6,102.4,213.6,100.7,214.7,99.6z"/>
			<path class="st1" d="M248.6,52.7v19.1l28.3,27.7c1.1,1.1,1.1,2.8,0.1,3.9c-0.5,0.5-1.2,0.8-1.9,0.8s-1.4-0.3-1.9-0.8l-24.6-24
				v20.6c0,1.5-1.1,2.6-2.5,2.7V50C247.4,50.1,248.6,51.3,248.6,52.7z"/>
		</g>
		<path class="st1" d="M235.8,52.7c0-5.5,4.5-10.1,10.1-10.1c5.5,0,10.1,4.5,10.1,10.1c0,5.5-4.5,10.1-10.1,10.1
			C240.2,62.8,235.8,58.3,235.8,52.7z"/>
		<circle class="st2" cx="245.9" cy="52.7" r="6.6"/>
	</g>
</g>
<polyline class="st1" points="228.6,36.9 227.6,33.5 204.7,10.4 205,14.2 229.3,38.6 "/>
<path class="st2" d="M194.9,7.4c0-4,3.3-7.4,7.4-7.4c4,0,7.4,3.3,7.4,7.4s-3.3,7.4-7.4,7.4C198.2,14.7,194.9,11.4,194.9,7.4z"/>
<g>
	<rect x="144.8" y="112" class="st3" width="171.4" height="154.7"/>
	<rect x="144.8" y="112" class="st1" width="127.5" height="154.7"/>
	<path class="st3" d="M144.6,112h171.8c3.6,0,6.6-3,6.6-6.6l0,0c0-3.6-3-6.6-6.6-6.6H144.6c-3.6,0-6.6,3-6.6,6.6l0,0
		C138,109,141,112,144.6,112z"/>
	<path class="st1" d="M139.8,112h137.5c1,0,1.8-0.8,1.8-1.8v-9.6c0-1-0.8-1.8-1.8-1.8H139.8c-1,0-1.8,0.8-1.8,1.8v9.6
		C138,111.2,138.8,112,139.8,112z"/>
	<polyline class="st3" points="144.8,112 144.8,115.5 272.3,115.5 272.3,112 	"/>
	<polyline class="st4" points="316.2,115.5 316.2,112 275.4,112 272.3,115.5 	"/>
</g>
<g>
	<g>
		<path class="st0" d="M5,161.6c0.4-0.2,0.9-0.2,1.2-0.2l0,0l57.2,5.9l-0.5,4.8l-50.5-5.3l30.8,30.9l-3.4,3.4L8.7,170l2.7,52.9
			l-4.8,0.2l-3-59.2C3.5,162.9,4.1,162,5,161.6z"/>
		<path class="st1" d="M35.4,193.1L54,211.8c-0.3,0.3-0.6,0.6-0.9,0.9c-17.4,17.3-39.8,23-50.1,12.7L35.4,193.1z"/>
		<path class="st0" d="M65.8,162.7c10.2,10.2,4.8,31.9-11.8,49.1l-18.7-18.7L65.8,162.7z"/>
		<path class="st2" d="M0,165.3c0-4.4,3.5-8,7.9-8s7.9,3.5,7.9,7.9s-3.5,7.9-7.9,7.9C3.5,173.2,0,169.7,0,165.3z"/>
	</g>
	<g>
		<g>
			<path class="st0" d="M21.5,264.1l30.5-29.8v-20.5c0-1.6,1.3-3,3-3c0.1,0,0.2,0,0.2,0v56.8c-0.1,0-0.2,0-0.2,0c-1.6,0-3-1.3-3-3
				v-22.1l-26.3,25.7c-1.2,1.2-3,1.1-4.2-0.1C20.2,267.1,20.3,265.2,21.5,264.1z"/>
			<path class="st1" d="M57.8,213.8v20.5l30.5,29.8c1.2,1.2,1.2,3,0.1,4.2c-0.5,0.6-1.3,0.9-2.1,0.9s-1.5-0.3-2-0.9l-26.4-25.8v22.1
				c0,1.6-1.2,2.8-2.7,3v-56.8C56.6,211,57.8,212.3,57.8,213.8z"/>
		</g>
		<path class="st1" d="M44,213.8c0-5.9,4.8-10.8,10.8-10.8s10.8,4.8,10.8,10.8c0,5.9-4.8,10.8-10.8,10.8S44,219.8,44,213.8z"/>
		<circle class="st2" cx="54.9" cy="213.8" r="7"/>
	</g>
</g>
<polyline class="st1" points="36.3,196.8 35.4,193.1 10.7,168.3 11.1,172.4 37.1,198.7 "/>
<path class="st2" d="M0.2,165.1c0-4.4,3.6-7.9,8-7.9s7.9,3.5,7.9,7.9c0,4.4-3.5,8-7.9,8S0.2,169.5,0.2,165.1z"/>
</svg>
