<?xml version="1.0" encoding="utf-8"?>
<!-- Generator: Adobe Illustrator 22.1.0, SVG Export Plug-In . SVG Version: 6.00 Build 0)  -->
<svg version="1.1" xmlns="http://www.w3.org/2000/svg" xmlns:xlink="http://www.w3.org/1999/xlink" x="0px" y="0px"
	 viewBox="0 0 3279.1 1485.3" style="enable-background:new 0 0 3279.1 1485.3;" xml:space="preserve">
<style type="text/css">
	.st0{display:none;}
	.st1{display:inline;fill:#5C5CFF;}
	.st2{display:inline;fill:#F5F7FA;}
	.st3{display:inline;fill:#8AD5FF;}
	.st4{display:inline;fill:#FFCD02;}
	.st5{display:inline;fill:#2CB4FF;}
	.st6{fill:#F5F7FA;}
	.st7{fill:#FFCD02;}
	.st8{fill:#5C5CFF;}
	.st9{fill:#8AD5FF;}
	.st10{fill:#2CB4FF;}
</style>
<g id="Layer_1" class="st0">
	<circle class="st1" cx="2491.6" cy="1159.2" r="2.5"/>
	<circle class="st2" cx="322.3" cy="990.5" r="2.5"/>
	<circle class="st2" cx="3084.1" cy="1069.5" r="2.5"/>
	<circle class="st2" cx="1659" cy="449.5" r="2.5"/>
	<circle class="st2" cx="2559.1" cy="349.4" r="2.5"/>
	<path class="st3" d="M1031.9,786.1l-1.2-1.2l1.2-1.2c0.4-0.4,0.4-1.1,0-1.5s-1.1-0.4-1.5,0l-1.2,1.2l-1.2-1.2
		c-0.4-0.4-1.1-0.4-1.5,0s-0.4,1.1,0,1.5l1.2,1.2l-1.2,1.2c-0.4,0.4-0.4,1.1,0,1.5s1.1,0.4,1.5,0l1.2-1.2l1.2,1.2
		c0.4,0.4,1.1,0.4,1.5,0C1032.3,787.2,1032.3,786.5,1031.9,786.1z"/>
	<path class="st1" d="M174.7,1034.4l-1.3-1.3l1.3-1.3c0.4-0.4,0.4-1.2,0-1.6c-0.4-0.4-1.2-0.4-1.6,0l-1.3,1.3l-1.3-1.3
		c-0.4-0.4-1.2-0.4-1.6,0c-0.4,0.4-0.4,1.2,0,1.6l1.3,1.3l-1.3,1.3c-0.4,0.4-0.4,1.2,0,1.6c0.4,0.4,1.2,0.4,1.6,0l1.3-1.3l1.3,1.3
		c0.4,0.4,1.2,0.4,1.6,0C175.1,1035.5,175.1,1034.8,174.7,1034.4z"/>
	<circle class="st3" cx="368.8" cy="1225.5" r="2.5"/>
	<circle class="st3" cx="2318.7" cy="463.2" r="2.5"/>
	<circle class="st4" cx="1322.9" cy="185.5" r="2.5"/>
	<circle class="st3" cx="2697.2" cy="1028.9" r="3.3"/>
	<circle class="st4" cx="2805.2" cy="651" r="3.3"/>
	<circle class="st1" cx="2301" cy="703.2" r="3.7"/>
	<circle class="st5" cx="824.9" cy="301.4" r="2.5"/>
	<path class="st2" d="M807.7,706.8h-1.8l0-1.8c0-0.6-0.5-1.1-1.1-1.1c-0.6,0-1.1,0.5-1.1,1.1v1.8H802c-0.6,0-1.1,0.5-1.1,1.1
		s0.5,1.1,1.1,1.1l1.8,0v1.8c0,0.6,0.5,1.1,1.1,1.1c0.6,0,1.1-0.5,1.1-1.1l0-1.8l1.8,0c0.6,0,1.1-0.5,1.1-1.1
		C808.7,707.3,808.3,706.8,807.7,706.8z"/>
	<circle class="st5" cx="461.1" cy="660.7" r="2.5"/>
	<circle class="st1" cx="2555.5" cy="911" r="2.5"/>
	<path class="st3" d="M2002.6,1146.2l1.3-1.3l1.3,1.3c0.4,0.4,1.2,0.4,1.6,0c0.4-0.4,0.4-1.2,0-1.6l-1.3-1.3l1.3-1.3
		c0.4-0.4,0.4-1.2,0-1.6s-1.2-0.4-1.6,0l-1.3,1.3l-1.3-1.3c-0.4-0.4-1.2-0.4-1.6,0c-0.4,0.4-0.4,1.2,0,1.6l1.3,1.3l-1.3,1.3
		c-0.4,0.4-0.4,1.2,0,1.6C2001.4,1146.7,2002.2,1146.7,2002.6,1146.2z"/>
	<circle class="st4" cx="518.3" cy="1001" r="2.5"/>
	<circle class="st5" cx="78.3" cy="1418.1" r="2.5"/>
	<circle class="st5" cx="2565.1" cy="707.5" r="3.7"/>
	<circle class="st5" cx="2844.9" cy="871.2" r="3.7"/>
	<path class="st4" d="M719.3,1070.5v-1.9h1.9c0.6,0,1.1-0.5,1.1-1.1s-0.5-1.1-1.1-1.1h-1.9v-1.9c0-0.6-0.5-1.1-1.1-1.1
		s-1.1,0.5-1.1,1.1v1.9h-1.9c-0.6,0-1.1,0.5-1.1,1.1c0,0.6,0.5,1.1,1.1,1.1h1.9v1.9c0,0.6,0.5,1.1,1.1,1.1
		C718.8,1071.7,719.3,1071.1,719.3,1070.5z"/>
	<circle class="st3" cx="1872" cy="862.5" r="2.5"/>
	<circle class="st1" cx="2820.1" cy="1304.6" r="2.5"/>
	<path class="st1" d="M1048.6,1410.7l-1.7-1.7l1.7-1.7c0.6-0.6,0.6-1.5,0-2.1c-0.6-0.6-1.5-0.6-2.1,0l-1.7,1.7l-1.7-1.7
		c-0.6-0.6-1.5-0.6-2.1,0c-0.6,0.6-0.6,1.5,0,2.1l1.7,1.7l-1.7,1.7c-0.6,0.6-0.6,1.5,0,2.1c0.6,0.6,1.5,0.6,2.1,0l1.7-1.7l1.7,1.7
		c0.6,0.6,1.5,0.6,2.1,0C1049.1,1412.2,1049.1,1411.3,1048.6,1410.7z"/>
	<path class="st1" d="M1326.3,1010l-1.4-1.4l1.4-1.4c0.5-0.5,0.5-1.3,0-1.8c-0.5-0.5-1.3-0.5-1.8,0l-1.4,1.4l-1.4-1.4
		c-0.5-0.5-1.3-0.5-1.8,0c-0.5,0.5-0.5,1.3,0,1.8l1.4,1.4l-1.4,1.4c-0.5,0.5-0.5,1.3,0,1.8c0.5,0.5,1.3,0.5,1.8,0l1.4-1.4l1.4,1.4
		c0.5,0.5,1.3,0.5,1.8,0C1326.8,1011.3,1326.8,1010.5,1326.3,1010z"/>
	<circle class="st3" cx="1713" cy="1385.4" r="3.3"/>
	<circle class="st1" cx="1736.2" cy="1142" r="3.7"/>
	<path class="st1" d="M2628,495.6l-1.2-1.4l1.4-1.2c0.5-0.4,0.5-1.1,0.1-1.6c-0.4-0.5-1.1-0.5-1.6-0.1l-1.4,1.2l-1.2-1.4
		c-0.4-0.5-1.1-0.5-1.6-0.1c-0.5,0.4-0.5,1.1-0.1,1.6l1.2,1.4l-1.4,1.2c-0.5,0.4-0.5,1.1-0.1,1.6c0.4,0.5,1.1,0.5,1.6,0.1l1.4-1.2
		l1.2,1.4c0.4,0.5,1.1,0.5,1.6,0.1C2628.3,496.8,2628.4,496.1,2628,495.6z"/>
	<circle class="st5" cx="3208.3" cy="525.6" r="2.5"/>
	<circle class="st1" cx="1281.7" cy="779.5" r="3.3"/>
	<circle class="st1" cx="1595.4" cy="1022" r="2.5"/>
	<circle class="st5" cx="3033.2" cy="1298" r="2.5"/>
	<path class="st2" d="M334,1452.9v-1.9h1.9c0.6,0,1.1-0.5,1.1-1.1s-0.5-1.1-1.1-1.1H334v-1.9c0-0.6-0.5-1.1-1.1-1.1
		s-1.1,0.5-1.1,1.1l0,1.9h-1.9c-0.6,0-1.1,0.5-1.1,1.1c0,0.6,0.5,1.1,1.1,1.1h1.9l0,1.9c0,0.6,0.5,1.1,1.1,1.1
		C333.5,1454.1,334,1453.6,334,1452.9z"/>
	<circle class="st2" cx="989.1" cy="541.7" r="2.5"/>
	<circle class="st2" cx="2813.1" cy="184.7" r="2.5"/>
	<circle class="st2" cx="2058" cy="539.5" r="2.5"/>
</g>
<g id="Layer_4">
	<path class="st6" d="M469.3,326l-0.9-0.9l0.9-0.9c0.3-0.3,0.3-0.8,0-1.2c-0.3-0.3-0.8-0.3-1.2,0l-0.9,0.9l-0.9-0.9
		c-0.3-0.3-0.8-0.3-1.2,0s-0.3,0.8,0,1.2l0.9,0.9l-0.9,0.9c-0.3,0.3-0.3,0.8,0,1.2s0.8,0.3,1.2,0l0.9-0.9l0.9,0.9
		c0.3,0.3,0.8,0.3,1.2,0C469.7,326.9,469.7,326.4,469.3,326z"/>
	<path class="st7" d="M2028,1392.1l-2-2l2-2c0.7-0.7,0.7-1.8,0-2.5c-0.7-0.7-1.8-0.7-2.5,0l-2,2l-2-2c-0.7-0.7-1.8-0.7-2.5,0
		c-0.7,0.7-0.7,1.8,0,2.5l2,2l-2,2c-0.7,0.7-0.7,1.8,0,2.5s1.8,0.7,2.5,0l2-2l2,2c0.7,0.7,1.8,0.7,2.5,0
		C2028.7,1393.9,2028.7,1392.8,2028,1392.1z"/>
	<path class="st7" d="M206.4,765.8l-1.2-1.2l1.2-1.2c0.4-0.4,0.4-1,0-1.4c-0.4-0.4-1-0.4-1.4,0l-1.2,1.2l-1.2-1.2
		c-0.4-0.4-1-0.4-1.4,0c-0.4,0.4-0.4,1,0,1.4l1.2,1.2l-1.2,1.2c-0.4,0.4-0.4,1,0,1.4c0.4,0.4,1,0.4,1.4,0l1.2-1.2l1.2,1.2
		c0.4,0.4,1,0.4,1.4,0C206.8,766.9,206.8,766.2,206.4,765.8z"/>
	<circle class="st7" cx="3081.2" cy="800.9" r="3.3"/>
	<circle class="st8" cx="1244.9" cy="407.5" r="2.5"/>
	<circle class="st7" cx="83" cy="1235" r="3.8"/>
	<circle class="st9" cx="721.1" cy="1395.4" r="3.8"/>
	<circle class="st8" cx="579.6" cy="1199.2" r="2.5"/>
	<circle class="st10" cx="1463.4" cy="578" r="2.5"/>
	<path class="st7" d="M1410.3,1342.3v-1.9h1.9c0.6,0,1.1-0.5,1.1-1.1s-0.5-1.1-1.1-1.1h-1.9v-1.9c0-0.6-0.5-1.1-1.1-1.1
		s-1.1,0.5-1.1,1.1v1.9h-1.9c-0.6,0-1.1,0.5-1.1,1.1s0.5,1.1,1.1,1.1h1.9v1.9c0,0.6,0.5,1.1,1.1,1.1S1410.3,1342.9,1410.3,1342.3z"
		/>
	<path class="st8" d="M2510.2,1342.5l-2.2-2.2l2.2-2.2c0.7-0.7,0.7-2,0-2.7c-0.7-0.7-2-0.7-2.7,0l-2.2,2.2l-2.2-2.2
		c-0.7-0.7-2-0.7-2.7,0c-0.7,0.7-0.7,2,0,2.7l2.2,2.2l-2.2,2.2c-0.7,0.7-0.7,2,0,2.7s2,0.7,2.7,0l2.2-2.2l2.2,2.2
		c0.7,0.7,2,0.7,2.7,0C2511,1344.4,2511,1343.2,2510.2,1342.5z"/>
	<path class="st6" d="M65.8,647.9l-2-2l2-2c0.7-0.7,0.7-1.7,0-2.4c-0.7-0.7-1.7-0.7-2.4,0l-2,2l-2-2c-0.7-0.7-1.7-0.7-2.4,0
		c-0.7,0.7-0.7,1.7,0,2.4l2,2l-2,2c-0.7,0.7-0.7,1.7,0,2.4c0.7,0.7,1.7,0.7,2.4,0l2-2l2,2c0.7,0.7,1.7,0.7,2.4,0
		C66.5,649.6,66.5,648.5,65.8,647.9z"/>
	<path class="st10" d="M1222.1,603.2l-2.2-2.2l2.2-2.2c0.7-0.7,0.7-2,0-2.7c-0.7-0.7-2-0.7-2.7,0l-2.2,2.2l-2.2-2.2
		c-0.7-0.7-2-0.7-2.7,0c-0.7,0.7-0.7,2,0,2.7l2.2,2.2l-2.2,2.2c-0.7,0.7-0.7,2,0,2.7c0.7,0.7,2,0.7,2.7,0l2.2-2.2l2.2,2.2
		c0.7,0.7,2,0.7,2.7,0C1222.9,605.2,1222.9,603.9,1222.1,603.2z"/>
	<path class="st10" d="M627.8,860.3l-2.2-2.2l2.2-2.2c0.7-0.7,0.7-2,0-2.7c-0.7-0.7-2-0.7-2.7,0l-2.2,2.2l-2.2-2.2
		c-0.7-0.7-2-0.7-2.7,0c-0.7,0.7-0.7,2,0,2.7l2.2,2.2l-2.2,2.2c-0.7,0.7-0.7,2,0,2.7c0.7,0.7,2,0.7,2.7,0l2.2-2.2l2.2,2.2
		c0.7,0.7,2,0.7,2.7,0C628.5,862.3,628.5,861,627.8,860.3z"/>
	<circle class="st6" cx="1140.4" cy="1223.5" r="3.3"/>
	<circle class="st6" cx="1812" cy="628.2" r="3.7"/>
	<circle class="st7" cx="936.7" cy="992" r="3.7"/>
	<circle class="st7" cx="2136.8" cy="268.9" r="3.7"/>
	<circle class="st7" cx="194.6" cy="518.5" r="3.7"/>
	<circle class="st10" cx="2133.5" cy="851.3" r="3.7"/>
	<path class="st8" d="M1128.3,1054.3l-3.2-0.1l0.1-3.2c0-1.1-0.8-2-1.8-2c-1.1,0-2,0.8-2,1.8l-0.1,3.2l-3.2-0.1c-1.1,0-2,0.8-2,1.8
		c0,1.1,0.8,2,1.8,2l3.2,0.1l-0.1,3.2c0,1.1,0.8,2,1.8,2c1.1,0,2-0.8,2-1.8l0.1-3.2l3.2,0.1c1.1,0,2-0.8,2-1.8
		C1130.2,1055.3,1129.4,1054.3,1128.3,1054.3z"/>
	<circle class="st6" cx="3072.5" cy="341.7" r="3.3"/>
	<path class="st6" d="M1525.7,786.5l-1.4-1.4l1.4-1.4c0.5-0.5,0.5-1.2,0-1.7c-0.5-0.5-1.2-0.5-1.7,0l-1.4,1.4l-1.4-1.4
		c-0.5-0.5-1.2-0.5-1.7,0c-0.5,0.5-0.5,1.2,0,1.7l1.4,1.4l-1.4,1.4c-0.5,0.5-0.5,1.2,0,1.7c0.5,0.5,1.2,0.5,1.7,0l1.4-1.4l1.4,1.4
		c0.5,0.5,1.2,0.5,1.7,0C1526.1,787.7,1526.1,787,1525.7,786.5z"/>
	<circle class="st8" cx="77.8" cy="232.1" r="3.8"/>
	<path class="st6" d="M841.2,1279.2v-1.9l1.9,0c0.6,0,1.1-0.5,1.1-1.1c0-0.6-0.5-1.1-1.1-1.1h-1.9v-1.9c0-0.6-0.5-1.1-1.1-1.1
		s-1.1,0.5-1.1,1.1v1.9h-1.9c-0.6,0-1.1,0.5-1.1,1.1c0,0.6,0.5,1.1,1.1,1.1l1.9,0v1.9c0,0.6,0.5,1.1,1.1,1.1
		C840.7,1280.3,841.2,1279.8,841.2,1279.2z"/>
	<circle class="st9" cx="1417.1" cy="1157.4" r="3.3"/>
	<path class="st9" d="M2275.3,1062.7l-2.2-2.2l2.2-2.2c0.7-0.7,0.7-2,0-2.7c-0.7-0.7-2-0.7-2.7,0l-2.2,2.2l-2.2-2.2
		c-0.7-0.7-2-0.7-2.7,0c-0.7,0.7-0.7,2,0,2.7l2.2,2.2l-2.2,2.2c-0.7,0.7-0.7,2,0,2.7c0.7,0.7,2,0.7,2.7,0l2.2-2.2l2.2,2.2
		c0.7,0.7,2,0.7,2.7,0C2276,1064.7,2276,1063.5,2275.3,1062.7z"/>
	<path class="st6" d="M1882,317.7l-2.1-0.1l0.1-2.1c0-0.7-0.5-1.3-1.2-1.4c-0.7,0-1.3,0.5-1.4,1.2l-0.1,2.1l-2.1-0.1
		c-0.7,0-1.3,0.5-1.4,1.2c0,0.7,0.5,1.3,1.2,1.4l2.1,0.1l-0.1,2.1c0,0.7,0.5,1.3,1.2,1.4c0.7,0,1.3-0.5,1.4-1.2l0.1-2.1l2.1,0.1
		c0.7,0,1.3-0.5,1.4-1.2C1883.3,318.3,1882.7,317.7,1882,317.7z"/>
	<circle class="st6" cx="734.4" cy="494" r="2.5"/>
	<circle class="st8" cx="1689.6" cy="857.2" r="2.5"/>
	<circle class="st8" cx="2891.6" cy="1095.2" r="2.5"/>
	<circle class="st8" cx="3211.6" cy="1427.2" r="2.5"/>
	<circle class="st8" cx="2899.6" cy="431.2" r="2.5"/>
	<circle class="st8" cx="1589.1" cy="88.7" r="2.5"/>
	<circle class="st8" cx="2373.1" cy="113.7" r="2.5"/>
	<circle class="st8" cx="1029.1" cy="185.7" r="2.5"/>
	<circle class="st8" cx="1517.1" cy="332.7" r="2.5"/>
	<circle class="st8" cx="3221.1" cy="712.7" r="2.5"/>
	<circle class="st8" cx="2261.1" cy="1345.7" r="2.5"/>
	<circle class="st9" cx="2988.1" cy="1436.6" r="2.5"/>
</g>
</svg>
