<?xml version="1.0" encoding="utf-8"?>
<!-- Generator: Adobe Illustrator 22.1.0, SVG Export Plug-In . SVG Version: 6.00 Build 0)  -->
<svg version="1.1" id="Layer_1" xmlns="http://www.w3.org/2000/svg" xmlns:xlink="http://www.w3.org/1999/xlink" x="0px" y="0px"
	 viewBox="0 0 2891.3 555.7" style="enable-background:new 0 0 2891.3 555.7;" xml:space="preserve">
<style type="text/css">
	.st0{fill:#0B1A38;}
	.st1{fill:#1B3564;}
</style>
<polygon class="st0" points="2857.1,355.1 2857.1,363.7 2841.8,363.7 2841.8,341.6 2819.8,341.6 2819.8,330.6 2806.9,330.6 
	2806.9,350.2 2795.9,350.2 2795.9,360.6 2771.4,360.6 2771.4,349.6 2761,349.6 2761,339.8 2723.6,339.8 2723.6,350.8 2711.4,350.8 
	2711.4,361.2 2668.5,361.2 2668.5,281 2651.4,281 2651.4,273.1 2626.9,273.1 2626.9,282.9 2615.3,282.9 2615.3,358.2 2603,358.2 
	2603,280.4 2590.8,280.4 2590.8,272.5 2566.9,272.5 2566.9,282.2 2552.2,282.2 2552.2,347.8 2532.6,347.8 2532.6,353.9 
	2512.4,353.9 2512.4,299.4 2486.7,299.4 2486.7,309.8 2467.1,309.8 2467.1,322.7 2459.8,322.7 2459.8,352.7 2434.7,352.7 
	2434.7,336.1 2416.3,336.1 2416.3,244.3 2279.8,244.3 2279.8,355.1 2263.2,355.1 2263.2,315.9 2255.9,315.9 2255.9,293.9 
	2233.8,293.9 2233.8,281.6 2220.4,281.6 2220.4,257.1 2173.8,257.1 2173.8,277.3 2167.1,277.3 2167.1,300.6 2159.1,300.6 
	2159.1,308.6 2134,308.6 2134,279.8 2125.5,279.8 2125.5,255.9 2098.5,255.9 2098.5,135.9 2044.7,135.9 2044.7,108.4 2031.2,108.4 
	2031.2,135.9 1999.4,135.9 1999.4,257.1 1984,257.1 1984,318.4 1962.6,318.4 1962.6,331.8 1940.1,331.8 1940.1,202.7 1928.9,202.7 
	1928.9,128 1913,128 1913,120.6 1899.6,120.6 1899.6,98 1869.6,98 1869.6,112.7 1849.4,112.7 1849.4,102.9 1803.4,102.9 
	1803.4,118.2 1794.9,118.2 1794.9,129.2 1783.2,129.2 1783.2,199.6 1761.2,199.6 1761.2,320.8 1748.3,320.8 1748.3,135.3 
	1731.8,135.3 1731.8,120.6 1664.5,120.6 1664.5,136.5 1646.1,136.5 1646.1,240 1598.9,240 1598.9,264.5 1590.4,264.5 1590.4,127.3 
	1578.7,127.3 1578.7,112.7 1518.1,112.7 1518.1,127.3 1507.7,127.3 1507.7,142 1491.8,142 1491.8,135.9 1414.7,135.9 1414.7,88.8 
	1400,88.8 1400,60 1384.7,60 1384.7,50.2 1368.1,50.2 1368.1,36.7 1346.7,36.7 1346.7,51.4 1332,51.4 1332,63.1 1321.6,63.1 
	1321.6,90.6 1305.1,90.6 1305.1,119.4 1283.6,119.4 1283.6,139 1275.7,139 1275.7,159.2 1259.2,159.2 1259.2,0 1160.6,0 
	1160.6,76.5 1115.3,76.5 1115.3,128.6 1108.5,128.6 1108.5,157.4 1092.6,157.4 1092.6,143.9 1085.3,143.9 1085.3,120 1022.8,120 
	1022.8,153.7 1015.5,153.7 1015.5,171.4 994.7,171.4 994.7,159.2 914,159.2 914,173.9 895.5,173.9 895.5,319 886.9,319 886.9,296.3 
	871.6,296.3 871.6,184.9 852.6,184.9 852.6,174.5 840.4,174.5 840.4,157.4 791.4,157.4 791.4,176.9 779.2,176.9 779.2,219.2 
	714.3,219.2 714.3,233.9 703.2,233.9 703.2,257.8 685.5,257.8 685.5,90.6 671.4,90.6 671.4,52 648.1,52 648.1,44.7 629.2,44.7 
	629.2,52.7 621.2,52.7 621.2,73.5 599.8,73.5 599.8,52.7 588.7,52.7 588.7,58.8 549.6,58.8 549.6,287.1 471.8,287.1 471.8,269.4 
	405.7,269.4 405.7,292.7 396.5,292.7 396.5,278 366.5,278 366.5,270 324.3,270 324.3,258.4 294.9,258.4 294.9,272.5 257.5,272.5 
	257.5,286.5 222.6,286.5 222.6,343.5 160.8,343.5 160.8,326.9 108.8,326.9 108.8,300.6 87.9,300.6 87.9,316.5 75.1,316.5 
	75.1,294.5 26.1,294.5 26.1,310.4 0,310.4 0,490.7 2891.3,490.7 2891.3,355.1 "/>
<rect x="-1.3" y="443.7" class="st1" width="2893.3" height="112"/>
</svg>
