<?xml version="1.0" encoding="utf-8"?>
<!-- Generator: Adobe Illustrator 22.1.0, SVG Export Plug-In . SVG Version: 6.00 Build 0)  -->
<svg version="1.1" id="Layer_1" xmlns="http://www.w3.org/2000/svg" xmlns:xlink="http://www.w3.org/1999/xlink" x="0px" y="0px"
	 viewBox="0 0 2880 2000" enable-background="new 0 0 2880 2000" xml:space="preserve">
<path fill="#23314E" d="M0,1999.5h2880v-412.4v-445.2c-36.8,5.4-70.6,19.7-99.4,40.7c-25.9-10.4-54.1-16.1-83.6-16.1
	c-95.4,0-176.9,59.3-209.6,143.1c-1.9-0.1-3.9-0.1-5.9-0.1c-38.7,0-74.3,13.5-102.2,36.1c-31.4-16.7-67.3-26.1-105.3-26.1
	c-78.2,0-147.1,39.9-187.4,100.4c-28-12.5-59-19.4-91.6-19.4c-75.6,0-142.4,37.3-183.2,94.4c-11.8-8.4-26.2-13.4-41.8-13.4
	c-15.5,0-29.8,4.9-41.5,13.2c-22.7-100.3-112.3-175.2-219.5-175.2c-98.6,0-182.4,63.5-212.8,151.8c-34.8-22-76-34.8-120.2-34.8
	c-41.5,0-80.3,11.2-113.6,30.8c-22.8-100.1-112.4-174.8-219.4-174.8c-79.9,0-150,41.6-190,104.4c-31.7-67-100-113.4-179-113.4
	c-36.1,0-69.9,9.7-99.1,26.5c-2.6-119.5-100.3-215.5-220.4-215.5c-60.4,0-115.2,24.3-155,63.7v313.6c0.2,0.2,0.3,0.3,0.5,0.5V1999.5
	z"/>
</svg>
