<?xml version="1.0" encoding="utf-8"?>
<!-- Generator: Adobe Illustrator 22.1.0, SVG Export Plug-In . SVG Version: 6.00 Build 0)  -->
<svg version="1.1" id="Layer_1" xmlns="http://www.w3.org/2000/svg" xmlns:xlink="http://www.w3.org/1999/xlink" x="0px" y="0px"
	 viewBox="0 0 500 500" enable-background="new 0 0 500 500" xml:space="preserve">
<path fill="#DFE2E5" d="M495,249.4c0,135-109.8,244.8-244.8,244.8c-135,0-244.8-109.8-244.8-244.8c0-135,109.8-244.8,244.8-244.8
	C385.2,4.5,495,114.4,495,249.4"/>
<path fill="#F5F7FA" d="M403.5,73.8c-0.2,45.8-10.3,89.3-28.4,128.4c7.1-8.1,17.6-13.2,29.2-13.2c21.5,0,38.9,17.5,38.9,38.9
	c0,21.5-17.5,38.9-38.9,38.9c-21.5,0-38.9-17.5-38.9-38.9c0-2.7,0.3-5.3,0.8-7.8c-37.4,68.8-100.1,121.8-175.6,146.5
	c12.3,5.9,20.8,18.4,20.8,32.9c0,20.1-16.4,36.5-36.5,36.5c-20.1,0-36.5-16.4-36.5-36.5c0-8.2,2.8-15.8,7.4-21.9
	c-16.8,2.8-34.1,4.3-51.7,4.3c-12.6,0-25.1-0.8-37.3-2.2c42,62,113,102.9,193.3,102.9c128.6,0,233.2-104.6,233.2-233.2
	C483.4,179.4,452.4,116.6,403.5,73.8z M333.3,420c-26.8,0-48.6-21.8-48.6-48.6c0-26.8,21.8-48.6,48.6-48.6
	c26.8,0,48.6,21.8,48.6,48.6C381.9,398.2,360.1,420,333.3,420z"/>
<circle fill="#F5F7FA" cx="149.4" cy="268.2" r="50.6"/>
<circle fill="#F5F7FA" cx="168.2" cy="123.4" r="30.8"/>
<circle fill="#F5F7FA" cx="298.2" cy="168.9" r="41.5"/>
</svg>
