<?xml version="1.0" encoding="utf-8"?>
<!-- Generator: Adobe Illustrator 22.1.0, SVG Export Plug-In . SVG Version: 6.00 Build 0)  -->
<svg version="1.1" id="BACKGROUND_2" xmlns="http://www.w3.org/2000/svg" xmlns:xlink="http://www.w3.org/1999/xlink" x="0px"
	 y="0px" viewBox="0 0 148.4 244.4" enable-background="new 0 0 148.4 244.4" xml:space="preserve">
<g>
	<g>
		<polygon fill="#364760" points="94.7,159 53.9,158.9 52.7,163.3 95.8,163.4 		"/>
		<polygon fill="#576784" points="52.7,163.3 49.5,174.9 98.7,175 95.8,163.4 		"/>
	</g>
	<path fill="#364760" d="M101.7,178.7l-55.2-0.1c-1,0-1.8-0.8-1.8-1.8l0,0c0-1,0.8-1.8,1.8-1.8l55.2,0.1c1,0,1.8,0.8,1.8,1.8l0,0
		C103.5,177.9,102.7,178.7,101.7,178.7z"/>
</g>
<path fill="#FF8039" d="M73.9,244.4l0.2-65.7l-25.7-0.1c-5.7,15-0.4,32.7,2.9,37.1"/>
<path fill="#FF6E3B" d="M73.9,244.4l0.2-65.7l25.7,0.1c5.6,15,0.3,32.7-3.1,37.1"/>
<path fill="#FFCD02" d="M74,220.4l0.1-41.7l-16.3,0c-3.6,9.5-0.3,20.7,1.8,23.6l2-2.9C61.6,205.1,68.7,215.2,74,220.4"/>
<path fill="#FFBC00" d="M74,220.4l0.1-41.7l16.3,0c3.6,9.5,0.2,20.7-2,23.6l-2-2.9C86.4,205.2,79.2,215.3,74,220.4"/>
<g>
	<g>
		<path fill="#E9EDF2" d="M99.1,23.6l-24.7-0.1l-0.1,20.2L74.1,159l29.8,0.1c4.7,0,8.6-3.8,8.6-8.5l0.2-82.4
			C112.7,52.3,108,36.8,99.1,23.6L99.1,23.6z"/>
		<path fill="#F5F7FA" d="M49.8,23.5L49.8,23.5C40.9,36.6,36.1,52.1,36,68l-0.2,82.4c0,4.7,3.8,8.6,8.5,8.6l29.8,0.1l0.3-115.3
			l0.1-20.2L49.8,23.5z"/>
		<path fill="#364760" d="M99.1,23.6l-11-16.3C84.9,2.4,79.7,0,74.5,0l-0.1,23.5L99.1,23.6z"/>
		<path fill="#576784" d="M74.5,0c-5.2,0-10.4,2.4-13.6,7.2L49.8,23.5l24.7,0.1L74.5,0z"/>
	</g>
	<g>
		<circle fill="#364760" cx="74.2" cy="81.5" r="23.6"/>
		<g>
			<g>
				<path fill="#5C5CFF" d="M93.2,81.5c0-5-1.9-9.5-5.1-12.9c0,0.4,0,0.7,0,1.1c0,12.1-5.1,23-13.3,30.7
					C85.1,100.1,93.2,91.8,93.2,81.5z"/>
				<path fill="#5C5CFF" d="M88.2,69.7c0-0.4,0-0.8,0-1.1c-2.6-2.8-6.1-4.9-10.1-5.7c0,0.5,0.1,1,0.1,1.6c0,11.6-9.4,20.9-21,20.9
					c-0.5,0-1.1,0-1.6-0.1c1.8,8.7,9.4,15.2,18.6,15.2c0.3,0,0.5,0,0.8,0C83.1,92.7,88.2,81.8,88.2,69.7z"/>
			</g>
			<path fill="#7B7BFF" d="M78.2,64.5c0-0.5,0-1.1-0.1-1.6c-1.2-0.3-2.5-0.4-3.8-0.4c-10.5,0-19,8.5-19,18.9c0,1.3,0.1,2.6,0.4,3.8
				c0.5,0,1,0.1,1.6,0.1C68.8,85.4,78.2,76,78.2,64.5z"/>
		</g>
	</g>
</g>
<polygon fill="#CFD8E2" points="112.6,108 112.5,145.7 120.2,145.7 120.2,112.1 "/>
<path fill="#F5F7FA" d="M148.4,133.8c0-4.2-2.3-8.1-6.1-10.1l-22.1-11.7l-0.1,33.6l21.9,0.1c3.5,0,6.3-2.8,6.3-6.3"/>
<g>
	<polygon fill="#CFD8E2" points="35.9,107.8 35.8,145.5 28.2,145.4 28.3,111.8 	"/>
	<path fill="#F5F7FA" d="M0,133.4c0-4.2,2.4-8.1,6.1-10.1l22.1-11.5l-0.1,33.6l-21.9-0.1c-3.5,0-6.3-2.8-6.3-6.3L0,133.4z"/>
</g>
</svg>
