<?xml version="1.0" encoding="utf-8"?>
<!-- Generator: Adobe Illustrator 22.1.0, SVG Export Plug-In . SVG Version: 6.00 Build 0)  -->
<svg version="1.1" id="Layer_1" xmlns="http://www.w3.org/2000/svg" xmlns:xlink="http://www.w3.org/1999/xlink" x="0px" y="0px"
	 viewBox="0 0 2880 2000" enable-background="new 0 0 2880 2000" xml:space="preserve">
<path fill="#F5F7FA" d="M1078.8,195.6l-1.7-1.7l1.7-1.7c0.6-0.6,0.6-1.5,0-2.1c-0.6-0.6-1.5-0.6-2.1,0l-1.7,1.7l-1.7-1.7
	c-0.6-0.6-1.5-0.6-2.1,0c-0.6,0.6-0.6,1.5,0,2.1l1.7,1.7l-1.7,1.7c-0.6,0.6-0.6,1.5,0,2.1c0.6,0.6,1.5,0.6,2.1,0l1.7-1.7l1.7,1.7
	c0.6,0.6,1.5,0.6,2.1,0C1079.4,197.1,1079.4,196.2,1078.8,195.6z"/>
<circle fill="#D7D7FF" cx="505.5" cy="276" r="4.5"/>
<circle fill="#D7D7FF" cx="829.5" cy="789" r="4.5"/>
<circle fill="#8AD5FF" cx="2233.5" cy="240" r="4.5"/>
<circle fill="#F5F7FA" cx="2413.5" cy="627" r="4.5"/>
<circle fill="#FFCD02" cx="2710.5" cy="330" r="4.5"/>
<path fill="#FFCD02" d="M1814.9,268.7l-1.8-1.8l1.8-1.8c0.6-0.6,0.6-1.6,0-2.2c-0.6-0.6-1.6-0.6-2.2,0l-1.8,1.8l-1.8-1.8
	c-0.6-0.6-1.6-0.6-2.2,0c-0.6,0.6-0.6,1.6,0,2.2l1.8,1.8l-1.8,1.8c-0.6,0.6-0.6,1.6,0,2.2c0.6,0.6,1.6,0.6,2.2,0l1.8-1.8l1.8,1.8
	c0.6,0.6,1.6,0.6,2.2,0C1815.5,270.3,1815.5,269.3,1814.9,268.7z"/>
<path fill="#F5F7FA" d="M2714.9,691.7l-1.8-1.8l1.8-1.8c0.6-0.6,0.6-1.6,0-2.2c-0.6-0.6-1.6-0.6-2.2,0l-1.8,1.8l-1.8-1.8
	c-0.6-0.6-1.6-0.6-2.2,0c-0.6,0.6-0.6,1.6,0,2.2l1.8,1.8l-1.8,1.8c-0.6,0.6-0.6,1.6,0,2.2c0.6,0.6,1.6,0.6,2.2,0l1.8-1.8l1.8,1.8
	c0.6,0.6,1.6,0.6,2.2,0C2715.5,693.3,2715.5,692.3,2714.9,691.7z"/>
<path fill="#FFCD02" d="M248.9,277.7l-1.8-1.8l1.8-1.8c0.6-0.6,0.6-1.6,0-2.2c-0.6-0.6-1.6-0.6-2.2,0l-1.8,1.8l-1.8-1.8
	c-0.6-0.6-1.6-0.6-2.2,0c-0.6,0.6-0.6,1.6,0,2.2l1.8,1.8l-1.8,1.8c-0.6,0.6-0.6,1.6,0,2.2c0.6,0.6,1.6,0.6,2.2,0l1.8-1.8l1.8,1.8
	c0.6,0.6,1.6,0.6,2.2,0C249.5,279.3,249.5,278.3,248.9,277.7z"/>
<path fill="#5C5CFF" d="M194.9,763.7l-1.8-1.8l1.8-1.8c0.6-0.6,0.6-1.6,0-2.2c-0.6-0.6-1.6-0.6-2.2,0l-1.8,1.8l-1.8-1.8
	c-0.6-0.6-1.6-0.6-2.2,0c-0.6,0.6-0.6,1.6,0,2.2l1.8,1.8l-1.8,1.8c-0.6,0.6-0.6,1.6,0,2.2c0.6,0.6,1.6,0.6,2.2,0l1.8-1.8l1.8,1.8
	c0.6,0.6,1.6,0.6,2.2,0C195.5,765.3,195.5,764.3,194.9,763.7z"/>
<circle fill="#FFCD02" cx="613.5" cy="1122" r="4.5"/>
<circle fill="#FFCD02" cx="568.5" cy="501" r="4.5"/>
<circle fill="#8AD5FF" cx="1270.5" cy="1095" r="4.5"/>
<circle fill="#FFCD02" cx="2314.5" cy="1032" r="4.5"/>
</svg>
