<?xml version="1.0" encoding="utf-8"?>
<!-- Generator: Adobe Illustrator 22.1.0, SVG Export Plug-In . SVG Version: 6.00 Build 0)  -->
<svg version="1.1" id="Layer_1" xmlns="http://www.w3.org/2000/svg" xmlns:xlink="http://www.w3.org/1999/xlink" x="0px" y="0px"
	 viewBox="0 0 3279.1 3009" style="enable-background:new 0 0 3279.1 3009;" xml:space="preserve">
<style type="text/css">
	.st0{display:none;}
	.st1{display:inline;fill:#5C5CFF;}
	.st2{display:inline;fill:#F5F7FA;}
	.st3{display:inline;fill:#8AD5FF;}
	.st4{display:inline;fill:#FFCD02;}
	.st5{display:inline;fill:#2CB4FF;}
	.st6{fill:#F5F7FA;}
	.st7{fill:#FFCD02;}
	.st8{fill:#5C5CFF;}
	.st9{fill:#8AD5FF;}
	.st10{fill:#2CB4FF;}
</style>
<g id="Layer_1_1_" class="st0">
	<circle class="st1" cx="657.1" cy="223.7" r="4.5"/>
	<circle class="st2" cx="531.6" cy="641.2" r="4.5"/>
	<circle class="st2" cx="2340" cy="354.5" r="4.5"/>
	<circle class="st2" cx="2854.1" cy="815.7" r="4.5"/>
	<circle class="st2" cx="2782.6" cy="265.2" r="4.5"/>
	<path class="st3" d="M1819.1,270.4l-2.3-2.3l2.3-2.3c0.8-0.8,0.8-2,0-2.8s-2-0.8-2.8,0l-2.3,2.3l-2.3-2.3c-0.8-0.8-2-0.8-2.8,0
		s-0.8,2,0,2.8l2.3,2.3l-2.3,2.3c-0.8,0.8-0.8,2,0,2.8s2,0.8,2.8,0l2.3-2.3l2.3,2.3c0.8,0.8,2,0.8,2.8,0S1819.9,271.2,1819.1,270.4z
		"/>
	<path class="st1" d="M263.8,720.8l-2.4-2.4l2.4-2.4c0.8-0.8,0.8-2.1,0-2.9s-2.1-0.8-2.9,0l-2.4,2.4l-2.4-2.4
		c-0.8-0.8-2.1-0.8-2.9,0c-0.8,0.8-0.8,2.1,0,2.9l2.4,2.4l-2.4,2.4c-0.8,0.8-0.8,2.1,0,2.9c0.8,0.8,2.1,0.8,2.9,0l2.4-2.4l2.4,2.4
		c0.8,0.8,2.1,0.8,2.9,0C264.6,723,264.6,721.6,263.8,720.8z"/>
	<circle class="st3" cx="588.1" cy="1113.7" r="4.5"/>
	<circle class="st3" cx="561.1" cy="381.7" r="4.5"/>
	<circle class="st4" cx="1271.6" cy="1094.2" r="4.5"/>
	<circle class="st3" cx="3151.1" cy="423.2" r="6"/>
	<circle class="st4" cx="3008.1" cy="226.2" r="6"/>
	<circle class="st1" cx="2646.1" cy="354.4" r="6.8"/>
	<circle class="st5" cx="2111.6" cy="387.2" r="4.5"/>
	<path class="st2" d="M1412.3,126.5h-3.2v-3.2c0-1.1-0.9-2-2-2s-2,0.9-2,2v3.2h-3.2c-1.1,0-2,0.9-2,2c0,1.1,0.9,2,2,2h3.2v3.2
		c0,1.1,0.9,2,2,2s2-0.9,2-2v-3.2h3.2c1.1,0,2-0.9,2-2C1414.2,127.4,1413.4,126.5,1412.3,126.5z"/>
	<circle class="st5" cx="1482.6" cy="309.2" r="4.5"/>
	<circle class="st1" cx="1017.1" cy="343.7" r="4.5"/>
	<path class="st3" d="M834.8,847.6l2.4-2.4l2.4,2.4c0.8,0.8,2.1,0.8,2.9,0c0.8-0.8,0.8-2.1,0-2.9l-2.4-2.4l2.4-2.4
		c0.8-0.8,0.8-2.1,0-2.9s-2.1-0.8-2.9,0l-2.4,2.4l-2.4-2.4c-0.8-0.8-2.1-0.8-2.9,0c-0.8,0.8-0.8,2.1,0,2.9l2.4,2.4l-2.4,2.4
		c-0.8,0.8-0.8,2.1,0,2.9C832.6,848.4,834,848.4,834.8,847.6z"/>
	<circle class="st4" cx="827.6" cy="1037.2" r="4.5"/>
	<circle class="st5" cx="190.1" cy="1336.7" r="4.5"/>
	<circle class="st5" cx="1662.6" cy="1295.2" r="6.8"/>
	<circle class="st5" cx="1681.4" cy="975.2" r="6.8"/>
	<path class="st4" d="M1252,786.5v-3.4h3.4c1.1,0,2.1-0.9,2.1-2.1c0-1.1-0.9-2.1-2.1-2.1h-3.4v-3.4c0-1.1-0.9-2.1-2.1-2.1
		c-1.1,0-2.1,0.9-2.1,2.1v3.4h-3.4c-1.1,0-2.1,0.9-2.1,2.1c0,1.1,0.9,2.1,2.1,2.1h3.4v3.4c0,1.1,0.9,2.1,2.1,2.1
		C1251,788.5,1252,787.6,1252,786.5z"/>
	<circle class="st3" cx="2779.1" cy="1312.7" r="4.5"/>
	<circle class="st1" cx="1942.6" cy="1269.2" r="4.5"/>
	<path class="st1" d="M1849.4,1403.7l-3-3l3-3c1-1,1-2.7,0-3.7s-2.7-1-3.7,0l-3,3l-3-3c-1-1-2.7-1-3.7,0s-1,2.7,0,3.7l3,3l-3,3
		c-1,1-1,2.7,0,3.7s2.7,1,3.7,0l3-3l3,3c1,1,2.7,1,3.7,0C1850.4,1406.4,1850.4,1404.7,1849.4,1403.7z"/>
	<path class="st1" d="M2322.4,1134.3l-2.6-2.6l2.6-2.6c0.9-0.9,0.9-2.3,0-3.2s-2.3-0.9-3.2,0l-2.6,2.6l-2.6-2.6
		c-0.9-0.9-2.3-0.9-3.2,0s-0.9,2.3,0,3.2l2.6,2.6l-2.6,2.6c-0.9,0.9-0.9,2.3,0,3.2s2.3,0.9,3.2,0l2.6-2.6l2.6,2.6
		c0.9,0.9,2.3,0.9,3.2,0C2323.3,1136.6,2323.3,1135.1,2322.4,1134.3z"/>
	<circle class="st3" cx="2535.1" cy="1265.1" r="6"/>
	<circle class="st1" cx="2739.1" cy="608.8" r="6.8"/>
	<path class="st1" d="M1553.2,831.3l-2.3-2.5l2.5-2.3c0.8-0.8,0.9-2.1,0.1-2.9c-0.8-0.8-2.1-0.9-2.9-0.1l-2.5,2.3l-2.3-2.5
		c-0.8-0.8-2.1-0.9-2.9-0.1c-0.8,0.8-0.9,2.1-0.1,2.9l2.3,2.5l-2.5,2.3c-0.8,0.8-0.9,2.1-0.1,2.9c0.8,0.8,2.1,0.9,2.9,0.1l2.5-2.3
		l2.3,2.5c0.8,0.8,2.1,0.9,2.9,0.1C1553.8,833.5,1553.9,832.2,1553.2,831.3z"/>
	<circle class="st5" cx="1970.2" cy="592.1" r="4.5"/>
	<circle class="st1" cx="1886.3" cy="391" r="6"/>
	<circle class="st1" cx="2347.5" cy="803" r="4.5"/>
	<circle class="st5" cx="3160.6" cy="977" r="4.5"/>
	<path class="st2" d="M484.6,1322.7v-3.4h3.4c1.1,0,2.1-0.9,2.1-2.1c0-1.1-0.9-2.1-2.1-2.1h-3.4v-3.4c0-1.1-0.9-2.1-2.1-2.1
		c-1.1,0-2.1,0.9-2.1,2.1v3.4H477c-1.1,0-2.1,0.9-2.1,2.1c0,1.1,0.9,2.1,2.1,2.1h3.4v3.4c0,1.1,0.9,2.1,2.1,2.1
		C483.7,1324.7,484.6,1323.8,484.6,1322.7z"/>
	<circle class="st2" cx="2001" cy="144.4" r="4.5"/>
	<circle class="st2" cx="1683" cy="360.5" r="4.5"/>
	<circle class="st2" cx="2181" cy="696.5" r="4.5"/>
</g>
<path class="st6" d="M1079.9,1575.9l-1.7-1.7l1.7-1.7c0.6-0.6,0.6-1.5,0-2.1s-1.5-0.6-2.1,0l-1.7,1.7l-1.7-1.7
	c-0.6-0.6-1.5-0.6-2.1,0s-0.6,1.5,0,2.1l1.7,1.7l-1.7,1.7c-0.6,0.6-0.6,1.5,0,2.1s1.5,0.6,2.1,0l1.7-1.7l1.7,1.7
	c0.6,0.6,1.5,0.6,2.1,0S1080.5,1576.5,1079.9,1575.9z"/>
<path class="st7" d="M2775.1,2404.3l-3.7-3.7l3.7-3.7c1.2-1.2,1.2-3.3,0-4.5s-3.3-1.2-4.5,0l-3.7,3.7l-3.7-3.7
	c-1.2-1.2-3.3-1.2-4.5,0s-1.2,3.3,0,4.5l3.7,3.7l-3.7,3.7c-1.2,1.2-1.2,3.3,0,4.5s3.3,1.2,4.5,0l3.7-3.7l3.7,3.7
	c1.2,1.2,3.3,1.2,4.5,0S2776.3,2405.5,2775.1,2404.3z"/>
<path class="st7" d="M321.4,1614.7l-2.1-2.1l2.1-2.1c0.7-0.7,0.7-1.9,0-2.6c-0.7-0.7-1.9-0.7-2.6,0l-2.1,2.1l-2.1-2.1
	c-0.7-0.7-1.9-0.7-2.6,0c-0.7,0.7-0.7,1.9,0,2.6l2.1,2.1l-2.1,2.1c-0.7,0.7-0.7,1.9,0,2.6c0.7,0.7,1.9,0.7,2.6,0l2.1-2.1l2.1,2.1
	c0.7,0.7,1.9,0.7,2.6,0C322.1,1616.6,322.1,1615.5,321.4,1614.7z"/>
<circle class="st7" cx="3159.1" cy="2066.3" r="6"/>
<circle class="st8" cx="2180.6" cy="1672.3" r="4.5"/>
<circle class="st7" cx="165.1" cy="2338.4" r="6.9"/>
<circle class="st9" cx="1087.1" cy="2704.4" r="6.9"/>
<circle class="st8" cx="800.6" cy="2710.3" r="4.5"/>
<circle class="st10" cx="1093.6" cy="2361.3" r="4.5"/>
<path class="st7" d="M2247.2,2677.1v-3.4h3.4c1.1,0,2.1-0.9,2.1-2.1s-0.9-2.1-2.1-2.1h-3.4v-3.4c0-1.1-0.9-2.1-2.1-2.1
	c-1.1,0-2.1,0.9-2.1,2.1v3.4h-3.4c-1.1,0-2.1,0.9-2.1,2.1s0.9,2.1,2.1,2.1h3.4v3.4c0,1.1,0.9,2.1,2.1,2.1
	S2247.2,2678.2,2247.2,2677.1z"/>
<path class="st8" d="M3152.1,2820.3l-4.1-4.1l4.1-4.1c1.4-1.4,1.4-3.6,0-5c-1.4-1.4-3.6-1.4-5,0l-4.1,4.1l-4.1-4.1
	c-1.4-1.4-3.6-1.4-5,0c-1.4,1.4-1.4,3.6,0,5l4.1,4.1l-4.1,4.1c-1.4,1.4-1.4,3.6,0,5c1.4,1.4,3.6,1.4,5,0l4.1-4.1l4.1,4.1
	c1.4,1.4,3.6,1.4,5,0C3153.5,2823.9,3153.5,2821.7,3152.1,2820.3z"/>
<path class="st6" d="M332.2,2426.2l-3.5-3.5l3.5-3.5c1.2-1.2,1.2-3.1,0-4.3s-3.1-1.2-4.3,0l-3.5,3.5l-3.5-3.5
	c-1.2-1.2-3.1-1.2-4.3,0c-1.2,1.2-1.2,3.1,0,4.3l3.5,3.5l-3.5,3.5c-1.2,1.2-1.2,3.1,0,4.3c1.2,1.2,3.1,1.2,4.3,0l3.5-3.5l3.5,3.5
	c1.2,1.2,3.1,1.2,4.3,0C333.3,2429.3,333.3,2427.3,332.2,2426.2z"/>
<path class="st10" d="M206.8,1854.1l-4.1-4.1l4.1-4.1c1.4-1.4,1.4-3.6,0-5c-1.4-1.4-3.6-1.4-5,0l-4.1,4.1l-4.1-4.1
	c-1.4-1.4-3.6-1.4-5,0c-1.4,1.4-1.4,3.6,0,5l4.1,4.1l-4.1,4.1c-1.4,1.4-1.4,3.6,0,5s3.6,1.4,5,0l4.1-4.1l4.1,4.1
	c1.4,1.4,3.6,1.4,5,0S208.2,1855.4,206.8,1854.1z"/>
<path class="st10" d="M929.9,2571.1l-4.1-4.1l4.1-4.1c1.4-1.4,1.4-3.6,0-5c-1.4-1.4-3.6-1.4-5,0l-4.1,4.1l-4.1-4.1
	c-1.4-1.4-3.6-1.4-5,0c-1.4,1.4-1.4,3.6,0,5l4.1,4.1l-4.1,4.1c-1.4,1.4-1.4,3.6,0,5c1.4,1.4,3.6,1.4,5,0l4.1-4.1l4.1,4.1
	c1.4,1.4,3.6,1.4,5,0C931.3,2574.7,931.3,2572.5,929.9,2571.1z"/>
<circle class="st6" cx="2016" cy="2445.2" r="6"/>
<circle class="st6" cx="806.9" cy="1992.9" r="6.8"/>
<circle class="st7" cx="1271.9" cy="1812.9" r="6.8"/>
<circle class="st7" cx="2376.8" cy="1890.1" r="6.8"/>
<circle class="st7" cx="1780.8" cy="2181" r="6.8"/>
<circle class="st10" cx="1579.1" cy="1931.8" r="6.8"/>
<path class="st8" d="M1994.1,2138.1l-5.7-0.3l0.3-5.7c0.1-1.9-1.4-3.6-3.3-3.7s-3.6,1.4-3.7,3.3l-0.3,5.7l-5.7-0.3
	c-1.9-0.1-3.6,1.4-3.7,3.3s1.4,3.6,3.3,3.7l5.7,0.3l-0.3,5.7c-0.1,1.9,1.4,3.6,3.3,3.7c1.9,0.1,3.6-1.4,3.7-3.3l0.3-5.7l5.7,0.3
	c1.9,0.1,3.6-1.4,3.7-3.3C1997.5,2139.9,1996,2138.2,1994.1,2138.1z"/>
<circle class="st6" cx="3028.1" cy="2598.3" r="6"/>
<path class="st6" d="M2376.5,1598.2l-2.5-2.5l2.5-2.5c0.8-0.8,0.8-2.2,0-3.1c-0.8-0.8-2.2-0.8-3.1,0l-2.5,2.5l-2.5-2.5
	c-0.8-0.8-2.2-0.8-3.1,0c-0.9,0.8-0.8,2.2,0,3.1l2.5,2.5l-2.5,2.5c-0.8,0.8-0.8,2.2,0,3.1c0.8,0.8,2.2,0.8,3.1,0l2.5-2.5l2.5,2.5
	c0.8,0.8,2.2,0.8,3.1,0C2377.3,1600.4,2377.3,1599,2376.5,1598.2z"/>
<circle class="st8" cx="628.2" cy="2197.3" r="6.9"/>
<path class="st6" d="M1473.2,2546.2v-3.4h3.4c1.1,0,2.1-0.9,2.1-2.1s-0.9-2.1-2.1-2.1h-3.4v-3.4c0-1.1-0.9-2.1-2.1-2.1
	c-1.1,0-2.1,0.9-2.1,2.1v3.4h-3.4c-1.1,0-2.1,0.9-2.1,2.1c0,1.1,0.9,2.1,2.1,2.1h3.4v3.4c0,1.1,0.9,2.1,2.1,2.1
	S1473.2,2547.4,1473.2,2546.2z"/>
<circle class="st9" cx="2518.1" cy="2325.3" r="6"/>
<path class="st9" d="M2916.1,1771.1l-4.1-4.1l4.1-4.1c1.4-1.4,1.4-3.6,0-5c-1.4-1.4-3.6-1.4-5,0l-4.1,4.1l-4.1-4.1
	c-1.4-1.4-3.6-1.4-5,0c-1.4,1.4-1.4,3.6,0,5l4.1,4.1l-4.1,4.1c-1.4,1.4-1.4,3.6,0,5s3.6,1.4,5,0l4.1-4.1l4.1,4.1
	c1.4,1.4,3.6,1.4,5,0S2917.5,1772.5,2916.1,1771.1z"/>
<path class="st6" d="M1253.9,2003.8l-3.9-0.2l0.2-3.9c0.1-1.3-1-2.4-2.3-2.5s-2.4,1-2.5,2.3l-0.2,3.9l-3.9-0.2
	c-1.3-0.1-2.4,1-2.5,2.3c-0.1,1.3,1,2.4,2.3,2.5l3.9,0.2l-0.2,3.9c-0.1,1.3,1,2.4,2.3,2.5s2.4-1,2.5-2.3l0.2-3.9l3.9,0.2
	c1.3,0.1,2.4-1,2.5-2.3C1256.2,2005,1255.2,2003.9,1253.9,2003.8z"/>
<circle class="st6" cx="361.3" cy="1848.1" r="4.5"/>
<g id="Layer_4_1_">
	<path class="st6" d="M2221.4,127.9c0.6,0.6,1.5,0.6,2.1,0l1.7-1.7l1.7,1.7c0.6,0.6,1.5,0.6,2.1,0c0.6-0.6,0.6-1.5,0-2.1l-1.7-1.7
		l1.7-1.7c0.6-0.6,0.6-1.5,0-2.1c-0.6-0.6-1.5-0.6-2.1,0l-1.7,1.7l-1.7-1.7c-0.6-0.6-1.5-0.6-2.1,0c-0.6,0.6-0.6,1.5,0,2.1l1.7,1.7
		l-1.7,1.7C2220.8,126.4,2220.8,127.3,2221.4,127.9z"/>
	<path class="st7" d="M526.2,958.7c1.2,1.2,3.3,1.2,4.5,0l3.7-3.7l3.7,3.7c1.2,1.2,3.3,1.2,4.5,0s1.2-3.3,0-4.5l-3.7-3.7l3.7-3.7
		c1.2-1.2,1.2-3.3,0-4.5s-3.3-1.2-4.5,0l-3.7,3.7l-3.7-3.7c-1.2-1.2-3.3-1.2-4.5,0s-1.2,3.3,0,4.5l3.7,3.7l-3.7,3.7
		C525,955.4,525,957.5,526.2,958.7z"/>
	<path class="st7" d="M2979.9,167.2c0.7,0.7,1.9,0.7,2.6,0l2.1-2.1l2.1,2.1c0.7,0.7,1.9,0.7,2.6,0c0.7-0.7,0.7-1.9,0-2.6l-2.1-2.1
		l2.1-2.1c0.7-0.7,0.7-1.9,0-2.6c-0.7-0.7-1.9-0.7-2.6,0l-2.1,2.1l-2.1-2.1c-0.7-0.7-1.9-0.7-2.6,0c-0.7,0.7-0.7,1.9,0,2.6l2.1,2.1
		l-2.1,2.1C2979.2,165.4,2979.2,166.5,2979.9,167.2z"/>
	<circle class="st7" cx="142.2" cy="616.2" r="6"/>
	<circle class="st8" cx="1120.7" cy="222.2" r="4.5"/>
	<circle class="st7" cx="3136.2" cy="888.3" r="6.9"/>
	<circle class="st9" cx="2214.2" cy="1254.3" r="6.9"/>
	<circle class="st8" cx="2500.7" cy="1260.2" r="4.5"/>
	<circle class="st10" cx="2207.7" cy="911.2" r="4.5"/>
	<path class="st7" d="M1056.2,1229.1c1.2,0,2.1-1,2.1-2.1v-3.4h3.4c1.2,0,2.1-0.9,2.1-2.1s-1-2.1-2.1-2.1h-3.4v-3.4
		c0-1.2-1-2.1-2.1-2.1c-1.2,0-2.1,1-2.1,2.1v3.4h-3.4c-1.2,0-2.1,0.9-2.1,2.1s1,2.1,2.1,2.1h3.4v3.4
		C1054.1,1228.1,1055,1229.1,1056.2,1229.1z"/>
	<path class="st8" d="M149.2,1375.2c1.4,1.4,3.6,1.4,5,0l4.1-4.1l4.1,4.1c1.4,1.4,3.6,1.4,5,0s1.4-3.6,0-5l-4.1-4.1l4.1-4.1
		c1.4-1.4,1.4-3.6,0-5s-3.6-1.4-5,0l-4.1,4.1l-4.1-4.1c-1.4-1.4-3.6-1.4-5,0s-1.4,3.6,0,5l4.1,4.1l-4.1,4.1
		C147.8,1371.6,147.8,1373.8,149.2,1375.2z"/>
	<path class="st6" d="M2969.1,980.4c1.2,1.2,3.1,1.2,4.3,0l3.5-3.5l3.5,3.5c1.2,1.2,3.1,1.2,4.3,0c1.2-1.2,1.2-3.1,0-4.3l-3.5-3.5
		l3.5-3.5c1.2-1.2,1.2-3.1,0-4.3c-1.2-1.2-3.1-1.2-4.3,0l-3.5,3.5l-3.5-3.5c-1.2-1.2-3.1-1.2-4.3,0c-1.2,1.2-1.2,3.1,0,4.3l3.5,3.5
		l-3.5,3.5C2968,977.2,2968,979.2,2969.1,980.4z"/>
	<path class="st10" d="M3094.5,409c1.4,1.4,3.6,1.4,5,0l4.1-4.1l4.1,4.1c1.4,1.4,3.6,1.4,5,0c1.4-1.4,1.4-3.6,0-5l-4.1-4.1l4.1-4.1
		c1.4-1.4,1.4-3.6,0-5c-1.4-1.4-3.6-1.4-5,0l-4.1,4.1l-4.1-4.1c-1.4-1.4-3.6-1.4-5,0c-1.4,1.4-1.4,3.6,0,5l4.1,4.1l-4.1,4.1
		C3093.1,405.3,3093.1,407.6,3094.5,409z"/>
	<path class="st10" d="M2371.4,1126c1.4,1.4,3.6,1.4,5,0l4.1-4.1l4.1,4.1c1.4,1.4,3.6,1.4,5,0c1.4-1.4,1.4-3.6,0-5l-4.1-4.1l4.1-4.1
		c1.4-1.4,1.4-3.6,0-5c-1.4-1.4-3.6-1.4-5,0l-4.1,4.1l-4.1-4.1c-1.4-1.4-3.6-1.4-5,0c-1.4,1.4-1.4,3.6,0,5l4.1,4.1l-4.1,4.1
		C2370,1122.4,2370,1124.6,2371.4,1126z"/>
	<circle class="st6" cx="1285.3" cy="995.1" r="6"/>
	<circle class="st6" cx="2494.4" cy="542.8" r="6.8"/>
	<circle class="st7" cx="2029.4" cy="362.8" r="6.8"/>
	<circle class="st7" cx="924.5" cy="440" r="6.8"/>
	<circle class="st7" cx="1520.5" cy="730.9" r="6.8"/>
	<circle class="st10" cx="1722.2" cy="481.7" r="6.8"/>
	<path class="st8" d="M1303.9,691.7c0.1,1.9,1.8,3.4,3.7,3.3l5.7-0.3l0.3,5.7c0.1,1.9,1.8,3.4,3.7,3.3c1.9-0.1,3.4-1.8,3.3-3.7
		l-0.3-5.7l5.7-0.3c1.9-0.1,3.4-1.8,3.3-3.7c-0.1-1.9-1.8-3.4-3.7-3.3l-5.7,0.3l-0.3-5.7c-0.1-1.9-1.8-3.4-3.7-3.3
		c-1.9,0.1-3.4,1.8-3.3,3.7l0.3,5.7l-5.7,0.3C1305.3,688.1,1303.8,689.8,1303.9,691.7z"/>
	<circle class="st6" cx="273.2" cy="1148.2" r="6"/>
	<path class="st6" d="M924.8,151.2c0.9,0.8,2.3,0.8,3.1,0l2.5-2.5l2.5,2.5c0.9,0.8,2.3,0.8,3.1,0c0.8-0.9,0.8-2.3,0-3.1l-2.5-2.5
		l2.5-2.5c0.8-0.9,0.9-2.3,0-3.1s-2.3-0.8-3.1,0l-2.5,2.5l-2.5-2.5c-0.9-0.8-2.3-0.8-3.1,0c-0.8,0.9-0.8,2.3,0,3.1l2.5,2.5l-2.5,2.5
		C924,148.9,924,150.3,924.8,151.2z"/>
	<circle class="st8" cx="2673.1" cy="747.2" r="6.9"/>
	<path class="st6" d="M1830.2,1098.2c1.2,0,2.1-1,2.1-2.1v-3.4h3.4c1.2,0,2.1-1,2.1-2.1c0-1.2-1-2.1-2.1-2.1h-3.4v-3.4
		c0-1.2-1-2.1-2.1-2.1c-1.2,0-2.1,1-2.1,2.1v3.4h-3.4c-1.2,0-2.1,0.9-2.1,2.1s1,2.1,2.1,2.1h3.4v3.4
		C1828.1,1097.3,1829,1098.2,1830.2,1098.2z"/>
	<circle class="st9" cx="783.2" cy="875.2" r="6"/>
	<path class="st9" d="M385.2,326c1.4,1.4,3.6,1.4,5,0l4.1-4.1l4.1,4.1c1.4,1.4,3.6,1.4,5,0s1.4-3.6,0-5l-4.1-4.1l4.1-4.1
		c1.4-1.4,1.4-3.6,0-5s-3.6-1.4-5,0l-4.1,4.1l-4.1-4.1c-1.4-1.4-3.6-1.4-5,0s-1.4,3.6,0,5l4.1,4.1l-4.1,4.1
		C383.8,322.4,383.8,324.6,385.2,326z"/>
	<path class="st6" d="M2045.1,556.2c0.1,1.3,1.2,2.4,2.5,2.3l3.9-0.2l0.2,3.9c0.1,1.3,1.2,2.4,2.5,2.3s2.4-1.2,2.3-2.5l-0.2-3.9
		l3.9-0.2c1.3-0.1,2.4-1.2,2.3-2.5c-0.1-1.3-1.2-2.4-2.5-2.3l-3.9,0.2l-0.2-3.9c-0.1-1.3-1.2-2.4-2.5-2.3s-2.4,1.2-2.3,2.5l0.2,3.9
		l-3.9,0.2C2046.1,553.8,2045.1,554.9,2045.1,556.2z"/>
	<circle class="st6" cx="2940" cy="398" r="4.5"/>
</g>
<path class="st9" d="M1714.6,1508.2l-4.1-4.1l4.1-4.1c1.4-1.4,1.4-3.6,0-5s-3.6-1.4-5,0l-4.1,4.1l-4.1-4.1c-1.4-1.4-3.6-1.4-5,0
	s-1.4,3.6,0,5l4.1,4.1l-4.1,4.1c-1.4,1.4-1.4,3.6,0,5c1.4,1.4,3.6,1.4,5,0l4.1-4.1l4.1,4.1c1.4,1.4,3.6,1.4,5,0
	C1716,1511.8,1716,1509.6,1714.6,1508.2z"/>
<path class="st9" d="M2909.3,1376.4l-4.1-4.1l4.1-4.1c1.4-1.4,1.4-3.6,0-5s-3.6-1.4-5,0l-4.1,4.1l-4.1-4.1c-1.4-1.4-3.6-1.4-5,0
	s-1.4,3.6,0,5l4.1,4.1l-4.1,4.1c-1.4,1.4-1.4,3.6,0,5c1.4,1.4,3.6,1.4,5,0l4.1-4.1l4.1,4.1c1.4,1.4,3.6,1.4,5,0
	C2910.7,1380,2910.7,1377.8,2909.3,1376.4z"/>
<path class="st9" d="M647.8,1424.2l-4.1-4.1l4.1-4.1c1.4-1.4,1.4-3.6,0-5c-1.4-1.4-3.6-1.4-5,0l-4.1,4.1l-4.1-4.1
	c-1.4-1.4-3.6-1.4-5,0c-1.4,1.4-1.4,3.6,0,5l4.1,4.1l-4.1,4.1c-1.4,1.4-1.4,3.6,0,5s3.6,1.4,5,0l4.1-4.1l4.1,4.1
	c1.4,1.4,3.6,1.4,5,0S649.2,1425.6,647.8,1424.2z"/>
<circle class="st6" cx="293.4" cy="2814.9" r="6.8"/>
<circle class="st6" cx="1870.3" cy="2856.1" r="6.8"/>
<circle class="st6" cx="1936.3" cy="1806.3" r="6.8"/>
<circle class="st6" cx="1499.2" cy="253.5" r="6.8"/>
</svg>
