<?xml version="1.0" encoding="utf-8"?>
<!-- Generator: Adobe Illustrator 22.1.0, SVG Export Plug-In . SVG Version: 6.00 Build 0)  -->
<svg version="1.1" xmlns="http://www.w3.org/2000/svg" xmlns:xlink="http://www.w3.org/1999/xlink" x="0px" y="0px"
	 viewBox="0 0 3279.1 1485.3" style="enable-background:new 0 0 3279.1 1485.3;" xml:space="preserve">
<style type="text/css">
	.st0{fill:#5C5CFF;}
	.st1{fill:#F5F7FA;}
	.st2{fill:#8AD5FF;}
	.st3{fill:#FFCD02;}
	.st4{fill:#2CB4FF;}
	.st5{display:none;}
	.st6{display:inline;fill:#F5F7FA;}
	.st7{display:inline;fill:#FFCD02;}
	.st8{display:inline;fill:#5C5CFF;}
	.st9{display:inline;fill:#8AD5FF;}
	.st10{display:inline;fill:#2CB4FF;}
</style>
<g id="Layer_1">
	<circle class="st0" cx="657.1" cy="223.7" r="4.5"/>
	<circle class="st1" cx="531.6" cy="641.2" r="4.5"/>
	<circle class="st1" cx="2340" cy="354.5" r="4.5"/>
	<circle class="st1" cx="2854.1" cy="815.7" r="4.5"/>
	<circle class="st1" cx="2782.6" cy="265.2" r="4.5"/>
	<path class="st2" d="M1819.1,270.4l-2.3-2.3l2.3-2.3c0.8-0.8,0.8-2,0-2.8c-0.8-0.8-2-0.8-2.8,0l-2.3,2.3l-2.3-2.3
		c-0.8-0.8-2-0.8-2.8,0c-0.8,0.8-0.8,2,0,2.8l2.3,2.3l-2.3,2.3c-0.8,0.8-0.8,2,0,2.8c0.8,0.8,2,0.8,2.8,0l2.3-2.3l2.3,2.3
		c0.8,0.8,2,0.8,2.8,0C1819.9,272.4,1819.9,271.2,1819.1,270.4z"/>
	<path class="st0" d="M263.8,720.8l-2.4-2.4l2.4-2.4c0.8-0.8,0.8-2.1,0-2.9s-2.1-0.8-2.9,0l-2.4,2.4l-2.4-2.4
		c-0.8-0.8-2.1-0.8-2.9,0c-0.8,0.8-0.8,2.1,0,2.9l2.4,2.4l-2.4,2.4c-0.8,0.8-0.8,2.1,0,2.9c0.8,0.8,2.1,0.8,2.9,0l2.4-2.4l2.4,2.4
		c0.8,0.8,2.1,0.8,2.9,0C264.6,723,264.6,721.6,263.8,720.8z"/>
	<circle class="st2" cx="588.1" cy="1113.7" r="4.5"/>
	<circle class="st2" cx="561.1" cy="381.7" r="4.5"/>
	<circle class="st3" cx="1271.6" cy="1094.2" r="4.5"/>
	<circle class="st2" cx="3151.1" cy="423.2" r="6"/>
	<circle class="st3" cx="3008.1" cy="226.2" r="6"/>
	<circle class="st0" cx="2646.1" cy="354.4" r="6.8"/>
	<circle class="st4" cx="2111.6" cy="387.2" r="4.5"/>
	<path class="st1" d="M1412.3,126.5l-3.2,0v-3.2c0-1.1-0.9-2-2-2c-1.1,0-2,0.9-2,2l0,3.2l-3.2,0c-1.1,0-2,0.9-2,2c0,1.1,0.9,2,2,2
		l3.2,0l0,3.2c0,1.1,0.9,2,2,2s2-0.9,2-2v-3.2l3.2,0c1.1,0,2-0.9,2-2C1414.2,127.4,1413.4,126.5,1412.3,126.5z"/>
	<circle class="st4" cx="1482.6" cy="309.2" r="4.5"/>
	<circle class="st0" cx="1017.1" cy="343.7" r="4.5"/>
	<path class="st2" d="M834.8,847.6l2.4-2.4l2.4,2.4c0.8,0.8,2.1,0.8,2.9,0c0.8-0.8,0.8-2.1,0-2.9l-2.4-2.4l2.4-2.4
		c0.8-0.8,0.8-2.1,0-2.9s-2.1-0.8-2.9,0l-2.4,2.4l-2.4-2.4c-0.8-0.8-2.1-0.8-2.9,0c-0.8,0.8-0.8,2.1,0,2.9l2.4,2.4l-2.4,2.4
		c-0.8,0.8-0.8,2.1,0,2.9C832.6,848.4,834,848.4,834.8,847.6z"/>
	<circle class="st3" cx="827.6" cy="1037.2" r="4.5"/>
	<circle class="st4" cx="190.1" cy="1336.7" r="4.5"/>
	<circle class="st4" cx="1662.6" cy="1295.2" r="6.8"/>
	<circle class="st4" cx="1681.4" cy="975.2" r="6.8"/>
	<path class="st3" d="M1252,786.5v-3.4l3.4,0c1.1,0,2.1-0.9,2.1-2.1c0-1.1-0.9-2.1-2.1-2.1h-3.4v-3.4c0-1.1-0.9-2.1-2.1-2.1
		c-1.1,0-2.1,0.9-2.1,2.1v3.4h-3.4c-1.1,0-2.1,0.9-2.1,2.1c0,1.1,0.9,2.1,2.1,2.1l3.4,0v3.4c0,1.1,0.9,2.1,2.1,2.1
		C1251,788.5,1252,787.6,1252,786.5z"/>
	<circle class="st2" cx="2779.1" cy="1312.7" r="4.5"/>
	<circle class="st0" cx="1942.6" cy="1269.2" r="4.5"/>
	<path class="st0" d="M1849.4,1403.7l-3-3l3-3c1-1,1-2.7,0-3.7c-1-1-2.7-1-3.7,0l-3,3l-3-3c-1-1-2.7-1-3.7,0c-1,1-1,2.7,0,3.7l3,3
		l-3,3c-1,1-1,2.7,0,3.7c1,1,2.7,1,3.7,0l3-3l3,3c1,1,2.7,1,3.7,0C1850.4,1406.4,1850.4,1404.7,1849.4,1403.7z"/>
	<path class="st0" d="M2322.4,1134.3l-2.6-2.6l2.6-2.6c0.9-0.9,0.9-2.3,0-3.2s-2.3-0.9-3.2,0l-2.6,2.6l-2.6-2.6
		c-0.9-0.9-2.3-0.9-3.2,0c-0.9,0.9-0.9,2.3,0,3.2l2.6,2.6l-2.6,2.6c-0.9,0.9-0.9,2.3,0,3.2s2.3,0.9,3.2,0l2.6-2.6l2.6,2.6
		c0.9,0.9,2.3,0.9,3.2,0C2323.3,1136.6,2323.3,1135.1,2322.4,1134.3z"/>
	<circle class="st2" cx="2535.1" cy="1265.1" r="6"/>
	<circle class="st0" cx="2739.1" cy="608.8" r="6.8"/>
	<path class="st0" d="M1553.2,831.3l-2.3-2.5l2.5-2.3c0.8-0.8,0.9-2.1,0.1-2.9c-0.8-0.8-2.1-0.9-2.9-0.1l-2.5,2.3l-2.3-2.5
		c-0.8-0.8-2.1-0.9-2.9-0.1c-0.8,0.8-0.9,2.1-0.1,2.9l2.3,2.5l-2.5,2.3c-0.8,0.8-0.9,2.1-0.1,2.9c0.8,0.8,2.1,0.9,2.9,0.1l2.5-2.3
		l2.3,2.5c0.8,0.8,2.1,0.9,2.9,0.1C1553.8,833.5,1553.9,832.2,1553.2,831.3z"/>
	<circle class="st4" cx="1970.2" cy="592.1" r="4.5"/>
	<circle class="st0" cx="1886.3" cy="391" r="6"/>
	<circle class="st0" cx="2347.5" cy="803" r="4.5"/>
	<circle class="st4" cx="3160.6" cy="977" r="4.5"/>
	<path class="st1" d="M484.6,1322.7l0-3.4l3.4,0c1.1,0,2.1-0.9,2.1-2.1c0-1.1-0.9-2.1-2.1-2.1h-3.4l0-3.4c0-1.1-0.9-2.1-2.1-2.1
		c-1.1,0-2.1,0.9-2.1,2.1l0,3.4h-3.4c-1.1,0-2.1,0.9-2.1,2.1c0,1.1,0.9,2.1,2.1,2.1l3.4,0l0,3.4c0,1.1,0.9,2.1,2.1,2.1
		C483.7,1324.7,484.6,1323.8,484.6,1322.7z"/>
	<circle class="st1" cx="2001" cy="144.4" r="4.5"/>
	<circle class="st1" cx="1683" cy="360.5" r="4.5"/>
	<circle class="st1" cx="2181" cy="696.5" r="4.5"/>
</g>
<g id="Layer_4" class="st5">
	<path class="st6" d="M1079.9,194.8l-1.7-1.7l1.7-1.7c0.6-0.6,0.6-1.5,0-2.1s-1.5-0.6-2.1,0l-1.7,1.7l-1.7-1.7
		c-0.6-0.6-1.5-0.6-2.1,0s-0.6,1.5,0,2.1l1.7,1.7l-1.7,1.7c-0.6,0.6-0.6,1.5,0,2.1s1.5,0.6,2.1,0l1.7-1.7l1.7,1.7
		c0.6,0.6,1.5,0.6,2.1,0S1080.5,195.4,1079.9,194.8z"/>
	<path class="st7" d="M2775.1,1023.2l-3.7-3.7l3.7-3.7c1.2-1.2,1.2-3.3,0-4.5c-1.2-1.2-3.3-1.2-4.5,0l-3.7,3.7l-3.7-3.7
		c-1.2-1.2-3.3-1.2-4.5,0c-1.2,1.2-1.2,3.3,0,4.5l3.7,3.7l-3.7,3.7c-1.2,1.2-1.2,3.3,0,4.5c1.2,1.2,3.3,1.2,4.5,0l3.7-3.7l3.7,3.7
		c1.2,1.2,3.3,1.2,4.5,0C2776.3,1026.5,2776.3,1024.4,2775.1,1023.2z"/>
	<path class="st7" d="M321.4,233.6l-2.1-2.1l2.1-2.1c0.7-0.7,0.7-1.9,0-2.6c-0.7-0.7-1.9-0.7-2.6,0l-2.1,2.1l-2.1-2.1
		c-0.7-0.7-1.9-0.7-2.6,0s-0.7,1.9,0,2.6l2.1,2.1l-2.1,2.1c-0.7,0.7-0.7,1.9,0,2.6c0.7,0.7,1.9,0.7,2.6,0l2.1-2.1l2.1,2.1
		c0.7,0.7,1.9,0.7,2.6,0C322.1,235.5,322.1,234.4,321.4,233.6z"/>
	<circle class="st7" cx="3159.1" cy="685.2" r="6"/>
	<circle class="st8" cx="2180.6" cy="291.2" r="4.5"/>
	<circle class="st7" cx="165.1" cy="957.3" r="6.9"/>
	<circle class="st9" cx="1087.1" cy="1323.3" r="6.9"/>
	<circle class="st8" cx="800.6" cy="1329.2" r="4.5"/>
	<circle class="st10" cx="1093.6" cy="980.2" r="4.5"/>
	<path class="st7" d="M2247.2,1296v-3.4h3.4c1.1,0,2.1-0.9,2.1-2.1s-0.9-2.1-2.1-2.1h-3.4v-3.4c0-1.1-0.9-2.1-2.1-2.1
		c-1.1,0-2.1,0.9-2.1,2.1v3.4h-3.4c-1.1,0-2.1,0.9-2.1,2.1s0.9,2.1,2.1,2.1h3.4v3.4c0,1.1,0.9,2.1,2.1,2.1
		C2246.3,1298.1,2247.2,1297.1,2247.2,1296z"/>
	<path class="st8" d="M3152.1,1439.2l-4.1-4.1l4.1-4.1c1.4-1.4,1.4-3.6,0-5c-1.4-1.4-3.6-1.4-5,0l-4.1,4.1l-4.1-4.1
		c-1.4-1.4-3.6-1.4-5,0c-1.4,1.4-1.4,3.6,0,5l4.1,4.1l-4.1,4.1c-1.4,1.4-1.4,3.6,0,5c1.4,1.4,3.6,1.4,5,0l4.1-4.1l4.1,4.1
		c1.4,1.4,3.6,1.4,5,0C3153.5,1442.8,3153.5,1440.6,3152.1,1439.2z"/>
	<path class="st6" d="M332.2,1045.1l-3.5-3.5l3.5-3.5c1.2-1.2,1.2-3.1,0-4.3c-1.2-1.2-3.1-1.2-4.3,0l-3.5,3.5l-3.5-3.5
		c-1.2-1.2-3.1-1.2-4.3,0c-1.2,1.2-1.2,3.1,0,4.3l3.5,3.5l-3.5,3.5c-1.2,1.2-1.2,3.1,0,4.3c1.2,1.2,3.1,1.2,4.3,0l3.5-3.5l3.5,3.5
		c1.2,1.2,3.1,1.2,4.3,0C333.3,1048.2,333.3,1046.2,332.2,1045.1z"/>
	<path class="st10" d="M206.8,473l-4.1-4.1l4.1-4.1c1.4-1.4,1.4-3.6,0-5c-1.4-1.4-3.6-1.4-5,0l-4.1,4.1l-4.1-4.1
		c-1.4-1.4-3.6-1.4-5,0c-1.4,1.4-1.4,3.6,0,5l4.1,4.1l-4.1,4.1c-1.4,1.4-1.4,3.6,0,5c1.4,1.4,3.6,1.4,5,0l4.1-4.1l4.1,4.1
		c1.4,1.4,3.6,1.4,5,0C208.2,476.6,208.2,474.3,206.8,473z"/>
	<path class="st10" d="M929.9,1190l-4.1-4.1l4.1-4.1c1.4-1.4,1.4-3.6,0-5s-3.6-1.4-5,0l-4.1,4.1l-4.1-4.1c-1.4-1.4-3.6-1.4-5,0
		c-1.4,1.4-1.4,3.6,0,5l4.1,4.1l-4.1,4.1c-1.4,1.4-1.4,3.6,0,5c1.4,1.4,3.6,1.4,5,0l4.1-4.1l4.1,4.1c1.4,1.4,3.6,1.4,5,0
		C931.3,1193.6,931.3,1191.4,929.9,1190z"/>
	<circle class="st6" cx="2016" cy="1064.1" r="6"/>
	<circle class="st6" cx="806.9" cy="611.8" r="6.8"/>
	<circle class="st7" cx="1271.9" cy="431.8" r="6.8"/>
	<circle class="st7" cx="2376.8" cy="509" r="6.8"/>
	<circle class="st7" cx="1780.8" cy="799.9" r="6.8"/>
	<circle class="st10" cx="1579.1" cy="550.7" r="6.8"/>
	<path class="st8" d="M1994.1,757l-5.7-0.3l0.3-5.7c0.1-1.9-1.4-3.6-3.3-3.7c-1.9-0.1-3.6,1.4-3.7,3.3l-0.3,5.7l-5.7-0.3
		c-1.9-0.1-3.6,1.4-3.7,3.3c-0.1,1.9,1.4,3.6,3.3,3.7l5.7,0.3l-0.3,5.7c-0.1,1.9,1.4,3.6,3.3,3.7c1.9,0.1,3.6-1.4,3.7-3.3l0.3-5.7
		l5.7,0.3c1.9,0.1,3.6-1.4,3.7-3.3C1997.5,758.8,1996,757.1,1994.1,757z"/>
	<circle class="st6" cx="3028.1" cy="1217.2" r="6"/>
	<path class="st6" d="M2376.5,217.1l-2.5-2.5l2.5-2.5c0.8-0.8,0.8-2.2,0-3.1c-0.8-0.8-2.2-0.8-3.1,0l-2.5,2.5l-2.5-2.5
		c-0.8-0.8-2.2-0.8-3.1,0s-0.8,2.2,0,3.1l2.5,2.5l-2.5,2.5c-0.8,0.8-0.8,2.2,0,3.1c0.8,0.8,2.2,0.8,3.1,0l2.5-2.5l2.5,2.5
		c0.8,0.8,2.2,0.8,3.1,0C2377.3,219.3,2377.3,217.9,2376.5,217.1z"/>
	<circle class="st8" cx="628.2" cy="816.2" r="6.9"/>
	<path class="st6" d="M1473.2,1165.1v-3.4l3.4,0c1.1,0,2.1-0.9,2.1-2.1s-0.9-2.1-2.1-2.1h-3.4v-3.4c0-1.1-0.9-2.1-2.1-2.1
		c-1.1,0-2.1,0.9-2.1,2.1v3.4h-3.4c-1.1,0-2.1,0.9-2.1,2.1c0,1.1,0.9,2.1,2.1,2.1l3.4,0v3.4c0,1.1,0.9,2.1,2.1,2.1
		S1473.2,1166.3,1473.2,1165.1z"/>
	<circle class="st9" cx="2518.1" cy="944.2" r="6"/>
	<path class="st9" d="M2916.1,390l-4.1-4.1l4.1-4.1c1.4-1.4,1.4-3.6,0-5c-1.4-1.4-3.6-1.4-5,0l-4.1,4.1l-4.1-4.1
		c-1.4-1.4-3.6-1.4-5,0c-1.4,1.4-1.4,3.6,0,5l4.1,4.1l-4.1,4.1c-1.4,1.4-1.4,3.6,0,5c1.4,1.4,3.6,1.4,5,0l4.1-4.1l4.1,4.1
		c1.4,1.4,3.6,1.4,5,0C2917.5,393.6,2917.5,391.4,2916.1,390z"/>
	<path class="st6" d="M1253.9,622.7l-3.9-0.2l0.2-3.9c0.1-1.3-1-2.4-2.3-2.5c-1.3-0.1-2.4,1-2.5,2.3l-0.2,3.9l-3.9-0.2
		c-1.3-0.1-2.4,1-2.5,2.3c-0.1,1.3,1,2.4,2.3,2.5l3.9,0.2l-0.2,3.9c-0.1,1.3,1,2.4,2.3,2.5c1.3,0.1,2.4-1,2.5-2.3l0.2-3.9l3.9,0.2
		c1.3,0.1,2.4-1,2.5-2.3C1256.2,623.9,1255.2,622.8,1253.9,622.7z"/>
	<circle class="st6" cx="361.3" cy="467" r="4.5"/>
</g>
</svg>
