<?xml version="1.0" encoding="utf-8"?>
<!-- Generator: Adobe Illustrator 22.1.0, SVG Export Plug-In . SVG Version: 6.00 Build 0)  -->
<svg version="1.1" id="Layer_1" xmlns="http://www.w3.org/2000/svg" xmlns:xlink="http://www.w3.org/1999/xlink" x="0px" y="0px"
	 viewBox="0 0 2880 2000" enable-background="new 0 0 2880 2000" xml:space="preserve">
<path fill="#5C5CFF" d="M2167.7,803.7l-4.8-4.8l4.8-4.8c1.6-1.6,1.6-4.3,0-6c-1.6-1.6-4.3-1.6-6,0l-4.9,4.8l-4.8-4.9
	c-1.6-1.6-4.3-1.6-6,0s-1.6,4.3,0,6l4.8,4.9l-4.8,4.8c-1.6,1.6-1.6,4.3,0,6c1.6,1.6,4.3,1.6,6,0l4.9-4.8l4.8,4.8
	c1.6,1.6,4.3,1.6,6,0C2169.3,808,2169.3,805.4,2167.7,803.7z"/>
<path fill="#8AD5FF" d="M267.9,539.7l-2.8-2.9l2.9-2.8c1-1,1-2.5,0-3.5c-1-1-2.5-1-3.5,0l-2.9,2.8l-2.8-2.9c-1-1-2.5-1-3.5,0
	c-1,1-1,2.5,0,3.5l2.8,2.9l-2.9,2.8c-1,1-1,2.5,0,3.5c1,1,2.5,1,3.5,0l2.9-2.8l2.8,2.9c1,1,2.5,1,3.5,0
	C268.8,542.3,268.8,540.7,267.9,539.7z"/>
<circle fill="#F5F7FA" cx="1455" cy="865.5" r="9"/>
<circle fill="#8AD5FF" cx="1870.5" cy="1080" r="7.5"/>
<circle fill="#5C5CFF" cx="502.5" cy="873" r="7.5"/>
<circle fill="#D7D7FF" cx="88.5" cy="408" r="7.5"/>
<circle fill="#5C5CFF" cx="2482.5" cy="381" r="7.5"/>
<circle fill="#D7D7FF" cx="2620.5" cy="987" r="4.5"/>
</svg>
