<?xml version="1.0" encoding="utf-8"?>
<!-- Generator: Adobe Illustrator 22.1.0, SVG Export Plug-In . SVG Version: 6.00 Build 0)  -->
<svg version="1.1" id="Layer_1" xmlns="http://www.w3.org/2000/svg" xmlns:xlink="http://www.w3.org/1999/xlink" x="0px" y="0px"
	 viewBox="0 0 15 6" enable-background="new 0 0 15 6" xml:space="preserve">
<g>
	<path fill="#5C5CFF" d="M12.2,0.3c-0.1-0.1-0.2-0.1-0.3,0s-0.1,0.2,0,0.3L14.3,3l-2.4,2.4c-0.1,0.1-0.1,0.2,0,0.3
		c0,0,0.1,0.1,0.1,0.1s0.1,0,0.1-0.1l2.5-2.5c0,0,0.1-0.1,0.1-0.1c0-0.1,0-0.1-0.1-0.1L12.2,0.3z"/>
	<path fill="#5C5CFF" d="M12,6c-0.1,0-0.2,0-0.3-0.1c-0.2-0.2-0.2-0.5,0-0.7L13.9,3l-2.2-2.2c-0.2-0.2-0.2-0.5,0-0.7
		c0.2-0.2,0.5-0.2,0.7,0l2.5,2.5C15,2.8,15,2.9,15,3c0,0.1-0.1,0.2-0.1,0.3l-2.5,2.5C12.3,6,12.1,6,12,6z"/>
</g>
<g>
	<path fill="#5C5CFF" d="M0.5,3.3h13.7c0.1,0,0.3-0.1,0.3-0.3V3c0-0.1-0.1-0.3-0.3-0.3H0.5C0.3,2.7,0.2,2.8,0.2,3V3
		C0.2,3.2,0.3,3.3,0.5,3.3z"/>
	<path fill="#5C5CFF" d="M14.2,3.5H0.5C0.2,3.5,0,3.3,0,3V3c0-0.3,0.2-0.5,0.5-0.5h13.7c0.3,0,0.5,0.2,0.5,0.5V3
		C14.6,3.3,14.4,3.5,14.2,3.5z M0.5,2.9C0.4,2.9,0.4,2.9,0.5,2.9L0.4,3c0,0,0,0.1,0.1,0.1h13.7c0,0,0.1,0,0.1-0.1V3
		c0,0,0-0.1-0.1-0.1H0.5z"/>
</g>
</svg>
