<svg version="1.1" xmlns="http://www.w3.org/2000/svg" xmlns:xlink="http://www.w3.org/1999/xlink" x="0px" y="0px" viewBox="0 0 2171 2171" style="enable-background:new 0 0 2171 2171;" xml:space="preserve">
    <style>
        .st0{fill:url(#SVGID_1_);}
        .st1{fill:#FFFFFF;}
        .st2{fill:url(#SVGID_2_);}
        .st3{fill:url(#SVGID_3_);}
        .st4{fill:url(#SVGID_4_);}
        .st5{fill:url(#SVGID_5_);}
        .st6{fill:url(#SVGID_6_);}
        .st7{fill:url(#SVGID_7_);}
        .st8{fill:url(#SVGID_8_);}
        .st9{fill:#DCE4F4;}
        .st10{fill:#242A35;}

        .flywheel-section {
            cursor: pointer;
            transition: opacity 300ms ease;
        }

        .flywheel-section.inactive:hover {
            opacity: 0;     
        }

        .flywheel-section.active {
            opacity: 0;     
        }
        
    </style>
    <g class="flywheel-section" id="Champions-color">
        <g>
            <linearGradient id="SVGID_1_" gradientUnits="userSpaceOnUse" x1="397.9622" y1="472.7747" x2="397.9622" y2="1765.6715">
                <stop  offset="0" style="stop-color:#FF8389"/>
                <stop  offset="1" style="stop-color:#FF5290"/>
            </linearGradient>
            <path class="st0" d="M550.2,492.9l-176.3-20.1c-65.8,76.7-118.3,162.8-156.4,256.7c-45.6,112.4-68.7,231.1-68.7,352.8
                s23.1,240.4,68.7,352.8c47.2,116.4,116.5,220.8,206,310.3c6.9,6.9,13.8,13.6,20.9,20.2l20.6-180.5l182.1-22.3
                c-7.1-6.5-14.1-13.2-21-20c-62.2-62.2-110.3-134.7-143.1-215.4c-31.6-78-47.7-160.5-47.7-245.1c0-84.6,16-167.1,47.7-245.1
                c22.8-56.1,53-108.3,90.2-155.8L550.2,492.9z"/>
        </g>
        <g>
            <path class="st1" d="M334.6,1256.9c-1,3.2-2.8,5.9-5.3,8c-2.6,2.2-5.8,3.7-9.7,4.5c-3.8,0.9-7.4,0.8-10.6,0
                c-3.2-0.9-6-2.6-8.2-5c-2.2-2.5-3.8-5.6-4.6-9.5c-0.6-2.5-0.7-5-0.5-7.4c0.3-2.4,0.9-4.5,2-6.3l6.5,1.3c-0.9,2-1.5,3.8-1.7,5.6
                c-0.2,1.7-0.1,3.5,0.2,5.3c0.8,3.4,2.4,5.7,5,7.1s5.9,1.5,10,0.6c4.2-0.9,7.1-2.5,8.9-4.8s2.3-5.1,1.5-8.5
                c-0.4-1.8-1.1-3.4-2-4.9c-0.9-1.5-2.2-2.9-3.9-4.3l5.4-3.9c1.7,1.1,3.2,2.8,4.4,4.9c1.3,2.1,2.2,4.4,2.7,6.9
                C335.6,1250.2,335.6,1253.7,334.6,1256.9z"/>
            <path class="st1" d="M286.8,1201.2l-1.3-8.2l38.1-6.1l1.3,8.2l-16,2.5l2.8,17.7l16-2.5l1.3,8.2l-38.1,6.1l-1.3-8.2l15.4-2.4
                l-2.8-17.7L286.8,1201.2z"/>
            <path class="st1" d="M319.1,1143l-8.2,4.5l1.7,18l8.9,2.9l0.8,8.5l-40.1-14l-0.6-6.8l36.8-21.3L319.1,1143z M305.9,1163.3
                l-1.2-12.4l-13.8,7.6L305.9,1163.3z"/>
            <path class="st1" d="M278.2,1094l-0.2-6.7l38.6-1.1l0.2,7.5l-21.1,0.6l21.3,8.3l0.2,5.5l-20.6,9.5l20.8-0.6l0.2,7.4l-38.6,1.1
                l-0.2-6.7l28.1-13.3L278.2,1094z"/>
            <path class="st1" d="M278.2,1070.1l0.6-17.5c0.1-4.3,1.3-7.5,3.4-9.8c2.1-2.3,5-3.4,8.5-3.3c3.5,0.1,6.3,1.4,8.3,3.9
                c2,2.5,2.9,5.8,2.8,10l-0.3,9.1l15.6,0.5l-0.3,8.5L278.2,1070.1z M295.3,1054.3c0.2-4.4-1.4-6.7-4.8-6.8c-3.4-0.1-5.1,2-5.3,6.4
                l-0.3,8l10,0.3L295.3,1054.3z"/>
            <path class="st1" d="M318.9,1027.6l-38.5-3l0.7-8.4l38.5,3L318.9,1027.6z"/>
            <path class="st1" d="M319.8,996.3c-2,2.6-4.5,4.5-7.7,5.6c-3.2,1.1-6.7,1.5-10.7,1c-4-0.5-7.3-1.7-10.1-3.6
                c-2.7-1.9-4.7-4.4-6-7.4c-1.2-3-1.6-6.4-1.1-10.2c0.5-3.8,1.7-7,3.6-9.6c2-2.6,4.5-4.5,7.6-5.6c3.1-1.1,6.7-1.5,10.7-1
                c4,0.5,7.4,1.7,10.2,3.6c2.8,1.9,4.8,4.3,6,7.3c1.2,3,1.6,6.4,1.1,10.2S321.8,993.7,319.8,996.3z M314.5,977.9
                c-2-2.1-5.2-3.4-9.4-3.9c-4.2-0.5-7.6,0-10,1.5c-2.5,1.5-3.9,3.9-4.3,7.1c-0.4,3.2,0.4,5.9,2.4,8c2,2.1,5.1,3.4,9.3,3.9
                c4.3,0.5,7.6,0,10.1-1.5c2.5-1.5,3.9-3.9,4.3-7.1S316.5,980,314.5,977.9z"/>
            <path class="st1" d="M294.3,922.4l1.5-7.8l37.9,7.2l-1.2,6.2l-27.8,14.3l24.2,4.6l-1.5,7.8l-37.9-7.2l1.2-6.1l27.7-14.3
                L294.3,922.4z"/>
            <path class="st1" d="M337.6,902.3c-1.4,2.4-3,4.3-4.8,5.7l-5.2-4.1c3.4-3,5.7-6.7,6.8-11.1c0.6-2.4,0.7-4.3,0.2-5.8
                c-0.4-1.5-1.3-2.4-2.7-2.7c-1.2-0.3-2.3,0.1-3.3,1.1c-1,1-2.2,2.9-3.5,5.7c-1.5,3.1-3,5.5-4.4,7.3c-1.5,1.7-3,2.8-4.6,3.4
                c-1.6,0.5-3.4,0.6-5.5,0c-2.2-0.6-4.1-1.7-5.6-3.4c-1.5-1.7-2.4-3.8-2.9-6.3c-0.4-2.5-0.3-5.2,0.5-8.2c0.7-2.7,1.7-5.1,3.1-7.4
                c1.4-2.3,2.9-4,4.6-5.1l5.2,4.1c-3.4,2.7-5.5,6-6.5,9.9c-0.5,2.1-0.5,3.9,0,5.4c0.5,1.5,1.5,2.4,2.9,2.8
                c0.8,0.2,1.6,0.2,2.3-0.2c0.7-0.3,1.4-1,2.1-2c0.7-1,1.6-2.5,2.5-4.5c2.3-4.5,4.5-7.7,6.7-9.4c2.2-1.7,4.8-2.2,7.7-1.5
                c3.5,0.9,5.9,2.9,7.3,6.2s1.4,7.3,0.2,12.2C340.1,897.2,339,899.8,337.6,902.3z"/>
        </g>
        <path class="st1" d="M307.9,1312c-2.2,4.5-2.5,9.5-0.7,14.3c1.3,3.5,3.7,6.4,7,8.4c1.3,0.8,2.7,1.5,4.3,2
            c-0.8,1.4-1.4,2.8-1.9,4.3c-1.1,3.7-1,7.4,0.3,10.9c1.8,4.7,5.3,8.4,10,10.2c4.6,1.8,9.8,1.8,14.8-0.1c5.1-1.9,9.1-5.6,12.4-11.5
            c2.9-5.2,5.4-11.9,8.1-19.6c0.9-2.5,2-5.5,3.2-8.7c0.4-1,0.4-2.2,0-3.2c-0.4-1-1.2-1.9-2.1-2.4c-3-1.6-5.9-3.2-8.2-4.5
            c-7.2-4-13.4-7.4-19.1-9.4c-6.4-2.2-11.8-2.3-16.9-0.4C314,1304.1,310.1,1307.6,307.9,1312z M334.1,1307.9
            c5.2,1.8,11.2,5.1,18.2,9c2.1,1.2,4.7,2.6,7.5,4.1c-1.1,2.9-2,5.6-2.9,8c-2.7,7.5-5,14-7.7,18.8c-2.7,4.8-5.7,7.6-9.6,9.1
            c-3.7,1.4-7.5,1.4-10.8,0.1c-3.2-1.3-5.6-3.8-6.8-7.1c-0.9-2.4-1-4.8-0.2-7.3c0.7-2.3,2-4.1,2.9-5.3c0.7-0.9,0.9-2.1,0.5-3.2
            c-0.4-1.1-1.3-1.8-2.5-2c-1.5-0.3-3.7-0.8-5.7-2.1c-2.2-1.4-3.8-3.3-4.7-5.6c-1.2-3.3-1.1-6.7,0.5-9.8c1.6-3.1,4.5-5.6,8.2-7
            C324.9,1306,328.9,1306.1,334.1,1307.9z"/>
    </g>
    <g class="flywheel-section" id="Regulars-color">
        <linearGradient id="SVGID_2_" gradientUnits="userSpaceOnUse" x1="476.7455" y1="1770.9717" x2="1771.4224" y2="1770.9717">
            <stop  offset="0" style="stop-color:#8960FF"/>
            <stop  offset="0.9816" style="stop-color:#5C5CFF"/>
        </linearGradient>
        <path class="st2" d="M1567.2,1521.8c-6.5,7.1-13.2,14.1-20.1,21c-62.2,62.2-134.7,110.3-215.4,143.1
            c-78,31.6-160.5,47.7-245.1,47.7c-84.6,0-167.1-16-245.1-47.7c-56.9-23.1-109.7-53.8-157.7-91.8L497,1617l-20.3,177.8
            c76.8,66,163,118.5,257.1,156.7c112.4,45.6,231.1,68.7,352.8,68.7c121.7,0,240.4-23.1,352.8-68.7
            c116.4-47.2,220.8-116.5,310.3-206c7.4-7.4,14.6-14.8,21.7-22.4l-182.1-20.8L1567.2,1521.8z"/>
        <g>
            <path class="st1" d="M962.4,1883.9l-8.8-1.6l-2.6-13.5c-0.2-1.1-0.7-1.9-1.4-2.4c-0.7-0.5-1.7-0.9-2.9-1.1l-5.4-1l-2.8,15.3
                l-8.2-1.5l6.8-38l16.9,3c4.4,0.8,7.6,2.4,9.5,4.7c1.9,2.3,2.6,5.3,1.9,8.9c-0.5,2.5-1.5,4.6-3.2,6.2c-1.7,1.6-3.8,2.5-6.4,2.9
                c2.2,0.9,3.5,2.7,4,5.5L962.4,1883.9z M949.9,1859.3c2.4,0.4,4.2,0.3,5.4-0.3c1.2-0.6,2-1.8,2.3-3.5c0.3-1.7,0-3.1-1-4.1
                c-1-1-2.6-1.7-5-2.1l-7.6-1.4l-1.8,9.9L949.9,1859.3z"/>
            <path class="st1" d="M977.3,1886.1l4.7-38.3l26.4,3.3l-0.8,6.5l-18.3-2.2l-1.1,9l17.1,2.1l-0.8,6.6l-17.1-2.1l-1.2,9.7l18.3,2.2
                l-0.8,6.5L977.3,1886.1z"/>
            <path class="st1" d="M1053.2,1871.7l-1.2,18.9c-1.9,0.8-4.2,1.3-6.7,1.7c-2.5,0.3-5.1,0.4-7.8,0.2c-4.1-0.3-7.6-1.3-10.5-3.1
                c-2.9-1.8-5-4.2-6.5-7.3c-1.4-3.1-2-6.7-1.7-10.8c0.3-4,1.3-7.4,3.1-10.3c1.8-2.9,4.2-5,7.3-6.4c3-1.4,6.5-2,10.5-1.7
                c2.8,0.2,5.3,0.7,7.7,1.6c2.3,0.9,4.3,2.1,5.7,3.6l-3.1,5.9c-1.7-1.4-3.4-2.5-5.1-3.2c-1.7-0.7-3.5-1.1-5.5-1.2
                c-7.4-0.5-11.4,3.6-12,12.3c-0.6,8.8,3,13.5,10.8,14c2.1,0.1,4.3,0,6.4-0.4l0.6-8.5l-7.6-0.5l0.4-5.9L1053.2,1871.7z"/>
            <path class="st1" d="M1072.4,1889.9c-2.8-2.8-4.2-6.9-4.2-12.3l0.1-22.7l8.3,0l-0.1,23.1c0,3.1,0.7,5.4,2.1,7
                c1.4,1.6,3.5,2.4,6.1,2.4c2.7,0,4.7-0.8,6.1-2.4c1.4-1.6,2.1-3.9,2.1-7l0.1-23.1l8.4,0l-0.1,22.7c0,5.4-1.5,9.4-4.3,12.2
                s-7,4.2-12.4,4.1C1079.4,1894.1,1075.2,1892.7,1072.4,1889.9z"/>
            <path class="st1" d="M1118.1,1893.2l-2-38.6l8.5-0.4l1.6,31.7l17.2-0.9l0.3,6.9L1118.1,1893.2z"/>
            <path class="st1" d="M1187.4,1887.7l-4.6-8.1l-18,1.9l-2.8,8.9l-8.5,0.9l13.6-40.3l6.8-0.7l21.7,36.5L1187.4,1887.7z
                 M1167,1874.8l12.4-1.3l-7.7-13.7L1167,1874.8z"/>
            <path class="st1" d="M1240.3,1879.5l-8.8,1.5l-7-11.9c-0.6-0.9-1.3-1.5-2.1-1.8c-0.9-0.3-1.9-0.3-3.1-0.1l-5.4,0.9l2.6,15.4
                l-8.2,1.4l-6.4-38.1l17-2.8c4.4-0.7,7.9-0.3,10.5,1.2s4.2,4.1,4.8,7.7c0.4,2.5,0.1,4.8-0.9,6.9c-1,2-2.7,3.7-5.1,4.9
                c2.3,0.1,4.2,1.4,5.6,3.8L1240.3,1879.5z M1220.2,1860.6c2.4-0.4,4.1-1.1,5-2.1c1-1,1.3-2.3,1-4.1s-1.1-2.9-2.3-3.5
                c-1.2-0.6-3.1-0.7-5.4-0.3l-7.6,1.3l1.7,10L1220.2,1860.6z"/>
            <path class="st1" d="M1259.6,1874.8c-2.8-0.2-5.2-0.7-7.3-1.7l1.3-6.5c4.2,1.7,8.6,2.1,13,1.1c2.4-0.5,4.2-1.3,5.3-2.4
                c1.1-1,1.5-2.3,1.2-3.6c-0.3-1.2-1.1-2-2.4-2.4c-1.3-0.4-3.6-0.6-6.7-0.6c-3.5,0.1-6.3-0.1-8.5-0.7c-2.2-0.5-3.9-1.4-5.1-2.6
                c-1.2-1.2-2.1-2.8-2.5-4.9c-0.5-2.3-0.3-4.4,0.5-6.5c0.8-2.1,2.3-3.9,4.3-5.4s4.5-2.6,7.5-3.3c2.7-0.6,5.3-0.8,8-0.6
                c2.6,0.2,4.9,0.8,6.6,1.8l-1.3,6.5c-3.9-1.8-7.8-2.2-11.8-1.3c-2.1,0.5-3.7,1.3-4.8,2.4s-1.5,2.4-1.1,3.9c0.2,0.8,0.6,1.5,1.2,2
                s1.5,0.8,2.7,1c1.2,0.2,2.9,0.3,5.1,0.2c5.1,0,8.9,0.6,11.4,1.8c2.5,1.2,4.1,3.3,4.8,6.2c0.8,3.5,0.1,6.6-2.2,9.3
                c-2.3,2.7-5.9,4.6-10.8,5.7C1265.2,1874.7,1262.4,1875,1259.6,1874.8z"/>
        </g>
        <path class="st1" d="M867.9,1868.2c-0.7,0.1-0.9,0.3-1.6,0.4c-6.2,1.2-13.1-0.1-18.5-3.8c-2.7-1.9-5-4.1-6.7-6.6
            c-1.7-2.5-3.1-5.7-3.7-8.7c-0.7-3.2-0.7-6.6,0.1-9.7c0.2-1.3,0.9-5.8,2-11.4l5.9,8.7c1,1.5,2.7,1.9,4.3,0.8
            c1.5-1,1.9-2.7,0.8-4.3l-10.4-15.3c-1-1.5-2.7-1.9-4.3-0.8l-15.3,10.4c-1.4,0.6-1.8,2.3-0.7,3.8c1,1.5,2.7,1.9,4.3,0.8l9.7-6.6
            c-1.1,6-1.9,10.9-2.4,12.4c-0.8,4.3-0.7,8.3,0.1,12.2c0.5,1.9,1.1,3.7,2,5.7c0.8,1.7,1.7,3.7,2.8,5.2c2.2,3.3,5,6.3,8.3,8.5
            c3.3,2.2,7.2,4,11.3,4.6c0.4,0.1,0.9,0.2,1.1,0c2,0.2,3.9,0.3,5.9,0.5c1.5,0.1,3.2-0.3,4.5-0.5c0.7-0.1,1.4-0.2,2-0.3
            c1.6-0.4,2.6-2.2,2.3-3.8C871.4,1868.8,869.6,1867.8,867.9,1868.2z"/>
        <path class="st1" d="M899.7,1856.3l-9.9,6.7c1.4-6.2,2.1-11.1,2.4-12.4c1-4,0.7-8.3-0.1-12.2c-0.5-1.9-1.2-4-2-5.7
            c-0.8-1.7-1.7-3.7-2.8-5.2c-1-1.5-2.5-3.1-3.8-4.5c-1.5-1.6-3-2.8-4.6-4c-3.3-2.2-7-3.8-11.3-4.6c-0.3,0.2-0.7,0.1-1.1,0
            c-2.1-0.4-4.1-0.6-5.9-0.5c-1.5-0.1-2.9,0.1-4.5,0.5c-0.7,0.1-1.4,0.2-2,0.3c-1.9,0.5-2.6,2.2-2.3,3.8c0.4,1.6,2.2,2.6,3.8,2.3
            c0.7-0.1,0.9-0.3,1.6-0.4c2.7-0.4,5.6-0.5,8.4-0.2c0.4,0.1,0.4,0.1,0.9,0.2c3.2,0.4,6.3,1.7,9.1,3.5c2.6,1.6,5,4.1,6.7,6.6
            c1.7,2.5,2.9,5.4,3.7,8.7c0.5,3,0.6,6.3-0.1,9.7c0,1.1-0.9,5.8-2,11.4l-5.9-8.7c-1-1.5-2.7-1.9-4.3-0.8s-1.9,2.7-0.8,4.3
            l10.4,15.3c1,1.5,2.7,1.9,4.3,0.8l15.3-10.4c1.5-1,2.2-2.2,1.2-3.8C902.9,1855.6,901.2,1855.3,899.7,1856.3z"/>
    </g>
    <g class="flywheel-section" id="Beginners-color">
        <linearGradient id="SVGID_3_" gradientUnits="userSpaceOnUse" x1="1774.4047" y1="1690.6453" x2="1774.4047" y2="397.257">
            <stop  offset="0" style="stop-color:#2CB4FF"/>
            <stop  offset="0" style="stop-color:#2CB2FF"/>
            <stop  offset="0.9967" style="stop-color:#4980FF"/>
        </linearGradient>
        <path class="st3" d="M1727,397.3l-20.6,180.6l-182,22.3c7.7,7,15.3,14.2,22.7,21.7c62.2,62.2,110.3,134.7,143.1,215.4
            c31.6,78,47.7,160.5,47.7,245.1c0,84.6-16,167.1-47.7,245.1c-23.1,56.9-53.8,109.6-91.7,157.6l22.7,185.1l179.3,20.5
            c65.3-76.4,117.4-162.1,155.3-255.5c45.6-112.4,68.7-231.1,68.7-352.8c0-121.7-23.1-240.4-68.7-352.8
            c-47.2-116.4-116.5-220.8-206-310.3C1742.3,411.8,1734.7,404.4,1727,397.3z"/>
        <g>
            <path class="st1" d="M1869.4,964.6c-1.4,1.5-3.3,2.4-5.6,2.8c-3.2,0.5-6-0.2-8.2-2.3c-2.3-2.1-3.8-5.2-4.5-9.3l-3.1-18.1
                l38.1-6.5l3,17.5c0.7,4,0.3,7.2-1,9.8c-1.4,2.6-3.6,4.2-6.7,4.7c-2,0.3-3.8,0.1-5.5-0.7s-3-2.1-4-3.8
                C1871.6,961.2,1870.8,963.1,1869.4,964.6z M1859.4,958.6c0.9,0.9,2.2,1.2,3.9,0.9c1.7-0.3,2.9-1,3.5-2.2
                c0.6-1.2,0.7-2.8,0.3-5.1l-1.5-9l-9.7,1.7l1.5,9C1857.8,956.1,1858.4,957.7,1859.4,958.6z M1872,942.1l1.4,8
                c0.4,2.1,1,3.7,1.9,4.6c0.9,0.9,2.1,1.3,3.7,1c1.6-0.3,2.6-1,3.2-2.2c0.6-1.2,0.7-2.8,0.3-5l-1.4-8L1872,942.1z"/>
            <path class="st1" d="M1855.1,982.1l38.4-4.4l3,26.5l-6.5,0.7l-2.1-18.3l-9.1,1l2,17.1l-6.6,0.8l-2-17.1l-9.7,1.1l2.1,18.3
                l-6.5,0.7L1855.1,982.1z"/>
            <path class="st1" d="M1882.5,1053.3l-18.9,1.1c-1-1.8-1.8-4-2.5-6.5c-0.7-2.5-1.1-5-1.2-7.7c-0.2-4.1,0.4-7.7,1.8-10.8
                c1.4-3.1,3.6-5.5,6.4-7.3c2.9-1.8,6.4-2.8,10.5-3c4-0.2,7.5,0.4,10.6,1.8c3.1,1.4,5.5,3.6,7.2,6.4c1.8,2.9,2.8,6.2,3,10.2
                c0.2,2.8-0.1,5.4-0.7,7.8c-0.6,2.4-1.6,4.5-2.9,6.1l-6.2-2.4c1.2-1.9,2-3.7,2.5-5.4s0.7-3.6,0.5-5.6c-0.4-7.4-5-10.9-13.6-10.4
                c-8.8,0.5-13,4.6-12.6,12.4c0.1,2.1,0.5,4.2,1.2,6.3l8.5-0.5l-0.4-7.6l5.9-0.3L1882.5,1053.3z"/>
            <path class="st1" d="M1861.5,1069l38.6-0.4l0.1,8.5l-38.6,0.4L1861.5,1069z"/>
            <path class="st1" d="M1899.4,1119.3l-0.3,8l-38.6-1.4l0.2-6.3l25.3-18.4l-24.6-0.9l0.3-7.9l38.6,1.4l-0.2,6.2l-25.2,18.4
                L1899.4,1119.3z"/>
            <path class="st1" d="M1895.5,1169.7l-0.8,7.9l-38.4-3.8l0.6-6.3l26.4-16.8l-24.5-2.4l0.8-7.9l38.4,3.8l-0.6,6.2l-26.3,16.8
                L1895.5,1169.7z"/>
            <path class="st1" d="M1854.2,1188.6l38.2,5.9l-4.1,26.3l-6.5-1l2.8-18.2l-9-1.4l-2.7,17l-6.5-1l2.7-17l-9.6-1.5l-2.8,18.2
                l-6.5-1L1854.2,1188.6z"/>
            <path class="st1" d="M1841,1259.4l1.9-8.7l13.6-2.1c1.1-0.2,1.9-0.6,2.5-1.3c0.6-0.7,1-1.7,1.2-2.9l1.2-5.4l-15.2-3.3l1.8-8.2
                l37.7,8.3l-3.7,16.8c-1,4.4-2.6,7.5-5,9.3c-2.4,1.8-5.4,2.4-9,1.6c-2.5-0.6-4.5-1.7-6-3.4c-1.5-1.7-2.4-3.9-2.6-6.5
                c-0.9,2.1-2.8,3.4-5.7,3.8L1841,1259.4z M1866.1,1247.8c-0.5,2.4-0.5,4.2,0.1,5.5c0.6,1.3,1.7,2.1,3.4,2.5
                c1.7,0.4,3.1,0.1,4.1-0.8c1-0.9,1.8-2.6,2.3-4.9l1.7-7.5l-9.9-2.2L1866.1,1247.8z"/>
            <path class="st1" d="M1837.4,1276.8c1.5-2.4,3.1-4.3,4.9-5.6l5.2,4.2c-3.5,2.9-5.8,6.6-7,11c-0.6,2.4-0.8,4.3-0.4,5.8
                c0.4,1.5,1.3,2.4,2.7,2.8c1.2,0.3,2.3,0,3.3-1c1-1,2.2-2.9,3.6-5.6c1.6-3.1,3.1-5.5,4.6-7.2c1.5-1.7,3-2.8,4.7-3.3
                s3.5-0.5,5.5,0.1c2.2,0.6,4.1,1.8,5.5,3.5c1.4,1.7,2.4,3.8,2.8,6.3c0.4,2.5,0.2,5.2-0.6,8.2c-0.7,2.7-1.8,5.1-3.2,7.3
                c-1.4,2.2-3,3.9-4.7,5l-5.2-4.2c3.4-2.6,5.6-5.9,6.7-9.8c0.6-2.1,0.6-3.9,0.1-5.4c-0.5-1.5-1.5-2.4-2.9-2.8
                c-0.8-0.2-1.6-0.2-2.3,0.1c-0.7,0.3-1.4,1-2.1,2c-0.7,1-1.6,2.5-2.6,4.4c-2.3,4.5-4.6,7.6-6.9,9.2s-4.8,2.1-7.7,1.3
                c-3.5-0.9-5.9-3.1-7.2-6.3c-1.3-3.3-1.3-7.3,0-12.2C1834.8,1281.8,1835.9,1279.2,1837.4,1276.8z"/>
        </g>
        <g>
            <path class="st1" d="M1897.1,866.1c-3.1-13.1-16.3-21.3-29.4-18.2c-6.9,1.6-12.7,6.1-16,12.2c-1.9,3.1-10.2,5.3-11.9,5.7
                l-0.7,0.1c-0.9,0.2-1.5,0.6-1.9,1.3c-0.4,0.6-0.5,1.5-0.4,2.2l4.8,20.4c0.2,0.8,0.7,1.4,1.3,1.8c0.7,0.4,1.5,0.5,2.4,0.3
                c2.6-0.7,10.9-2.2,13.7-0.4l0.3,0.2c5.8,3.9,12.9,5.3,19.5,3.7C1892.1,892.5,1900.2,879.3,1897.1,866.1z M1862.6,886.8l-0.1-0.1
                c-0.1-0.1-0.4-0.2-0.6-0.3c-3.8-2.1-11.7-1.1-14.9-0.6l-3.5-14.8c3.3-1.1,11-3.9,13.6-7.9c2.5-4.8,6.9-8.2,12.1-9.4
                c9.9-2.3,19.9,3.8,22.3,13.8c2.3,9.9-3.8,19.9-13.8,22.3C1872.4,890.9,1866.9,889.8,1862.6,886.8z"/>
            <path class="st1" d="M1829.5,892.6l-4.7-19.8c-0.4-1.8,0.7-3.6,2.5-4l0,0c1.8-0.4,3.6,0.7,4,2.5l4.7,19.8c0.4,1.8-0.7,3.6-2.5,4
                l0,0C1831.7,895.5,1829.9,894.4,1829.5,892.6z"/>
        </g>
    </g>
    <g class="flywheel-section" id="Evaluators-color">
        <linearGradient id="SVGID_4_" gradientUnits="userSpaceOnUse" x1="421.6968" y1="394.5293" x2="1713.3049" y2="394.5293">
            <stop  offset="3.618310e-02" style="stop-color:#2DD2F3"/>
            <stop  offset="1" style="stop-color:#20E0D6"/>
        </linearGradient>
        <path class="st4" d="M1439.4,213.2c-112.4-45.6-231.1-68.7-352.8-68.7c-121.7,0-240.4,23.1-352.8,68.7
            c-116.4,47.2-220.8,116.5-310.3,206c-7,7-13.8,14-20.5,21.2l179,20.4l22.5,183.7c7-7.7,14.2-15.2,21.6-22.6
            c62.2-62.2,134.7-110.3,215.4-143.1c78-31.6,160.5-47.7,245.1-47.7c84.6,0,167.1,16,245.1,47.7c56.1,22.8,108.2,53,155.7,90.2
            l186.9-22.9l20.3-177.8C1618.3,303.1,1532.7,251.1,1439.4,213.2z"/>
        <g>
            <path class="st1" d="M889.8,336.5l-9.4-37.5l25.8-6.5l1.6,6.4l-17.8,4.5l2.2,8.8l16.7-4.2l1.6,6.4l-16.7,4.2l2.4,9.5l17.8-4.5
                l1.6,6.4L889.8,336.5z"/>
            <path class="st1" d="M949,283.9l8.4-1.6l-9.8,41.2l-6.7,1.3l-24.3-34.7l8.6-1.6l17.1,25.3L949,283.9z"/>
            <path class="st1" d="M1000.1,315.5l-4.8-8l-17.9,2.4l-2.5,9l-8.4,1.1l12.5-40.6l6.8-0.9l22.7,36L1000.1,315.5z M979.4,303
                l12.4-1.6l-8.1-13.5L979.4,303z"/>
            <path class="st1" d="M1018.7,313.6l-2.9-38.5l8.4-0.6l2.4,31.6l17.2-1.3l0.5,6.9L1018.7,313.6z"/>
            <path class="st1" d="M1058.9,307.3c-2.9-2.7-4.4-6.8-4.5-12.2l-0.5-22.7l8.3-0.2l0.5,23c0.1,3.1,0.8,5.4,2.3,7
                c1.5,1.6,3.5,2.3,6.2,2.3c2.7-0.1,4.7-0.9,6.1-2.5c1.4-1.6,2-4,2-7.1l-0.5-23l8.4-0.2l0.5,22.7c0.1,5.4-1.2,9.5-4,12.3
                c-2.8,2.9-6.9,4.4-12.2,4.5C1065.9,311.3,1061.8,310,1058.9,307.3z"/>
            <path class="st1" d="M1131.6,311.6l-3.3-8.7l-18-0.7l-4,8.4l-8.5-0.3l19.2-37.9l6.8,0.3l16.2,39.3L1131.6,311.6z M1113.3,295.8
                l12.5,0.5l-5.7-14.7L1113.3,295.8z"/>
            <path class="st1" d="M1154.3,313.3l2.9-31.6l-12-1.1l0.6-6.9l32.6,3l-0.6,6.9l-12-1.1l-2.9,31.6L1154.3,313.3z"/>
            <path class="st1" d="M1192.2,315.5c-2.6-2-4.4-4.6-5.5-7.8c-1.1-3.2-1.3-6.8-0.8-10.7c0.6-4,1.9-7.3,3.8-10
                c2-2.7,4.4-4.7,7.5-5.8c3-1.2,6.5-1.5,10.3-0.9c3.8,0.6,7,1.8,9.5,3.8c2.6,2,4.4,4.6,5.4,7.7c1.1,3.2,1.3,6.7,0.7,10.7
                c-0.6,4-1.8,7.3-3.8,10.1c-1.9,2.8-4.4,4.7-7.4,5.9c-3,1.2-6.4,1.5-10.2,0.9C1197.9,318.7,1194.7,317.5,1192.2,315.5z
                 M1210.7,310.5c2.1-2,3.5-5.1,4.1-9.3c0.6-4.2,0.2-7.6-1.3-10.1c-1.5-2.5-3.8-4-7.1-4.4c-3.2-0.5-5.9,0.3-8,2.2s-3.5,5-4.1,9.3
                c-0.6,4.3-0.2,7.6,1.3,10.1c1.5,2.5,3.8,4,7,4.5C1205.9,313.2,1208.6,312.5,1210.7,310.5z"/>
            <path class="st1" d="M1265.6,330.7l-8.8-1.8l-2.2-13.6c-0.2-1.1-0.6-1.9-1.3-2.4c-0.7-0.6-1.7-1-2.9-1.2l-5.4-1.1l-3.2,15.2
                l-8.2-1.7l7.9-37.8l16.8,3.5c4.4,0.9,7.5,2.6,9.4,5c1.9,2.4,2.4,5.4,1.7,8.9c-0.5,2.5-1.6,4.5-3.4,6.1c-1.7,1.5-3.9,2.4-6.5,2.7
                c2.1,0.9,3.4,2.8,3.9,5.6L1265.6,330.7z M1253.9,305.8c2.4,0.5,4.2,0.5,5.5-0.1c1.3-0.6,2.1-1.7,2.4-3.4s0.1-3.1-0.9-4.1
                c-0.9-1-2.6-1.8-5-2.3l-7.5-1.6l-2.1,9.9L1253.9,305.8z"/>
            <path class="st1" d="M1282.9,334.4c-2.4-1.5-4.3-3.1-5.6-4.9l4.2-5.2c2.9,3.5,6.6,5.8,11,7c2.4,0.6,4.3,0.8,5.8,0.4
                c1.5-0.4,2.4-1.3,2.8-2.7c0.3-1.2,0-2.3-1-3.3c-1-1-2.9-2.2-5.6-3.6c-3.1-1.5-5.5-3.1-7.2-4.5c-1.7-1.5-2.8-3-3.3-4.7
                c-0.5-1.6-0.5-3.5,0.1-5.5c0.6-2.2,1.8-4.1,3.5-5.5c1.7-1.4,3.8-2.4,6.3-2.8c2.5-0.4,5.2-0.2,8.2,0.6c2.7,0.7,5.1,1.8,7.3,3.2
                c2.2,1.4,3.9,3,5,4.7l-4.2,5.2c-2.6-3.4-5.9-5.6-9.8-6.7c-2.1-0.6-3.9-0.6-5.4-0.1c-1.5,0.5-2.4,1.5-2.8,2.9
                c-0.2,0.8-0.2,1.6,0.1,2.3c0.3,0.7,1,1.4,2,2.1c1,0.7,2.5,1.6,4.4,2.6c4.5,2.3,7.6,4.6,9.2,6.9c1.7,2.2,2.1,4.8,1.3,7.7
                c-0.9,3.5-3,5.9-6.3,7.2c-3.3,1.3-7.3,1.3-12.2,0C1287.9,337,1285.3,335.9,1282.9,334.4z"/>
        </g>
        <path class="st1" d="M843.4,339.8c3-4.6,4.5-10.4,4-15.7c-1.2-13.7-13.3-23.9-27-22.8c-13.7,1.2-23.9,13.3-22.8,27
            c1.2,13.7,13.3,23.9,27,22.8c5.8-0.5,11-2.8,14.8-6.6l13.7,11.6c0.7,0.6,1.6,0.8,2.2,0.7c0.1,0,0.1,0,0.2,0
            c0.6-0.1,1.3-0.5,1.8-1.1c0.5-0.6,0.8-1.4,0.7-2.2s-0.5-1.5-1.1-2.1L843.4,339.8z M837,338.4c-3.2,3.8-7.8,6.2-12.8,6.6
            c-5.1,0.4-9.9-1.1-13.8-4.3c-3.8-3.2-6.2-7.8-6.6-12.8c-0.4-5.1,1.1-9.9,4.3-13.8c2.8-3.3,6.6-5.5,10.9-6.3
            c0.6-0.1,1.3-0.2,2-0.3c10.5-0.9,19.5,6.6,20.4,17.2C841.8,329.7,840.3,334.6,837,338.4z"/>
    </g>
    <g class="flywheel-section" id="Adore-color">
        <linearGradient id="SVGID_5_" gradientUnits="userSpaceOnUse" x1="-67.7366" y1="1191.1121" x2="994.6141" y2="2253.4626">
            <stop  offset="0" style="stop-color:#FE5B8F"/>
            <stop  offset="0.8836" style="stop-color:#8860FF"/>
        </linearGradient>
        <path class="st5" d="M705.2,1985.7c-116.3-49.2-220.8-119.7-310.6-209.4c-89.7-89.7-160.2-194.2-209.4-310.6
            c-46.3-109.4-71.8-224.9-76.1-344l-53.4-44l-55.2,44.9c4.5,133.4,32.9,262.8,84.7,385.3c27.2,64.3,60.9,126.4,100.1,184.4
            c38.8,57.5,83.4,111.5,132.5,160.6c49.1,49.1,103.1,93.7,160.6,132.5c58,39.2,120.1,72.9,184.4,100.1
            c131.3,55.5,270.6,84.2,414.1,85.3l-43-52.8l45.9-55.8C950,2061.8,824,2036,705.2,1985.7z"/>
        <g>
            <path class="st1" d="M319.3,1800.4l3.5-7.8l-11.2-12.3l-8.1,2.8l-5.3-5.8l37.3-12l4.3,4.6l-15.2,36.1L319.3,1800.4z
                 M317.7,1778.1l7.8,8.5l6-13.3L317.7,1778.1z"/>
            <path class="st1" d="M357.5,1789l9.7,9.7c2.8,2.8,4.6,5.6,5.6,8.6c1,3,1.1,5.9,0.2,8.9c-0.8,2.9-2.6,5.7-5.2,8.3
                c-2.6,2.6-5.4,4.4-8.3,5.2c-2.9,0.8-5.9,0.8-8.9-0.2c-3-1-5.9-2.9-8.6-5.6l-9.7-9.7L357.5,1789z M346.2,1819.1
                c5.4,5.4,10.8,5.3,16.2-0.1c5.4-5.4,5.4-10.8,0-16.2l-3.9-3.9l-16.3,16.3L346.2,1819.1z"/>
            <path class="st1" d="M372.2,1850.6c-0.9-2.9-1-5.8-0.2-8.8c0.8-3,2.5-5.9,5-8.6c2.5-2.7,5.2-4.6,8.1-5.7
                c2.9-1.1,5.8-1.3,8.7-0.6c2.9,0.7,5.7,2.2,8.3,4.6c2.6,2.4,4.4,5,5.3,7.8c0.9,2.8,1,5.8,0.2,8.7c-0.8,3-2.5,5.8-5,8.5
                c-2.5,2.7-5.2,4.6-8.1,5.7c-2.9,1.1-5.8,1.3-8.7,0.7c-2.9-0.7-5.7-2.2-8.3-4.6C374.9,1856.1,373.1,1853.4,372.2,1850.6z
                 M388.9,1856.4c2.7-0.4,5.3-2.1,8-5c2.7-2.9,4.1-5.7,4.2-8.3c0.1-2.7-0.9-5-3.1-7c-2.2-2-4.6-2.8-7.3-2.4
                c-2.6,0.4-5.3,2-7.9,4.9c-2.7,2.9-4.1,5.7-4.3,8.4c-0.2,2.7,0.9,5,3.1,7C383.8,1856,386.3,1856.8,388.9,1856.4z"/>
            <path class="st1" d="M424.5,1898.5l-6.3-5.3l4.1-12c0.3-1,0.3-1.8,0-2.6c-0.3-0.8-0.9-1.5-1.8-2.2l-3.9-3.2l-9.2,11l-5.9-4.9
                l22.8-27.3l12.2,10.2c3.2,2.7,5,5.3,5.5,8.1c0.5,2.7-0.4,5.4-2.5,8c-1.5,1.8-3.3,3-5.3,3.5c-2,0.5-4.2,0.3-6.5-0.6
                c1.3,1.7,1.6,3.8,0.7,6.3L424.5,1898.5z M425.8,1873.1c1.7,1.4,3.2,2.2,4.5,2.3c1.3,0.1,2.4-0.5,3.4-1.7c1-1.2,1.4-2.5,1.1-3.7
                c-0.3-1.2-1.3-2.6-3-4l-5.4-4.6l-6,7.1L425.8,1873.1z"/>
            <path class="st1" d="M435.1,1906.9l21.7-28.2l19.4,15l-3.7,4.8l-13.4-10.4l-5.1,6.7l12.6,9.7l-3.7,4.8l-12.6-9.7l-5.5,7.1
                l13.4,10.4l-3.7,4.8L435.1,1906.9z"/>
        </g>
    </g>
    <g class="flywheel-section" id="Adopt-color">
        <linearGradient id="SVGID_6_" gradientUnits="userSpaceOnUse" x1="1623.2295" y1="1086.4229" x2="1623.2295" y2="2170.5601">
            <stop  offset="0.253" style="stop-color:#2CB4FF"/>
            <stop  offset="1" style="stop-color:#605CFF"/>
        </linearGradient>
        <path class="st6" d="M2113.8,1133l-51.4-42.3c-0.7,130.1-26.5,256.2-76.7,375.1c-49.2,116.3-119.7,220.8-209.4,310.6
            c-89.7,89.7-194.2,160.2-310.6,209.4c-109.3,46.2-224.8,71.8-343.9,76.1l-46.5,56.5l42.6,52.2c135-3.9,266.1-32.4,390.1-84.8
            c64.3-27.2,126.4-60.9,184.4-100.1c57.5-38.8,111.5-83.4,160.6-132.5c49.1-49.1,93.7-103.1,132.5-160.6
            c39.2-58,72.9-120.1,100.1-184.4c56.5-133.6,85.2-275.5,85.3-421.7L2113.8,1133z"/>
        <g>
            <path class="st1" d="M1802.8,1850.8l-7.8-3.5l-12.3,11.2l2.8,8.1l-5.8,5.3l-12-37.3l4.7-4.3l36.1,15.2L1802.8,1850.8z
                 M1780.6,1852.3l8.5-7.8l-13.3-6L1780.6,1852.3z"/>
            <path class="st1" d="M1791.5,1812.5l9.7-9.7c2.8-2.8,5.6-4.6,8.6-5.6c3-1,5.9-1.1,8.9-0.2s5.7,2.6,8.3,5.2
                c2.6,2.6,4.4,5.4,5.2,8.3c0.8,2.9,0.8,5.9-0.2,8.9s-2.9,5.9-5.6,8.6l-9.7,9.7L1791.5,1812.5z M1821.6,1823.8
                c5.4-5.4,5.3-10.8-0.1-16.2c-5.4-5.4-10.8-5.4-16.2,0l-3.9,3.9l16.3,16.3L1821.6,1823.8z"/>
            <path class="st1" d="M1853,1797.8c-2.9,0.9-5.8,1-8.8,0.2s-5.9-2.5-8.6-5s-4.6-5.2-5.7-8.1c-1.1-2.9-1.3-5.8-0.6-8.7
                c0.7-2.9,2.2-5.7,4.6-8.3c2.4-2.6,5-4.4,7.8-5.3c2.8-0.9,5.8-1,8.7-0.2c3,0.8,5.8,2.5,8.5,5c2.7,2.5,4.6,5.2,5.7,8.1
                c1.1,2.9,1.3,5.8,0.7,8.7s-2.2,5.7-4.6,8.3C1858.5,1795.1,1855.9,1796.9,1853,1797.8z M1858.8,1781.1c-0.4-2.7-2.1-5.3-5-8
                c-2.9-2.7-5.7-4.1-8.3-4.2c-2.7-0.2-5,0.9-7,3.1c-2,2.2-2.8,4.6-2.4,7.3c0.4,2.6,2,5.3,4.9,7.9c2.9,2.7,5.7,4.1,8.4,4.3
                c2.7,0.2,5-0.9,7-3.1C1858.4,1786.2,1859.2,1783.8,1858.8,1781.1z"/>
            <path class="st1" d="M1854.3,1745.7l10.4-12.4c2.5-3,5.2-4.8,8.1-5.2c2.9-0.5,5.5,0.4,8,2.5c2.5,2.1,3.7,4.6,3.8,7.5
                c0.1,2.9-1.2,5.9-3.7,8.9l-5.4,6.4l11,9.2l-5,6L1854.3,1745.7z M1875.8,1743.9c2.6-3.1,2.7-5.7,0.4-7.6c-2.4-2-4.9-1.4-7.5,1.7
                l-4.7,5.6l7.1,5.9L1875.8,1743.9z"/>
            <path class="st1" d="M1912.8,1730.3l-23.1-17.9l-6.8,8.8l-5-3.9l18.5-23.9l5,3.9l-6.8,8.8l23.1,17.9L1912.8,1730.3z"/>
        </g>
    </g>
    <g class="flywheel-section" id="Advocate-color">
        <g>
            <linearGradient id="SVGID_7_" gradientUnits="userSpaceOnUse" x1="-84.9287" y1="997.0547" x2="978.1608" y2="-66.0348">
                <stop  offset="0" style="stop-color:#FF6297"/>
                <stop  offset="0.4083" style="stop-color:#FA87CD"/>
                <stop  offset="1" style="stop-color:#2DD2F3"/>
            </linearGradient>
            <path class="st7" d="M1089.3,55.2l-44.3-54.4C912.7,5.6,784.4,33.9,663,85.3c-64.3,27.2-126.4,60.9-184.4,100.1
                c-57.5,38.8-111.5,83.4-160.6,132.5s-93.7,103.1-132.5,160.6c-39.2,58-72.9,120.1-100.1,184.4C29.1,795.8,0.5,936.7,0,1082
                l55.9-45.5l52.7,43.4c0.7-129.9,26.5-255.9,76.7-374.6c49.2-116.3,119.7-220.8,209.4-310.6s194.2-160.2,310.6-209.4
                c107.9-45.7,221.9-71.1,339.4-75.9L1089.3,55.2z"/>
        </g>
        <g>
            <path class="st1" d="M216.8,561.7l-8.5-1.1l-8.4,14.4l5.1,6.9l-4,6.8l-22.5-32.1l3.2-5.4l39,3.9L216.8,561.7z M196.1,569.8
                l5.8-9.9l-14.4-1.8L196.1,569.8z"/>
            <path class="st1" d="M196,527.5l7.5-11.5c2.1-3.3,4.5-5.7,7.2-7.3c2.7-1.6,5.6-2.3,8.6-2.1c3,0.2,6.1,1.3,9.2,3.3
                c3.1,2,5.4,4.4,6.9,7.1s2,5.6,1.7,8.7c-0.3,3.1-1.6,6.3-3.7,9.6l-7.5,11.5L196,527.5z M227.8,532.3c4.1-6.4,3-11.7-3.5-15.8
                c-6.4-4.1-11.7-3-15.8,3.4l-3,4.6l19.3,12.5L227.8,532.3z"/>
            <path class="st1" d="M236.2,467.9l4.5-6.4l19.8,33.6l-3.6,5.1l-38.3-7.5l4.7-6.6l27.5,5.9L236.2,467.9z"/>
            <path class="st1" d="M277.9,468.6c-2.8,1.2-5.7,1.4-8.7,0.9c-3.1-0.6-6-2-9-4.3c-2.9-2.3-5-4.8-6.3-7.6
                c-1.3-2.8-1.7-5.7-1.3-8.7c0.4-3,1.7-5.9,3.9-8.7c2.2-2.8,4.6-4.8,7.4-5.9c2.8-1.1,5.7-1.4,8.7-0.9s6,2,8.9,4.3
                c2.9,2.3,5,4.8,6.4,7.6c1.3,2.8,1.8,5.7,1.4,8.6c-0.4,3-1.7,5.8-3.9,8.6C283.2,465.5,280.7,467.4,277.9,468.6z M282.3,451.4
                c-0.6-2.6-2.5-5.1-5.6-7.5c-3.1-2.4-6-3.6-8.7-3.5c-2.7,0.1-4.9,1.3-6.8,3.6c-1.8,2.4-2.5,4.9-1.9,7.4c0.6,2.6,2.5,5.1,5.6,7.5
                c3.1,2.4,6,3.6,8.7,3.6c2.7-0.1,4.9-1.3,6.8-3.6S283,454.1,282.3,451.4z"/>
            <path class="st1" d="M307.1,432.1c-2.9,1.1-5.9,1.3-8.9,0.6c-3-0.7-5.9-2.2-8.7-4.6c-2.8-2.4-4.7-5-5.9-7.8
                c-1.2-2.9-1.5-5.8-0.9-8.8s2.1-5.9,4.4-8.6c1.5-1.8,3.3-3.3,5.2-4.5c1.9-1.2,3.8-1.9,5.7-2.1l2.7,5.5c-2,0.4-3.6,1.1-5,1.9
                c-1.4,0.8-2.6,1.8-3.7,3.1c-2.1,2.4-2.9,5-2.4,7.6c0.5,2.6,2.2,5.2,5.1,7.7c3,2.5,5.8,3.8,8.5,3.9c2.7,0,5-1.2,7.1-3.6
                c1.1-1.3,1.9-2.7,2.5-4.2c0.6-1.5,0.9-3.3,1-5.3l5.9,1.8c0.1,1.9-0.3,3.9-1.1,6c-0.8,2.1-2,4.1-3.6,5.9
                C312.6,429.1,310,431,307.1,432.1z"/>
            <path class="st1" d="M348.6,388.1l-8.1-2.9l-11.3,12.2l3.5,7.9l-5.3,5.8L312.3,375l4.3-4.6l37.2,12.1L348.6,388.1z M326.5,391.6
                l7.8-8.4l-13.7-4.8L326.5,391.6z"/>
            <path class="st1" d="M363.4,372.8l-20.8-20.6l-7.9,7.9l-4.5-4.5l21.3-21.4l4.5,4.5l-7.9,7.9l20.8,20.6L363.4,372.8z"/>
            <path class="st1" d="M384.8,351.7l-24.3-26l17.9-16.8l4.1,4.4l-12.4,11.6l5.7,6.1l11.6-10.9l4.2,4.5L380,335.5l6.1,6.6
                l12.4-11.6l4.1,4.4L384.8,351.7z"/>
        </g>
    </g>
    <g class="flywheel-section" id="Activate-color">
        <linearGradient id="SVGID_8_" gradientUnits="userSpaceOnUse" x1="2027.3809" y1="1141.6344" x2="1297.5962" y2="-122.39">
            <stop  offset="0" style="stop-color:#4489FF"/>
            <stop  offset="0.8165" style="stop-color:#1DE0D7"/>
        </linearGradient>
        <path class="st8" d="M2085.7,663c-27.2-64.3-60.9-126.4-100.1-184.4c-38.8-57.5-83.4-111.5-132.5-160.6
            c-49.1-49.1-103.1-93.7-160.6-132.5c-58-39.2-120.1-72.9-184.4-100.1C1374.2,28.7,1232.1,0,1085.6,0l45,55.3l-43.9,53.3
            c131.5,0.2,259,26,379,76.7c116.3,49.2,220.8,119.7,310.6,209.4c89.7,89.7,160.2,194.2,209.4,310.6
            c46.2,109.2,71.7,224.6,76.1,343.5l52.1,42.9l56.4-45.9C2165.6,913.3,2137.2,784.7,2085.7,663z"/>
        <g>
            <path class="st1" d="M1668.6,253.6l1.7-8.4l-13.7-9.4l-7.3,4.6l-6.5-4.4l33.6-20.1l5.2,3.6L1675,258L1668.6,253.6z M1662,232.4
                l9.5,6.5l2.8-14.3L1662,232.4z"/>
            <path class="st1" d="M1689,266.1c-1.2-2.8-1.6-5.8-1.1-8.8c0.5-3.1,1.8-6.1,4-9c2.2-2.9,4.7-5,7.5-6.4c2.8-1.3,5.7-1.8,8.8-1.4
                c3,0.4,6,1.7,8.9,3.8c1.9,1.4,3.5,3.1,4.8,4.9c1.3,1.9,2.1,3.7,2.4,5.6l-5.3,3c-0.6-1.9-1.3-3.6-2.2-4.9c-0.9-1.3-2-2.5-3.3-3.5
                c-2.6-1.9-5.1-2.6-7.7-2s-5,2.5-7.4,5.6c-2.4,3.2-3.5,6.1-3.3,8.7c0.1,2.7,1.5,4.9,4,6.9c1.3,1,2.8,1.7,4.3,2.2
                c1.5,0.5,3.3,0.7,5.3,0.7l-1.4,6c-1.9,0.2-3.9,0-6-0.7c-2.2-0.7-4.2-1.8-6.1-3.2C1692.3,271.4,1690.2,268.9,1689,266.1z"/>
            <path class="st1" d="M1720.8,292.9l18.4-22.7l-8.7-7l4-4.9l23.5,19l-4,4.9l-8.7-7l-18.4,22.7L1720.8,292.9z"/>
            <path class="st1" d="M1744,312.1l23.2-27l5.9,5.1l-23.2,27L1744,312.1z"/>
            <path class="st1" d="M1803.8,317.9l5.8,5.3l-35.9,15.4l-4.6-4.2l12.3-37l6,5.5l-9.3,26.5L1803.8,317.9z"/>
            <path class="st1" d="M1809.2,372.9l3.2-8l-11.8-11.7l-8,3.2l-5.6-5.5l36.7-13.7l4.5,4.4l-13.5,36.8L1809.2,372.9z M1806.6,350.7
                l8.2,8.1l5.3-13.5L1806.6,350.7z"/>
            <path class="st1" d="M1823.9,388.2l21.4-20l-7.6-8.1l4.6-4.3l20.6,22.1l-4.6,4.3l-7.6-8.1l-21.4,20L1823.9,388.2z"/>
            <path class="st1" d="M1844.2,410.4l26.9-23.3l16.1,18.5l-4.6,4l-11.1-12.8l-6.3,5.5l10.4,12l-4.6,4l-10.4-12l-6.8,5.9l11.1,12.8
                l-4.6,4L1844.2,410.4z"/>
        </g>
    </g>
    <g class="flywheel-section inactive" id="Champions-grey">
        <g>
            <path class="st9" d="M550.2,492.9l-176.3-20.1c-65.8,76.7-118.3,162.8-156.4,256.7c-45.6,112.4-68.7,231.1-68.7,352.8
                s23.1,240.4,68.7,352.8c47.2,116.4,116.5,220.8,206,310.3c6.9,6.9,13.8,13.6,20.9,20.2l20.6-180.5l182.1-22.3
                c-7.1-6.5-14.1-13.2-21-20c-62.2-62.2-110.3-134.7-143.1-215.4c-31.6-78-47.7-160.5-47.7-245.1c0-84.6,16-167.1,47.7-245.1
                c22.8-56.1,53-108.3,90.2-155.8L550.2,492.9z"/>
        </g>
        <g>
            <path class="st10" d="M334.6,1256.9c-1,3.2-2.8,5.9-5.3,8c-2.6,2.2-5.8,3.7-9.7,4.5c-3.8,0.9-7.4,0.8-10.6,0
                c-3.2-0.9-6-2.6-8.2-5c-2.2-2.5-3.8-5.6-4.6-9.5c-0.6-2.5-0.7-5-0.5-7.4c0.3-2.4,0.9-4.5,2-6.3l6.5,1.3c-0.9,2-1.5,3.8-1.7,5.6
                c-0.2,1.7-0.1,3.5,0.2,5.3c0.8,3.4,2.4,5.7,5,7.1s5.9,1.5,10,0.6c4.2-0.9,7.1-2.5,8.9-4.8s2.3-5.1,1.5-8.5
                c-0.4-1.8-1.1-3.4-2-4.9c-0.9-1.5-2.2-2.9-3.9-4.3l5.4-3.9c1.7,1.1,3.2,2.8,4.4,4.9c1.3,2.1,2.2,4.4,2.7,6.9
                C335.6,1250.2,335.6,1253.7,334.6,1256.9z"/>
            <path class="st10" d="M286.8,1201.2l-1.3-8.2l38.1-6.1l1.3,8.2l-16,2.5l2.8,17.7l16-2.5l1.3,8.2l-38.1,6.1l-1.3-8.2l15.4-2.4
                l-2.8-17.7L286.8,1201.2z"/>
            <path class="st10" d="M319.1,1143l-8.2,4.5l1.7,18l8.9,2.9l0.8,8.5l-40.1-14l-0.6-6.8l36.8-21.3L319.1,1143z M305.9,1163.3
                l-1.2-12.4l-13.8,7.6L305.9,1163.3z"/>
            <path class="st10" d="M278.2,1094l-0.2-6.7l38.6-1.1l0.2,7.5l-21.1,0.6l21.3,8.3l0.2,5.5l-20.6,9.5l20.8-0.6l0.2,7.4l-38.6,1.1
                l-0.2-6.7l28.1-13.3L278.2,1094z"/>
            <path class="st10" d="M278.2,1070.1l0.6-17.5c0.1-4.3,1.3-7.5,3.4-9.8c2.1-2.3,5-3.4,8.5-3.3c3.5,0.1,6.3,1.4,8.3,3.9
                c2,2.5,2.9,5.8,2.8,10l-0.3,9.1l15.6,0.5l-0.3,8.5L278.2,1070.1z M295.3,1054.3c0.2-4.4-1.4-6.7-4.8-6.8c-3.4-0.1-5.1,2-5.3,6.4
                l-0.3,8l10,0.3L295.3,1054.3z"/>
            <path class="st10" d="M318.9,1027.6l-38.5-3l0.7-8.4l38.5,3L318.9,1027.6z"/>
            <path class="st10" d="M319.8,996.3c-2,2.6-4.5,4.5-7.7,5.6c-3.2,1.1-6.7,1.5-10.7,1c-4-0.5-7.3-1.7-10.1-3.6
                c-2.7-1.9-4.7-4.4-6-7.4c-1.2-3-1.6-6.4-1.1-10.2c0.5-3.8,1.7-7,3.6-9.6c2-2.6,4.5-4.5,7.6-5.6c3.1-1.1,6.7-1.5,10.7-1
                c4,0.5,7.4,1.7,10.2,3.6c2.8,1.9,4.8,4.3,6,7.3c1.2,3,1.6,6.4,1.1,10.2S321.8,993.7,319.8,996.3z M314.5,977.9
                c-2-2.1-5.2-3.4-9.4-3.9c-4.2-0.5-7.6,0-10,1.5c-2.5,1.5-3.9,3.9-4.3,7.1c-0.4,3.2,0.4,5.9,2.4,8c2,2.1,5.1,3.4,9.3,3.9
                c4.3,0.5,7.6,0,10.1-1.5c2.5-1.5,3.9-3.9,4.3-7.1S316.5,980,314.5,977.9z"/>
            <path class="st10" d="M294.3,922.4l1.5-7.8l37.9,7.2l-1.2,6.2l-27.8,14.3l24.2,4.6l-1.5,7.8l-37.9-7.2l1.2-6.1l27.7-14.3
                L294.3,922.4z"/>
            <path class="st10" d="M337.6,902.3c-1.4,2.4-3,4.3-4.8,5.7l-5.2-4.1c3.4-3,5.7-6.7,6.8-11.1c0.6-2.4,0.7-4.3,0.2-5.8
                c-0.4-1.5-1.3-2.4-2.7-2.7c-1.2-0.3-2.3,0.1-3.3,1.1c-1,1-2.2,2.9-3.5,5.7c-1.5,3.1-3,5.5-4.4,7.3c-1.5,1.7-3,2.8-4.6,3.4
                c-1.6,0.5-3.4,0.6-5.5,0c-2.2-0.6-4.1-1.7-5.6-3.4c-1.5-1.7-2.4-3.8-2.9-6.3c-0.4-2.5-0.3-5.2,0.5-8.2c0.7-2.7,1.7-5.1,3.1-7.4
                c1.4-2.3,2.9-4,4.6-5.1l5.2,4.1c-3.4,2.7-5.5,6-6.5,9.9c-0.5,2.1-0.5,3.9,0,5.4c0.5,1.5,1.5,2.4,2.9,2.8
                c0.8,0.2,1.6,0.2,2.3-0.2c0.7-0.3,1.4-1,2.1-2c0.7-1,1.6-2.5,2.5-4.5c2.3-4.5,4.5-7.7,6.7-9.4c2.2-1.7,4.8-2.2,7.7-1.5
                c3.5,0.9,5.9,2.9,7.3,6.2s1.4,7.3,0.2,12.2C340.1,897.2,339,899.8,337.6,902.3z"/>
        </g>
        <path class="st10" d="M307.9,1312c-2.2,4.5-2.5,9.5-0.7,14.3c1.3,3.5,3.7,6.4,7,8.4c1.3,0.8,2.7,1.5,4.3,2
            c-0.8,1.4-1.4,2.8-1.9,4.3c-1.1,3.7-1,7.4,0.3,10.9c1.8,4.7,5.3,8.4,10,10.2c4.6,1.8,9.8,1.8,14.8-0.1c5.1-1.9,9.1-5.6,12.4-11.5
            c2.9-5.2,5.4-11.9,8.1-19.6c0.9-2.5,2-5.5,3.2-8.7c0.4-1,0.4-2.2,0-3.2c-0.4-1-1.2-1.9-2.1-2.4c-3-1.6-5.9-3.2-8.2-4.5
            c-7.2-4-13.4-7.4-19.1-9.4c-6.4-2.2-11.8-2.3-16.9-0.4C314,1304.1,310.1,1307.6,307.9,1312z M334.1,1307.9
            c5.2,1.8,11.2,5.1,18.2,9c2.1,1.2,4.7,2.6,7.5,4.1c-1.1,2.9-2,5.6-2.9,8c-2.7,7.5-5,14-7.7,18.8c-2.7,4.8-5.7,7.6-9.6,9.1
            c-3.7,1.4-7.5,1.4-10.8,0.1c-3.2-1.3-5.6-3.8-6.8-7.1c-0.9-2.4-1-4.8-0.2-7.3c0.7-2.3,2-4.1,2.9-5.3c0.7-0.9,0.9-2.1,0.5-3.2
            c-0.4-1.1-1.3-1.8-2.5-2c-1.5-0.3-3.7-0.8-5.7-2.1c-2.2-1.4-3.8-3.3-4.7-5.6c-1.2-3.3-1.1-6.7,0.5-9.8c1.6-3.1,4.5-5.6,8.2-7
            C324.9,1306,328.9,1306.1,334.1,1307.9z"/>
    </g>
    <g class="flywheel-section inactive" id="Regulars-grey">
        <path class="st9" d="M1567.2,1521.8c-6.5,7.1-13.2,14.1-20.1,21c-62.2,62.2-134.7,110.3-215.4,143.1
            c-78,31.6-160.5,47.7-245.1,47.7c-84.6,0-167.1-16-245.1-47.7c-56.9-23.1-109.7-53.8-157.7-91.8L497,1617l-20.3,177.8
            c76.8,66,163,118.5,257.1,156.7c112.4,45.6,231.1,68.7,352.8,68.7c121.7,0,240.4-23.1,352.8-68.7
            c116.4-47.2,220.8-116.5,310.3-206c7.4-7.4,14.6-14.8,21.7-22.4l-182.1-20.8L1567.2,1521.8z"/>
        <g>
            <path class="st10" d="M962.4,1883.9l-8.8-1.6l-2.6-13.5c-0.2-1.1-0.7-1.9-1.4-2.4c-0.7-0.5-1.7-0.9-2.9-1.1l-5.4-1l-2.8,15.3
                l-8.2-1.5l6.8-38l16.9,3c4.4,0.8,7.6,2.4,9.5,4.7c1.9,2.3,2.6,5.3,1.9,8.9c-0.5,2.5-1.5,4.6-3.2,6.2c-1.7,1.6-3.8,2.5-6.4,2.9
                c2.2,0.9,3.5,2.7,4,5.5L962.4,1883.9z M949.9,1859.3c2.4,0.4,4.2,0.3,5.4-0.3c1.2-0.6,2-1.8,2.3-3.5c0.3-1.7,0-3.1-1-4.1
                c-1-1-2.6-1.7-5-2.1l-7.6-1.4l-1.8,9.9L949.9,1859.3z"/>
            <path class="st10" d="M977.3,1886.1l4.7-38.3l26.4,3.3l-0.8,6.5l-18.3-2.2l-1.1,9l17.1,2.1l-0.8,6.6l-17.1-2.1l-1.2,9.7
                l18.3,2.2l-0.8,6.5L977.3,1886.1z"/>
            <path class="st10" d="M1053.2,1871.7l-1.2,18.9c-1.9,0.8-4.2,1.3-6.7,1.7c-2.5,0.3-5.1,0.4-7.8,0.2c-4.1-0.3-7.6-1.3-10.5-3.1
                c-2.9-1.8-5-4.2-6.5-7.3c-1.4-3.1-2-6.7-1.7-10.8c0.3-4,1.3-7.4,3.1-10.3c1.8-2.9,4.2-5,7.3-6.4c3-1.4,6.5-2,10.5-1.7
                c2.8,0.2,5.3,0.7,7.7,1.6c2.3,0.9,4.3,2.1,5.7,3.6l-3.1,5.9c-1.7-1.4-3.4-2.5-5.1-3.2c-1.7-0.7-3.5-1.1-5.5-1.2
                c-7.4-0.5-11.4,3.6-12,12.3c-0.6,8.8,3,13.5,10.8,14c2.1,0.1,4.3,0,6.4-0.4l0.6-8.5l-7.6-0.5l0.4-5.9L1053.2,1871.7z"/>
            <path class="st10" d="M1072.4,1889.9c-2.8-2.8-4.2-6.9-4.2-12.3l0.1-22.7l8.3,0l-0.1,23.1c0,3.1,0.7,5.4,2.1,7
                c1.4,1.6,3.5,2.4,6.1,2.4c2.7,0,4.7-0.8,6.1-2.4c1.4-1.6,2.1-3.9,2.1-7l0.1-23.1l8.4,0l-0.1,22.7c0,5.4-1.5,9.4-4.3,12.2
                s-7,4.2-12.4,4.1C1079.4,1894.1,1075.2,1892.7,1072.4,1889.9z"/>
            <path class="st10" d="M1118.1,1893.2l-2-38.6l8.5-0.4l1.6,31.7l17.2-0.9l0.3,6.9L1118.1,1893.2z"/>
            <path class="st10" d="M1187.4,1887.7l-4.6-8.1l-18,1.9l-2.8,8.9l-8.5,0.9l13.6-40.3l6.8-0.7l21.7,36.5L1187.4,1887.7z
                 M1167,1874.8l12.4-1.3l-7.7-13.7L1167,1874.8z"/>
            <path class="st10" d="M1240.3,1879.5l-8.8,1.5l-7-11.9c-0.6-0.9-1.3-1.5-2.1-1.8c-0.9-0.3-1.9-0.3-3.1-0.1l-5.4,0.9l2.6,15.4
                l-8.2,1.4l-6.4-38.1l17-2.8c4.4-0.7,7.9-0.3,10.5,1.2s4.2,4.1,4.8,7.7c0.4,2.5,0.1,4.8-0.9,6.9c-1,2-2.7,3.7-5.1,4.9
                c2.3,0.1,4.2,1.4,5.6,3.8L1240.3,1879.5z M1220.2,1860.6c2.4-0.4,4.1-1.1,5-2.1c1-1,1.3-2.3,1-4.1s-1.1-2.9-2.3-3.5
                c-1.2-0.6-3.1-0.7-5.4-0.3l-7.6,1.3l1.7,10L1220.2,1860.6z"/>
            <path class="st10" d="M1259.6,1874.8c-2.8-0.2-5.2-0.7-7.3-1.7l1.3-6.5c4.2,1.7,8.6,2.1,13,1.1c2.4-0.5,4.2-1.3,5.3-2.4
                c1.1-1,1.5-2.3,1.2-3.6c-0.3-1.2-1.1-2-2.4-2.4c-1.3-0.4-3.6-0.6-6.7-0.6c-3.5,0.1-6.3-0.1-8.5-0.7c-2.2-0.5-3.9-1.4-5.1-2.6
                c-1.2-1.2-2.1-2.8-2.5-4.9c-0.5-2.3-0.3-4.4,0.5-6.5c0.8-2.1,2.3-3.9,4.3-5.4s4.5-2.6,7.5-3.3c2.7-0.6,5.3-0.8,8-0.6
                c2.6,0.2,4.9,0.8,6.6,1.8l-1.3,6.5c-3.9-1.8-7.8-2.2-11.8-1.3c-2.1,0.5-3.7,1.3-4.8,2.4s-1.5,2.4-1.1,3.9c0.2,0.8,0.6,1.5,1.2,2
                s1.5,0.8,2.7,1c1.2,0.2,2.9,0.3,5.1,0.2c5.1,0,8.9,0.6,11.4,1.8c2.5,1.2,4.1,3.3,4.8,6.2c0.8,3.5,0.1,6.6-2.2,9.3
                c-2.3,2.7-5.9,4.6-10.8,5.7C1265.2,1874.7,1262.4,1875,1259.6,1874.8z"/>
        </g>
        <path class="st10" d="M867.9,1868.2c-0.7,0.1-0.9,0.3-1.6,0.4c-6.2,1.2-13.1-0.1-18.5-3.8c-2.7-1.9-5-4.1-6.7-6.6
            c-1.7-2.5-3.1-5.7-3.7-8.7c-0.7-3.2-0.7-6.6,0.1-9.7c0.2-1.3,0.9-5.8,2-11.4l5.9,8.7c1,1.5,2.7,1.9,4.3,0.8
            c1.5-1,1.9-2.7,0.8-4.3l-10.4-15.3c-1-1.5-2.7-1.9-4.3-0.8l-15.3,10.4c-1.4,0.6-1.8,2.3-0.7,3.8c1,1.5,2.7,1.9,4.3,0.8l9.7-6.6
            c-1.1,6-1.9,10.9-2.4,12.4c-0.8,4.3-0.7,8.3,0.1,12.2c0.5,1.9,1.1,3.7,2,5.7c0.8,1.7,1.7,3.7,2.8,5.2c2.2,3.3,5,6.3,8.3,8.5
            c3.3,2.2,7.2,4,11.3,4.6c0.4,0.1,0.9,0.2,1.1,0c2,0.2,3.9,0.3,5.9,0.5c1.5,0.1,3.2-0.3,4.5-0.5c0.7-0.1,1.4-0.2,2-0.3
            c1.6-0.4,2.6-2.2,2.3-3.8C871.4,1868.8,869.6,1867.8,867.9,1868.2z"/>
        <path class="st10" d="M899.7,1856.3l-9.9,6.7c1.4-6.2,2.1-11.1,2.4-12.4c1-4,0.7-8.3-0.1-12.2c-0.5-1.9-1.2-4-2-5.7
            c-0.8-1.7-1.7-3.7-2.8-5.2c-1-1.5-2.5-3.1-3.8-4.5c-1.5-1.6-3-2.8-4.6-4c-3.3-2.2-7-3.8-11.3-4.6c-0.3,0.2-0.7,0.1-1.1,0
            c-2.1-0.4-4.1-0.6-5.9-0.5c-1.5-0.1-2.9,0.1-4.5,0.5c-0.7,0.1-1.4,0.2-2,0.3c-1.9,0.5-2.6,2.2-2.3,3.8c0.4,1.6,2.2,2.6,3.8,2.3
            c0.7-0.1,0.9-0.3,1.6-0.4c2.7-0.4,5.6-0.5,8.4-0.2c0.4,0.1,0.4,0.1,0.9,0.2c3.2,0.4,6.3,1.7,9.1,3.5c2.6,1.6,5,4.1,6.7,6.6
            c1.7,2.5,2.9,5.4,3.7,8.7c0.5,3,0.6,6.3-0.1,9.7c0,1.1-0.9,5.8-2,11.4l-5.9-8.7c-1-1.5-2.7-1.9-4.3-0.8s-1.9,2.7-0.8,4.3
            l10.4,15.3c1,1.5,2.7,1.9,4.3,0.8l15.3-10.4c1.5-1,2.2-2.2,1.2-3.8C902.9,1855.6,901.2,1855.3,899.7,1856.3z"/>
    </g>
    <g class="flywheel-section inactive" id="Beginners-grey">
        <path class="st9" d="M1727,397.3l-20.6,180.6l-182,22.3c7.7,7,15.3,14.2,22.7,21.7c62.2,62.2,110.3,134.7,143.1,215.4
            c31.6,78,47.7,160.5,47.7,245.1c0,84.6-16,167.1-47.7,245.1c-23.1,56.9-53.8,109.6-91.7,157.6l22.7,185.1l179.3,20.5
            c65.3-76.4,117.4-162.1,155.3-255.5c45.6-112.4,68.7-231.1,68.7-352.8c0-121.7-23.1-240.4-68.7-352.8
            c-47.2-116.4-116.5-220.8-206-310.3C1742.3,411.8,1734.7,404.4,1727,397.3z"/>
        <g>
            <path class="st10" d="M1869.4,964.6c-1.4,1.5-3.3,2.4-5.6,2.8c-3.2,0.5-6-0.2-8.2-2.3c-2.3-2.1-3.8-5.2-4.5-9.3l-3.1-18.1
                l38.1-6.5l3,17.5c0.7,4,0.3,7.2-1,9.8c-1.4,2.6-3.6,4.2-6.7,4.7c-2,0.3-3.8,0.1-5.5-0.7s-3-2.1-4-3.8
                C1871.6,961.2,1870.8,963.1,1869.4,964.6z M1859.4,958.6c0.9,0.9,2.2,1.2,3.9,0.9c1.7-0.3,2.9-1,3.5-2.2
                c0.6-1.2,0.7-2.8,0.3-5.1l-1.5-9l-9.7,1.7l1.5,9C1857.8,956.1,1858.4,957.7,1859.4,958.6z M1872,942.1l1.4,8
                c0.4,2.1,1,3.7,1.9,4.6c0.9,0.9,2.1,1.3,3.7,1c1.6-0.3,2.6-1,3.2-2.2c0.6-1.2,0.7-2.8,0.3-5l-1.4-8L1872,942.1z"/>
            <path class="st10" d="M1855.1,982.1l38.4-4.4l3,26.5l-6.5,0.7l-2.1-18.3l-9.1,1l2,17.1l-6.6,0.8l-2-17.1l-9.7,1.1l2.1,18.3
                l-6.5,0.7L1855.1,982.1z"/>
            <path class="st10" d="M1882.5,1053.3l-18.9,1.1c-1-1.8-1.8-4-2.5-6.5c-0.7-2.5-1.1-5-1.2-7.7c-0.2-4.1,0.4-7.7,1.8-10.8
                c1.4-3.1,3.6-5.5,6.4-7.3c2.9-1.8,6.4-2.8,10.5-3c4-0.2,7.5,0.4,10.6,1.8c3.1,1.4,5.5,3.6,7.2,6.4c1.8,2.9,2.8,6.2,3,10.2
                c0.2,2.8-0.1,5.4-0.7,7.8c-0.6,2.4-1.6,4.5-2.9,6.1l-6.2-2.4c1.2-1.9,2-3.7,2.5-5.4s0.7-3.6,0.5-5.6c-0.4-7.4-5-10.9-13.6-10.4
                c-8.8,0.5-13,4.6-12.6,12.4c0.1,2.1,0.5,4.2,1.2,6.3l8.5-0.5l-0.4-7.6l5.9-0.3L1882.5,1053.3z"/>
            <path class="st10" d="M1861.5,1069l38.6-0.4l0.1,8.5l-38.6,0.4L1861.5,1069z"/>
            <path class="st10" d="M1899.4,1119.3l-0.3,8l-38.6-1.4l0.2-6.3l25.3-18.4l-24.6-0.9l0.3-7.9l38.6,1.4l-0.2,6.2l-25.2,18.4
                L1899.4,1119.3z"/>
            <path class="st10" d="M1895.5,1169.7l-0.8,7.9l-38.4-3.8l0.6-6.3l26.4-16.8l-24.5-2.4l0.8-7.9l38.4,3.8l-0.6,6.2l-26.3,16.8
                L1895.5,1169.7z"/>
            <path class="st10" d="M1854.2,1188.6l38.2,5.9l-4.1,26.3l-6.5-1l2.8-18.2l-9-1.4l-2.7,17l-6.5-1l2.7-17l-9.6-1.5l-2.8,18.2
                l-6.5-1L1854.2,1188.6z"/>
            <path class="st10" d="M1841,1259.4l1.9-8.7l13.6-2.1c1.1-0.2,1.9-0.6,2.5-1.3c0.6-0.7,1-1.7,1.2-2.9l1.2-5.4l-15.2-3.3l1.8-8.2
                l37.7,8.3l-3.7,16.8c-1,4.4-2.6,7.5-5,9.3c-2.4,1.8-5.4,2.4-9,1.6c-2.5-0.6-4.5-1.7-6-3.4c-1.5-1.7-2.4-3.9-2.6-6.5
                c-0.9,2.1-2.8,3.4-5.7,3.8L1841,1259.4z M1866.1,1247.8c-0.5,2.4-0.5,4.2,0.1,5.5c0.6,1.3,1.7,2.1,3.4,2.5
                c1.7,0.4,3.1,0.1,4.1-0.8c1-0.9,1.8-2.6,2.3-4.9l1.7-7.5l-9.9-2.2L1866.1,1247.8z"/>
            <path class="st10" d="M1837.4,1276.8c1.5-2.4,3.1-4.3,4.9-5.6l5.2,4.2c-3.5,2.9-5.8,6.6-7,11c-0.6,2.4-0.8,4.3-0.4,5.8
                c0.4,1.5,1.3,2.4,2.7,2.8c1.2,0.3,2.3,0,3.3-1c1-1,2.2-2.9,3.6-5.6c1.6-3.1,3.1-5.5,4.6-7.2c1.5-1.7,3-2.8,4.7-3.3
                s3.5-0.5,5.5,0.1c2.2,0.6,4.1,1.8,5.5,3.5c1.4,1.7,2.4,3.8,2.8,6.3c0.4,2.5,0.2,5.2-0.6,8.2c-0.7,2.7-1.8,5.1-3.2,7.3
                c-1.4,2.2-3,3.9-4.7,5l-5.2-4.2c3.4-2.6,5.6-5.9,6.7-9.8c0.6-2.1,0.6-3.9,0.1-5.4c-0.5-1.5-1.5-2.4-2.9-2.8
                c-0.8-0.2-1.6-0.2-2.3,0.1c-0.7,0.3-1.4,1-2.1,2c-0.7,1-1.6,2.5-2.6,4.4c-2.3,4.5-4.6,7.6-6.9,9.2s-4.8,2.1-7.7,1.3
                c-3.5-0.9-5.9-3.1-7.2-6.3c-1.3-3.3-1.3-7.3,0-12.2C1834.8,1281.8,1835.9,1279.2,1837.4,1276.8z"/>
        </g>
        <g>
            <path class="st10" d="M1897.1,866.1c-3.1-13.1-16.3-21.3-29.4-18.2c-6.9,1.6-12.7,6.1-16,12.2c-1.9,3.1-10.2,5.3-11.9,5.7
                l-0.7,0.1c-0.9,0.2-1.5,0.6-1.9,1.3c-0.4,0.6-0.5,1.5-0.4,2.2l4.8,20.4c0.2,0.8,0.7,1.4,1.3,1.8c0.7,0.4,1.5,0.5,2.4,0.3
                c2.6-0.7,10.9-2.2,13.7-0.4l0.3,0.2c5.8,3.9,12.9,5.3,19.5,3.7C1892.1,892.5,1900.2,879.3,1897.1,866.1z M1862.6,886.8l-0.1-0.1
                c-0.1-0.1-0.4-0.2-0.6-0.3c-3.8-2.1-11.7-1.1-14.9-0.6l-3.5-14.8c3.3-1.1,11-3.9,13.6-7.9c2.5-4.8,6.9-8.2,12.1-9.4
                c9.9-2.3,19.9,3.8,22.3,13.8c2.3,9.9-3.8,19.9-13.8,22.3C1872.4,890.9,1866.9,889.8,1862.6,886.8z"/>
            <path class="st10" d="M1829.5,892.6l-4.7-19.8c-0.4-1.8,0.7-3.6,2.5-4l0,0c1.8-0.4,3.6,0.7,4,2.5l4.7,19.8
                c0.4,1.8-0.7,3.6-2.5,4l0,0C1831.7,895.5,1829.9,894.4,1829.5,892.6z"/>
        </g>
    </g>
    <g class="flywheel-section inactive" id="Evaluators-grey">
        <path class="st9" d="M1439.4,213.2c-112.4-45.6-231.1-68.7-352.8-68.7c-121.7,0-240.4,23.1-352.8,68.7
            c-116.4,47.2-220.8,116.5-310.3,206c-7,7-13.8,14-20.5,21.2l179,20.4l22.5,183.7c7-7.7,14.2-15.2,21.6-22.6
            c62.2-62.2,134.7-110.3,215.4-143.1c78-31.6,160.5-47.7,245.1-47.7c84.6,0,167.1,16,245.1,47.7c56.1,22.8,108.2,53,155.7,90.2
            l186.9-22.9l20.3-177.8C1618.3,303.1,1532.7,251.1,1439.4,213.2z"/>
        <g>
            <path class="st10" d="M889.8,336.5l-9.4-37.5l25.8-6.5l1.6,6.4l-17.8,4.5l2.2,8.8l16.7-4.2l1.6,6.4l-16.7,4.2l2.4,9.5l17.8-4.5
                l1.6,6.4L889.8,336.5z"/>
            <path class="st10" d="M949,283.9l8.4-1.6l-9.8,41.2l-6.7,1.3l-24.3-34.7l8.6-1.6l17.1,25.3L949,283.9z"/>
            <path class="st10" d="M1000.1,315.5l-4.8-8l-17.9,2.4l-2.5,9l-8.4,1.1l12.5-40.6l6.8-0.9l22.7,36L1000.1,315.5z M979.4,303
                l12.4-1.6l-8.1-13.5L979.4,303z"/>
            <path class="st10" d="M1018.7,313.6l-2.9-38.5l8.4-0.6l2.4,31.6l17.2-1.3l0.5,6.9L1018.7,313.6z"/>
            <path class="st10" d="M1058.9,307.3c-2.9-2.7-4.4-6.8-4.5-12.2l-0.5-22.7l8.3-0.2l0.5,23c0.1,3.1,0.8,5.4,2.3,7
                c1.5,1.6,3.5,2.3,6.2,2.3c2.7-0.1,4.7-0.9,6.1-2.5c1.4-1.6,2-4,2-7.1l-0.5-23l8.4-0.2l0.5,22.7c0.1,5.4-1.2,9.5-4,12.3
                c-2.8,2.9-6.9,4.4-12.2,4.5C1065.9,311.3,1061.8,310,1058.9,307.3z"/>
            <path class="st10" d="M1131.6,311.6l-3.3-8.7l-18-0.7l-4,8.4l-8.5-0.3l19.2-37.9l6.8,0.3l16.2,39.3L1131.6,311.6z M1113.3,295.8
                l12.5,0.5l-5.7-14.7L1113.3,295.8z"/>
            <path class="st10" d="M1154.3,313.3l2.9-31.6l-12-1.1l0.6-6.9l32.6,3l-0.6,6.9l-12-1.1l-2.9,31.6L1154.3,313.3z"/>
            <path class="st10" d="M1192.2,315.5c-2.6-2-4.4-4.6-5.5-7.8c-1.1-3.2-1.3-6.8-0.8-10.7c0.6-4,1.9-7.3,3.8-10
                c2-2.7,4.4-4.7,7.5-5.8c3-1.2,6.5-1.5,10.3-0.9c3.8,0.6,7,1.8,9.5,3.8c2.6,2,4.4,4.6,5.4,7.7c1.1,3.2,1.3,6.7,0.7,10.7
                c-0.6,4-1.8,7.3-3.8,10.1c-1.9,2.8-4.4,4.7-7.4,5.9c-3,1.2-6.4,1.5-10.2,0.9C1197.9,318.7,1194.7,317.5,1192.2,315.5z
                 M1210.7,310.5c2.1-2,3.5-5.1,4.1-9.3c0.6-4.2,0.2-7.6-1.3-10.1c-1.5-2.5-3.8-4-7.1-4.4c-3.2-0.5-5.9,0.3-8,2.2s-3.5,5-4.1,9.3
                c-0.6,4.3-0.2,7.6,1.3,10.1c1.5,2.5,3.8,4,7,4.5C1205.9,313.2,1208.6,312.5,1210.7,310.5z"/>
            <path class="st10" d="M1265.6,330.7l-8.8-1.8l-2.2-13.6c-0.2-1.1-0.6-1.9-1.3-2.4c-0.7-0.6-1.7-1-2.9-1.2l-5.4-1.1l-3.2,15.2
                l-8.2-1.7l7.9-37.8l16.8,3.5c4.4,0.9,7.5,2.6,9.4,5c1.9,2.4,2.4,5.4,1.7,8.9c-0.5,2.5-1.6,4.5-3.4,6.1c-1.7,1.5-3.9,2.4-6.5,2.7
                c2.1,0.9,3.4,2.8,3.9,5.6L1265.6,330.7z M1253.9,305.8c2.4,0.5,4.2,0.5,5.5-0.1c1.3-0.6,2.1-1.7,2.4-3.4s0.1-3.1-0.9-4.1
                c-0.9-1-2.6-1.8-5-2.3l-7.5-1.6l-2.1,9.9L1253.9,305.8z"/>
            <path class="st10" d="M1282.9,334.4c-2.4-1.5-4.3-3.1-5.6-4.9l4.2-5.2c2.9,3.5,6.6,5.8,11,7c2.4,0.6,4.3,0.8,5.8,0.4
                c1.5-0.4,2.4-1.3,2.8-2.7c0.3-1.2,0-2.3-1-3.3c-1-1-2.9-2.2-5.6-3.6c-3.1-1.5-5.5-3.1-7.2-4.5c-1.7-1.5-2.8-3-3.3-4.7
                c-0.5-1.6-0.5-3.5,0.1-5.5c0.6-2.2,1.8-4.1,3.5-5.5c1.7-1.4,3.8-2.4,6.3-2.8c2.5-0.4,5.2-0.2,8.2,0.6c2.7,0.7,5.1,1.8,7.3,3.2
                c2.2,1.4,3.9,3,5,4.7l-4.2,5.2c-2.6-3.4-5.9-5.6-9.8-6.7c-2.1-0.6-3.9-0.6-5.4-0.1c-1.5,0.5-2.4,1.5-2.8,2.9
                c-0.2,0.8-0.2,1.6,0.1,2.3c0.3,0.7,1,1.4,2,2.1c1,0.7,2.5,1.6,4.4,2.6c4.5,2.3,7.6,4.6,9.2,6.9c1.7,2.2,2.1,4.8,1.3,7.7
                c-0.9,3.5-3,5.9-6.3,7.2c-3.3,1.3-7.3,1.3-12.2,0C1287.9,337,1285.3,335.9,1282.9,334.4z"/>
        </g>
        <path class="st10" d="M843.4,339.8c3-4.6,4.5-10.4,4-15.7c-1.2-13.7-13.3-23.9-27-22.8c-13.7,1.2-23.9,13.3-22.8,27
            c1.2,13.7,13.3,23.9,27,22.8c5.8-0.5,11-2.8,14.8-6.6l13.7,11.6c0.7,0.6,1.6,0.8,2.2,0.7c0.1,0,0.1,0,0.2,0
            c0.6-0.1,1.3-0.5,1.8-1.1c0.5-0.6,0.8-1.4,0.7-2.2s-0.5-1.5-1.1-2.1L843.4,339.8z M837,338.4c-3.2,3.8-7.8,6.2-12.8,6.6
            c-5.1,0.4-9.9-1.1-13.8-4.3c-3.8-3.2-6.2-7.8-6.6-12.8c-0.4-5.1,1.1-9.9,4.3-13.8c2.8-3.3,6.6-5.5,10.9-6.3
            c0.6-0.1,1.3-0.2,2-0.3c10.5-0.9,19.5,6.6,20.4,17.2C841.8,329.7,840.3,334.6,837,338.4z"/>
    </g>
    <g class="flywheel-section inactive" id="Adore-grey">
        <path class="st9" d="M705.2,1985.7c-116.3-49.2-220.8-119.7-310.6-209.4c-89.7-89.7-160.2-194.2-209.4-310.6
            c-46.3-109.4-71.8-224.9-76.1-344l-53.4-44l-55.2,44.9c4.5,133.4,32.9,262.8,84.7,385.3c27.2,64.3,60.9,126.4,100.1,184.4
            c38.8,57.5,83.4,111.5,132.5,160.6c49.1,49.1,103.1,93.7,160.6,132.5c58,39.2,120.1,72.9,184.4,100.1
            c131.3,55.5,270.6,84.2,414.1,85.3l-43-52.8l45.9-55.8C950,2061.8,824,2036,705.2,1985.7z"/>
        <g>
            <path class="st10" d="M319.3,1800.4l3.5-7.8l-11.2-12.3l-8.1,2.8l-5.3-5.8l37.3-12l4.3,4.6l-15.2,36.1L319.3,1800.4z
                 M317.7,1778.1l7.8,8.5l6-13.3L317.7,1778.1z"/>
            <path class="st10" d="M357.5,1789l9.7,9.7c2.8,2.8,4.6,5.6,5.6,8.6c1,3,1.1,5.9,0.2,8.9c-0.8,2.9-2.6,5.7-5.2,8.3
                c-2.6,2.6-5.4,4.4-8.3,5.2c-2.9,0.8-5.9,0.8-8.9-0.2c-3-1-5.9-2.9-8.6-5.6l-9.7-9.7L357.5,1789z M346.2,1819.1
                c5.4,5.4,10.8,5.3,16.2-0.1c5.4-5.4,5.4-10.8,0-16.2l-3.9-3.9l-16.3,16.3L346.2,1819.1z"/>
            <path class="st10" d="M372.2,1850.6c-0.9-2.9-1-5.8-0.2-8.8c0.8-3,2.5-5.9,5-8.6c2.5-2.7,5.2-4.6,8.1-5.7
                c2.9-1.1,5.8-1.3,8.7-0.6c2.9,0.7,5.7,2.2,8.3,4.6c2.6,2.4,4.4,5,5.3,7.8c0.9,2.8,1,5.8,0.2,8.7c-0.8,3-2.5,5.8-5,8.5
                c-2.5,2.7-5.2,4.6-8.1,5.7c-2.9,1.1-5.8,1.3-8.7,0.7c-2.9-0.7-5.7-2.2-8.3-4.6C374.9,1856.1,373.1,1853.4,372.2,1850.6z
                 M388.9,1856.4c2.7-0.4,5.3-2.1,8-5c2.7-2.9,4.1-5.7,4.2-8.3c0.1-2.7-0.9-5-3.1-7c-2.2-2-4.6-2.8-7.3-2.4
                c-2.6,0.4-5.3,2-7.9,4.9c-2.7,2.9-4.1,5.7-4.3,8.4c-0.2,2.7,0.9,5,3.1,7C383.8,1856,386.3,1856.8,388.9,1856.4z"/>
            <path class="st10" d="M424.5,1898.5l-6.3-5.3l4.1-12c0.3-1,0.3-1.8,0-2.6c-0.3-0.8-0.9-1.5-1.8-2.2l-3.9-3.2l-9.2,11l-5.9-4.9
                l22.8-27.3l12.2,10.2c3.2,2.7,5,5.3,5.5,8.1c0.5,2.7-0.4,5.4-2.5,8c-1.5,1.8-3.3,3-5.3,3.5c-2,0.5-4.2,0.3-6.5-0.6
                c1.3,1.7,1.6,3.8,0.7,6.3L424.5,1898.5z M425.8,1873.1c1.7,1.4,3.2,2.2,4.5,2.3c1.3,0.1,2.4-0.5,3.4-1.7c1-1.2,1.4-2.5,1.1-3.7
                c-0.3-1.2-1.3-2.6-3-4l-5.4-4.6l-6,7.1L425.8,1873.1z"/>
            <path class="st10" d="M435.1,1906.9l21.7-28.2l19.4,15l-3.7,4.8l-13.4-10.4l-5.1,6.7l12.6,9.7l-3.7,4.8l-12.6-9.7l-5.5,7.1
                l13.4,10.4l-3.7,4.8L435.1,1906.9z"/>
        </g>
    </g>
    <g class="flywheel-section inactive" id="Adopt-grey">
        <path class="st9" d="M2113.8,1133l-51.4-42.3c-0.7,130.1-26.5,256.2-76.7,375.1c-49.2,116.3-119.7,220.8-209.4,310.6
            c-89.7,89.7-194.2,160.2-310.6,209.4c-109.3,46.2-224.8,71.8-343.9,76.1l-46.5,56.5l42.6,52.2c135-3.9,266.1-32.4,390.1-84.8
            c64.3-27.2,126.4-60.9,184.4-100.1c57.5-38.8,111.5-83.4,160.6-132.5c49.1-49.1,93.7-103.1,132.5-160.6
            c39.2-58,72.9-120.1,100.1-184.4c56.5-133.6,85.2-275.5,85.3-421.7L2113.8,1133z"/>
        <g>
            <path class="st10" d="M1802.8,1850.8l-7.8-3.5l-12.3,11.2l2.8,8.1l-5.8,5.3l-12-37.3l4.7-4.3l36.1,15.2L1802.8,1850.8z
                 M1780.6,1852.3l8.5-7.8l-13.3-6L1780.6,1852.3z"/>
            <path class="st10" d="M1791.5,1812.5l9.7-9.7c2.8-2.8,5.6-4.6,8.6-5.6c3-1,5.9-1.1,8.9-0.2s5.7,2.6,8.3,5.2
                c2.6,2.6,4.4,5.4,5.2,8.3c0.8,2.9,0.8,5.9-0.2,8.9s-2.9,5.9-5.6,8.6l-9.7,9.7L1791.5,1812.5z M1821.6,1823.8
                c5.4-5.4,5.3-10.8-0.1-16.2c-5.4-5.4-10.8-5.4-16.2,0l-3.9,3.9l16.3,16.3L1821.6,1823.8z"/>
            <path class="st10" d="M1853,1797.8c-2.9,0.9-5.8,1-8.8,0.2s-5.9-2.5-8.6-5s-4.6-5.2-5.7-8.1c-1.1-2.9-1.3-5.8-0.6-8.7
                c0.7-2.9,2.2-5.7,4.6-8.3c2.4-2.6,5-4.4,7.8-5.3c2.8-0.9,5.8-1,8.7-0.2c3,0.8,5.8,2.5,8.5,5c2.7,2.5,4.6,5.2,5.7,8.1
                c1.1,2.9,1.3,5.8,0.7,8.7s-2.2,5.7-4.6,8.3C1858.5,1795.1,1855.9,1796.9,1853,1797.8z M1858.8,1781.1c-0.4-2.7-2.1-5.3-5-8
                c-2.9-2.7-5.7-4.1-8.3-4.2c-2.7-0.2-5,0.9-7,3.1c-2,2.2-2.8,4.6-2.4,7.3c0.4,2.6,2,5.3,4.9,7.9c2.9,2.7,5.7,4.1,8.4,4.3
                c2.7,0.2,5-0.9,7-3.1C1858.4,1786.2,1859.2,1783.8,1858.8,1781.1z"/>
            <path class="st10" d="M1854.3,1745.7l10.4-12.4c2.5-3,5.2-4.8,8.1-5.2c2.9-0.5,5.5,0.4,8,2.5c2.5,2.1,3.7,4.6,3.8,7.5
                c0.1,2.9-1.2,5.9-3.7,8.9l-5.4,6.4l11,9.2l-5,6L1854.3,1745.7z M1875.8,1743.9c2.6-3.1,2.7-5.7,0.4-7.6c-2.4-2-4.9-1.4-7.5,1.7
                l-4.7,5.6l7.1,5.9L1875.8,1743.9z"/>
            <path class="st10" d="M1912.8,1730.3l-23.1-17.9l-6.8,8.8l-5-3.9l18.5-23.9l5,3.9l-6.8,8.8l23.1,17.9L1912.8,1730.3z"/>
        </g>
    </g>
    <g class="flywheel-section inactive" id="Advocate-grey">
        <g>
            <path class="st9" d="M1089.3,55.2l-44.3-54.4C912.7,5.6,784.4,33.9,663,85.3c-64.3,27.2-126.4,60.9-184.4,100.1
                c-57.5,38.8-111.5,83.4-160.6,132.5s-93.7,103.1-132.5,160.6c-39.2,58-72.9,120.1-100.1,184.4C29.1,795.8,0.5,936.7,0,1082
                l55.9-45.5l52.7,43.4c0.7-129.9,26.5-255.9,76.7-374.6c49.2-116.3,119.7-220.8,209.4-310.6s194.2-160.2,310.6-209.4
                c107.9-45.7,221.9-71.1,339.4-75.9L1089.3,55.2z"/>
        </g>
        <g>
            <path class="st10" d="M216.8,561.7l-8.5-1.1l-8.4,14.4l5.1,6.9l-4,6.8l-22.5-32.1l3.2-5.4l39,3.9L216.8,561.7z M196.1,569.8
                l5.8-9.9l-14.4-1.8L196.1,569.8z"/>
            <path class="st10" d="M196,527.5l7.5-11.5c2.1-3.3,4.5-5.7,7.2-7.3c2.7-1.6,5.6-2.3,8.6-2.1c3,0.2,6.1,1.3,9.2,3.3
                c3.1,2,5.4,4.4,6.9,7.1s2,5.6,1.7,8.7c-0.3,3.1-1.6,6.3-3.7,9.6l-7.5,11.5L196,527.5z M227.8,532.3c4.1-6.4,3-11.7-3.5-15.8
                c-6.4-4.1-11.7-3-15.8,3.4l-3,4.6l19.3,12.5L227.8,532.3z"/>
            <path class="st10" d="M236.2,467.9l4.5-6.4l19.8,33.6l-3.6,5.1l-38.3-7.5l4.7-6.6l27.5,5.9L236.2,467.9z"/>
            <path class="st10" d="M277.9,468.6c-2.8,1.2-5.7,1.4-8.7,0.9c-3.1-0.6-6-2-9-4.3c-2.9-2.3-5-4.8-6.3-7.6
                c-1.3-2.8-1.7-5.7-1.3-8.7c0.4-3,1.7-5.9,3.9-8.7c2.2-2.8,4.6-4.8,7.4-5.9c2.8-1.1,5.7-1.4,8.7-0.9s6,2,8.9,4.3
                c2.9,2.3,5,4.8,6.4,7.6c1.3,2.8,1.8,5.7,1.4,8.6c-0.4,3-1.7,5.8-3.9,8.6C283.2,465.5,280.7,467.4,277.9,468.6z M282.3,451.4
                c-0.6-2.6-2.5-5.1-5.6-7.5c-3.1-2.4-6-3.6-8.7-3.5c-2.7,0.1-4.9,1.3-6.8,3.6c-1.8,2.4-2.5,4.9-1.9,7.4c0.6,2.6,2.5,5.1,5.6,7.5
                c3.1,2.4,6,3.6,8.7,3.6c2.7-0.1,4.9-1.3,6.8-3.6S283,454.1,282.3,451.4z"/>
            <path class="st10" d="M307.1,432.1c-2.9,1.1-5.9,1.3-8.9,0.6c-3-0.7-5.9-2.2-8.7-4.6c-2.8-2.4-4.7-5-5.9-7.8
                c-1.2-2.9-1.5-5.8-0.9-8.8s2.1-5.9,4.4-8.6c1.5-1.8,3.3-3.3,5.2-4.5c1.9-1.2,3.8-1.9,5.7-2.1l2.7,5.5c-2,0.4-3.6,1.1-5,1.9
                c-1.4,0.8-2.6,1.8-3.7,3.1c-2.1,2.4-2.9,5-2.4,7.6c0.5,2.6,2.2,5.2,5.1,7.7c3,2.5,5.8,3.8,8.5,3.9c2.7,0,5-1.2,7.1-3.6
                c1.1-1.3,1.9-2.7,2.5-4.2c0.6-1.5,0.9-3.3,1-5.3l5.9,1.8c0.1,1.9-0.3,3.9-1.1,6c-0.8,2.1-2,4.1-3.6,5.9
                C312.6,429.1,310,431,307.1,432.1z"/>
            <path class="st10" d="M348.6,388.1l-8.1-2.9l-11.3,12.2l3.5,7.9l-5.3,5.8L312.3,375l4.3-4.6l37.2,12.1L348.6,388.1z
                 M326.5,391.6l7.8-8.4l-13.7-4.8L326.5,391.6z"/>
            <path class="st10" d="M363.4,372.8l-20.8-20.6l-7.9,7.9l-4.5-4.5l21.3-21.4l4.5,4.5l-7.9,7.9l20.8,20.6L363.4,372.8z"/>
            <path class="st10" d="M384.8,351.7l-24.3-26l17.9-16.8l4.1,4.4l-12.4,11.6l5.7,6.1l11.6-10.9l4.2,4.5L380,335.5l6.1,6.6
                l12.4-11.6l4.1,4.4L384.8,351.7z"/>
        </g>
    </g>
    <g class="flywheel-section inactive" id="Activate-grey">
        <path class="st9" d="M2085.7,663c-27.2-64.3-60.9-126.4-100.1-184.4c-38.8-57.5-83.4-111.5-132.5-160.6
            c-49.1-49.1-103.1-93.7-160.6-132.5c-58-39.2-120.1-72.9-184.4-100.1C1374.2,28.7,1232.1,0,1085.6,0l45,55.3l-43.9,53.3
            c131.5,0.2,259,26,379,76.7c116.3,49.2,220.8,119.7,310.6,209.4c89.7,89.7,160.2,194.2,209.4,310.6
            c46.2,109.2,71.7,224.6,76.1,343.5l52.1,42.9l56.4-45.9C2165.6,913.3,2137.2,784.7,2085.7,663z"/>
        <g>
            <path class="st10" d="M1668.6,253.6l1.7-8.4l-13.7-9.4l-7.3,4.6l-6.5-4.4l33.6-20.1l5.2,3.6L1675,258L1668.6,253.6z M1662,232.4
                l9.5,6.5l2.8-14.3L1662,232.4z"/>
            <path class="st10" d="M1689,266.1c-1.2-2.8-1.6-5.8-1.1-8.8c0.5-3.1,1.8-6.1,4-9c2.2-2.9,4.7-5,7.5-6.4c2.8-1.3,5.7-1.8,8.8-1.4
                c3,0.4,6,1.7,8.9,3.8c1.9,1.4,3.5,3.1,4.8,4.9c1.3,1.9,2.1,3.7,2.4,5.6l-5.3,3c-0.6-1.9-1.3-3.6-2.2-4.9c-0.9-1.3-2-2.5-3.3-3.5
                c-2.6-1.9-5.1-2.6-7.7-2s-5,2.5-7.4,5.6c-2.4,3.2-3.5,6.1-3.3,8.7c0.1,2.7,1.5,4.9,4,6.9c1.3,1,2.8,1.7,4.3,2.2
                c1.5,0.5,3.3,0.7,5.3,0.7l-1.4,6c-1.9,0.2-3.9,0-6-0.7c-2.2-0.7-4.2-1.8-6.1-3.2C1692.3,271.4,1690.2,268.9,1689,266.1z"/>
            <path class="st10" d="M1720.8,292.9l18.4-22.7l-8.7-7l4-4.9l23.5,19l-4,4.9l-8.7-7l-18.4,22.7L1720.8,292.9z"/>
            <path class="st10" d="M1744,312.1l23.2-27l5.9,5.1l-23.2,27L1744,312.1z"/>
            <path class="st10" d="M1803.8,317.9l5.8,5.3l-35.9,15.4l-4.6-4.2l12.3-37l6,5.5l-9.3,26.5L1803.8,317.9z"/>
            <path class="st10" d="M1809.2,372.9l3.2-8l-11.8-11.7l-8,3.2l-5.6-5.5l36.7-13.7l4.5,4.4l-13.5,36.8L1809.2,372.9z
                 M1806.6,350.7l8.2,8.1l5.3-13.5L1806.6,350.7z"/>
            <path class="st10" d="M1823.9,388.2l21.4-20l-7.6-8.1l4.6-4.3l20.6,22.1l-4.6,4.3l-7.6-8.1l-21.4,20L1823.9,388.2z"/>
            <path class="st10" d="M1844.2,410.4l26.9-23.3l16.1,18.5l-4.6,4l-11.1-12.8l-6.3,5.5l10.4,12l-4.6,4l-10.4-12l-6.8,5.9
                l11.1,12.8l-4.6,4L1844.2,410.4z"/>
        </g>
    </g>
</svg>