<?xml version="1.0" encoding="utf-8"?>
<!-- Generator: Adobe Illustrator 22.1.0, SVG Export Plug-In . SVG Version: 6.00 Build 0)  -->
<svg version="1.1" id="Layer_1" xmlns="http://www.w3.org/2000/svg" xmlns:xlink="http://www.w3.org/1999/xlink" x="0px" y="0px"
	 viewBox="0 0 17 17" enable-background="new 0 0 17 17" xml:space="preserve">
<path fill="#C0C6D9" d="M8.4,0.2c-4.5,0-8.2,3.7-8.2,8.2c0,4.5,3.7,8.2,8.2,8.2s8.2-3.7,8.2-8.2C16.7,3.9,13,0.2,8.4,0.2z M8.4,15.5
	c-3.9,0-7.1-3.2-7.1-7.1c0-3.9,3.2-7.1,7.1-7.1s7.1,3.2,7.1,7.1C15.5,12.4,12.3,15.5,8.4,15.5z"/>
<path fill="#C0C6D9" d="M10.8,8.3H8.6V4.9c0-0.3-0.3-0.6-0.6-0.6S7.5,4.6,7.5,4.9v4c0,0.3,0.3,0.6,0.6,0.6h2.7
	c0.3,0,0.6-0.3,0.6-0.6C11.4,8.5,11.1,8.3,10.8,8.3z"/>
</svg>
