<?xml version="1.0" encoding="utf-8"?>
<!-- Generator: Adobe Illustrator 22.1.0, SVG Export Plug-In . SVG Version: 6.00 Build 0)  -->
<svg version="1.1" id="Layer_1" xmlns="http://www.w3.org/2000/svg" xmlns:xlink="http://www.w3.org/1999/xlink" x="0px" y="0px"
	 viewBox="0 0 30.2 30.2" enable-background="new 0 0 30.2 30.2" xml:space="preserve">
<g>
	<path fill="#FFFFFF" d="M25.5,29.3H5.2c-1.5,0-2.7-1.2-2.7-2.7V6.1c0-1.5,1.2-2.7,2.7-2.7h20.3c1.5,0,2.7,1.2,2.7,2.7v20.5
		C28.2,28.1,27,29.3,25.5,29.3z M5.2,5.4c-0.4,0-0.7,0.3-0.7,0.7v20.5c0,0.4,0.3,0.7,0.7,0.7h20.3c0.4,0,0.7-0.3,0.7-0.7V6.1
		c0-0.4-0.3-0.7-0.7-0.7H5.2z"/>
</g>
<g>
	<rect x="7" y="1.1" fill="#FFFFFF" width="2" height="3.4"/>
</g>
<g>
	<rect x="22.1" y="1.2" fill="#FFFFFF" width="2" height="3.5"/>
</g>
<g>
	<rect x="9" y="11.8" fill="#FFFFFF" width="4.6" height="4.6"/>
</g>
<g>
	<rect x="17.9" y="11.8" fill="#FFFFFF" width="4.6" height="4.6"/>
</g>
<g>
	<rect x="9" y="18.9" fill="#FFFFFF" width="4.6" height="4.6"/>
</g>
<g>
	<rect x="17.9" y="18.9" fill="#FFFFFF" width="4.6" height="4.6"/>
</g>
<g>
	<rect x="3.7" y="4.7" fill="#FFFFFF" width="23.1" height="3.9"/>
</g>
</svg>
