<?xml version="1.0" encoding="utf-8"?>
<!-- Generator: Adobe Illustrator 22.1.0, SVG Export Plug-In . SVG Version: 6.00 Build 0)  -->
<svg version="1.1" id="Layer_1" xmlns="http://www.w3.org/2000/svg" xmlns:xlink="http://www.w3.org/1999/xlink" x="0px" y="0px"
	 viewBox="0 0 30.2 30.2" enable-background="new 0 0 30.2 30.2" xml:space="preserve">
<path fill="#FFFFFF" d="M24,12.2C23.6,11.5,22.9,11,22,11l-4.8,0l1.6-8.2c0.2-1-0.3-2-1.3-2.4c-0.9-0.4-2-0.2-2.7,0.6L4.2,14.5
	c-0.5,0.7-0.6,1.6-0.3,2.3c0.4,0.8,1.1,1.3,2,1.3l5.5,0l-1.6,9.3c-0.2,1,0.4,2,1.3,2.4c0.3,0.1,0.5,0.2,0.8,0.2c0.7,0,1.4-0.4,1.8-1
	l10.1-14.6C24.3,13.8,24.4,12.9,24,12.2z M14.3,15.7l-7.8,0l9.7-12.2l-1.9,10l7.2,0l-9.1,13.1L14.3,15.7z"/>
</svg>
