<?xml version="1.0" encoding="utf-8"?>
<!-- Generator: Adobe Illustrator 22.1.0, SVG Export Plug-In . SVG Version: 6.00 Build 0)  -->
<svg version="1.1" id="Layer_1" xmlns="http://www.w3.org/2000/svg" xmlns:xlink="http://www.w3.org/1999/xlink" x="0px" y="0px"
	 viewBox="0 0 30.2 30.2" enable-background="new 0 0 30.2 30.2" xml:space="preserve">
<g>
	<path fill="#FFFFFF" d="M16.2,28.5c-0.3,0-0.6,0-0.9,0c-2.2-0.1-4.3-0.8-6.1-1.9c-3.9,2.4-8.1,0.2-8.3,0.1c-0.4-0.2-0.6-0.6-0.5-1
		c0.1-0.4,0.4-0.7,0.7-0.8c2.7-0.6,3.5-1.9,3.8-2.5C3.3,20,2.5,17,2.7,14.1C3.2,6.7,9.7,1,17.1,1.5C24.6,2,30.2,8.4,29.7,15.9
		C29.3,23,23.3,28.5,16.2,28.5z M9.2,24.5c0.2,0,0.4,0.1,0.5,0.2c1.7,1.1,3.7,1.8,5.7,2c6.4,0.4,11.9-4.4,12.3-10.8
		C28.2,9.4,23.4,3.8,17,3.4C10.6,3,5.1,7.8,4.6,14.2c-0.2,2.7,0.5,5.3,2.1,7.4c0.2,0.3,0.2,0.6,0.1,0.8c-0.1,0.5-0.6,2-2.5,3.2
		c1.3,0.2,2.9,0,4.3-1C8.8,24.5,9,24.5,9.2,24.5z M1.3,25.8L1.3,25.8L1.3,25.8z"/>
</g>
<g>
	<g>
		<g>
			<path fill="#FFFFFF" d="M21.3,23.1"/>
		</g>
	</g>
	<g>
		<path fill="#FFFFFF" d="M17.7,15.2c0,0.7-0.6,1.3-1.3,1.3c-0.7,0-1.3-0.6-1.3-1.3c0-0.7,0.6-1.3,1.3-1.3
			C17.1,13.9,17.7,14.5,17.7,15.2L17.7,15.2z M17.7,15.2"/>
	</g>
	<g>
		<path fill="#FFFFFF" d="M23,15.2c0,0.7-0.6,1.3-1.3,1.3c-0.7,0-1.3-0.6-1.3-1.3c0-0.7,0.6-1.3,1.3-1.3C22.4,13.9,23,14.5,23,15.2
			L23,15.2z M23,15.2"/>
	</g>
	<g>
		<path fill="#FFFFFF" d="M12.3,15.2c0,0.7-0.6,1.3-1.3,1.3c-0.7,0-1.3-0.6-1.3-1.3c0-0.7,0.6-1.3,1.3-1.3
			C11.7,13.9,12.3,14.5,12.3,15.2L12.3,15.2z M12.3,15.2"/>
	</g>
</g>
</svg>
