<?xml version="1.0" encoding="utf-8"?>
<!-- Generator: Adobe Illustrator 22.1.0, SVG Export Plug-In . SVG Version: 6.00 Build 0)  -->
<svg version="1.1" id="Layer_1" xmlns="http://www.w3.org/2000/svg" xmlns:xlink="http://www.w3.org/1999/xlink" x="0px" y="0px"
	 viewBox="0 0 2880 1101.6" enable-background="new 0 0 2880 1101.6" xml:space="preserve">
<path fill="#14203F" d="M2880,1101.6V0c-101.9,12.9-186.3,81.8-221.4,174.9c-30.7-17.7-66.4-27.8-104.4-27.8
	c-115.8,0-209.7,93.9-209.7,209.7c0,5.7,0.2,11.3,0.7,16.9c-23.6-10.5-49.7-16.4-77.3-16.4c-78.2,0-145.3,47.2-174.5,114.7
	c-12.7-4.9-26.4-7.5-40.8-7.5c-14.9,0-29.1,2.8-42.1,8c-30-45.5-81.6-75.5-140.2-75.5c-53.1,0-100.4,24.6-131.1,63.1
	c-20.3-86.6-98-151.2-190.8-151.2c-50.4,0-96.3,19-131.1,50.3c-10.9-10.8-25.9-17.4-42.5-17.4c-20,0-37.8,9.7-48.8,24.7
	c-32.4-23.7-72.4-37.8-115.6-37.8c-70.4,0-132.2,37.2-166.7,93c-46.8-83.7-136.3-140.3-239-140.3c-67.7,0-129.6,24.6-177.4,65.3
	c-12.3-14.2-30.4-23.2-50.6-23.2c-17.8,0-33.9,6.9-45.9,18.2c-34.2-41.1-80.1-72.1-132.7-87.6c-11.9-85.6-85.4-151.6-174.3-151.6
	c-40.4,0-77.6,13.6-107.4,36.5C82.6,115.6,42.9,99.7,0,93.7v1007.9H2880z"/>
</svg>
