<?xml version="1.0" encoding="utf-8"?>
<!-- Generator: Adobe Illustrator 22.1.0, SVG Export Plug-In . SVG Version: 6.00 Build 0)  -->
<svg version="1.1" id="Layer_1" xmlns="http://www.w3.org/2000/svg" xmlns:xlink="http://www.w3.org/1999/xlink" x="0px" y="0px"
	 viewBox="0 0 2879.1 1033.2" enable-background="new 0 0 2879.1 1033.2" xml:space="preserve">
<path fill="#F5F7FA" d="M2876.8,304c-33.9-23.2-74.9-36.9-119.1-36.9c-69.4,0-130.9,33.5-169.4,85.3c-2.9-0.1-5.7-0.2-8.6-0.2
	c-117.3,0-217.6,72.4-258.8,175c-70.7-85-202.7-98.2-272.9-42.2c-23.3-8.8-48.5-13.7-74.8-13.7c-17.6,0-34.7,2.2-51,6.3
	c-32.8-73.8-106.8-125.3-192.7-125.3c-75.2,0-141.2,39.4-178.5,98.6h-9.3c-38.6-48.4-98.1-79.4-164.8-79.4
	c-80.2,0-149.9,44.7-185.6,110.6c-30.8-7.2-65.9,10.9-73.8,47.7c-51.2-121.1-277.4-108.9-340.8,45.9c-4.4-83.8-94-95.6-139.8-59.1
	c0.2-3.5,0.4-7.1,0.4-10.7c0-83.5-67.7-151.2-151.2-151.2c-55,0-103.2,29.4-129.6,73.3c2.2-83.7-80.6-77.1-80.6-77.1l-13.4-6.3
	C257.2,251.2,179.8,177,85.1,177c-0.5,0-1.1,0-1.6,0C95.2,83.5,38.9,27.2,0,0v1033.2h2879.1V302.8
	C2878.3,303.2,2877.5,303.6,2876.8,304z"/>
</svg>
