<?xml version="1.0" encoding="utf-8"?>
<!-- Generator: Adobe Illustrator 22.1.0, SVG Export Plug-In . SVG Version: 6.00 Build 0)  -->
<svg version="1.1" id="Layer_1" xmlns="http://www.w3.org/2000/svg" xmlns:xlink="http://www.w3.org/1999/xlink" x="0px" y="0px"
	 viewBox="0 0 2880.5 905" enable-background="new 0 0 2880.5 905" xml:space="preserve">
<path fill="#23314E" d="M0.5,905h2880V492.6V47.4c-36.8,5.4-70.6,19.7-99.4,40.7C2755.2,77.7,2727,72,2697.5,72
	c-95.4,0-176.9,59.3-209.6,143.1c-1.9-0.1-3.9-0.1-5.9-0.1c-38.7,0-74.3,13.5-102.2,36.1c-31.4-16.7-67.3-26.1-105.3-26.1
	c-78.2,0-147.1,39.9-187.4,100.4c-28-12.5-59-19.4-91.6-19.4c-75.6,0-142.4,37.3-183.2,94.4c-11.8-8.4-26.2-13.4-41.8-13.4
	c-15.5,0-29.8,4.9-41.5,13.2C1706.3,299.9,1616.7,225,1509.5,225c-98.6,0-182.4,63.5-212.8,151.8c-34.8-22-76-34.8-120.2-34.8
	c-41.5,0-80.3,11.2-113.6,30.8C1040.1,272.7,950.5,198,843.5,198c-79.9,0-150,41.6-190,104.4c-31.7-67-100-113.4-179-113.4
	c-36.1,0-69.9,9.7-99.1,26.5C372.8,96,275.1,0,155,0C94.6,0,39.8,24.3,0,63.7v313.6c0.2,0.2,0.3,0.3,0.5,0.5L0.5,905L0.5,905z"/>
</svg>
