<?xml version="1.0" encoding="utf-8"?>
<!-- Generator: Adobe Illustrator 22.1.0, SVG Export Plug-In . SVG Version: 6.00 Build 0)  -->
<svg version="1.1" id="Layer_1" xmlns="http://www.w3.org/2000/svg" xmlns:xlink="http://www.w3.org/1999/xlink" x="0px" y="0px"
	 viewBox="0 0 30.2 30.2" enable-background="new 0 0 30.2 30.2" xml:space="preserve">
<g>
	<path fill="#FFFFFF" d="M15.1,0.6C7,0.6,0.4,7.1,0.4,15.2S7,29.9,15.1,29.9s14.7-6.6,14.7-14.7S23.2,0.6,15.1,0.6z M15.1,27.9
		c-7,0-12.7-5.7-12.7-12.7S8.1,2.6,15.1,2.6s12.7,5.7,12.7,12.7S22.1,27.9,15.1,27.9z"/>
</g>
<g>
	<g>
		<path fill="#FFFFFF" d="M18.1,12.3c-0.1,0-0.2-0.1-0.4-0.3c-0.2-0.1-0.4-0.3-0.6-0.4c-0.2-0.1-0.5-0.3-0.8-0.4
			c-0.3-0.1-0.6-0.2-1-0.2c-0.4,0-0.8,0.1-1.1,0.2c-0.3,0.1-0.5,0.2-0.7,0.4c-0.2,0.2-0.3,0.4-0.4,0.6c-0.1,0.2-0.1,0.4-0.1,0.6
			c0,0.3,0.1,0.5,0.3,0.7c0.2,0.2,0.5,0.4,0.8,0.5c0.3,0.1,0.7,0.3,1.1,0.4c0.4,0.1,0.8,0.2,1.2,0.4c0.4,0.1,0.8,0.3,1.2,0.4
			c0.4,0.2,0.8,0.4,1.1,0.6c0.3,0.2,0.6,0.5,0.8,0.9s0.3,0.7,0.3,1.2c0,0.5-0.1,1-0.3,1.4c-0.2,0.4-0.5,0.8-0.8,1.1
			c-0.3,0.3-0.7,0.6-1.2,0.8c-0.5,0.2-1,0.3-1.5,0.4v1.1c0,0.2-0.1,0.4-0.4,0.4h-0.8c-0.2,0-0.3-0.1-0.3-0.4v-1.1
			c-0.7-0.1-1.3-0.3-1.9-0.7c-0.6-0.3-1.1-0.8-1.5-1.3c-0.1-0.1-0.1-0.2-0.1-0.2c0-0.1,0-0.2,0.1-0.3l0.6-0.5
			c0.1-0.1,0.2-0.1,0.2-0.1c0,0,0.1,0,0.1,0c0,0,0.1,0.1,0.1,0.1l0.1,0.1c0.2,0.2,0.5,0.5,0.8,0.6c0.3,0.2,0.6,0.3,0.8,0.4
			c0.3,0.1,0.6,0.2,0.8,0.3c0.3,0.1,0.5,0.1,0.7,0.1c0.3,0,0.6,0,1-0.1c0.3-0.1,0.6-0.2,0.9-0.4c0.3-0.2,0.5-0.4,0.7-0.7
			c0.2-0.3,0.3-0.6,0.3-0.9c0-0.3-0.1-0.6-0.3-0.8c-0.2-0.2-0.4-0.4-0.7-0.5c-0.3-0.2-0.7-0.3-1.1-0.4c-0.4-0.1-0.8-0.3-1.3-0.4
			c-0.6-0.2-1.2-0.4-1.6-0.6c-0.5-0.2-0.8-0.4-1.1-0.7c-0.3-0.2-0.5-0.5-0.6-0.8c-0.1-0.3-0.2-0.6-0.2-1c0-0.4,0.1-0.8,0.2-1.2
			c0.1-0.4,0.4-0.7,0.6-1c0.3-0.3,0.6-0.5,1-0.7c0.4-0.2,0.8-0.3,1.3-0.4V8.5c0-0.1,0-0.2,0.1-0.2c0.1-0.1,0.1-0.1,0.3-0.1h0.8
			c0.1,0,0.2,0,0.3,0.1c0.1,0.1,0.1,0.1,0.1,0.3v1.1c0.3,0,0.6,0.1,0.9,0.2c0.3,0.1,0.6,0.2,0.9,0.4c0.3,0.1,0.5,0.3,0.8,0.5
			c0.2,0.2,0.5,0.4,0.6,0.6c0,0,0.1,0.1,0.1,0.1c0,0,0,0.1,0,0.1c0,0.1,0,0.2-0.1,0.2l-0.6,0.5c-0.1,0.1-0.2,0.1-0.2,0.1
			C18.3,12.4,18.2,12.4,18.1,12.3z"/>
		<path fill="#FFFFFF" d="M15.6,23.3h-0.8c-0.4,0-0.6-0.2-0.6-0.6v-0.9c-0.6-0.1-1.2-0.3-1.7-0.7c-0.6-0.4-1.1-0.8-1.6-1.4
			c-0.1-0.1-0.2-0.3-0.2-0.4c0-0.1,0-0.3,0.2-0.5l0.6-0.5c0.1-0.1,0.3-0.2,0.4-0.2c0.1,0,0.2,0,0.3,0.1c0,0,0.1,0.1,0.2,0.1l0.1,0.1
			c0.2,0.2,0.4,0.4,0.7,0.6c0.3,0.2,0.5,0.3,0.8,0.4c0.3,0.1,0.5,0.2,0.8,0.2c0.2,0.1,0.4,0.1,0.6,0.1c0.3,0,0.6,0,0.9-0.1
			c0.3-0.1,0.6-0.2,0.8-0.4c0.2-0.2,0.4-0.3,0.6-0.6c0.1-0.2,0.2-0.5,0.2-0.8c0-0.2-0.1-0.4-0.2-0.6c-0.2-0.2-0.4-0.3-0.6-0.5
			c-0.3-0.1-0.6-0.3-1-0.4c-0.4-0.1-0.8-0.3-1.3-0.4c-0.6-0.2-1.2-0.4-1.7-0.6c-0.5-0.2-0.9-0.5-1.2-0.7c-0.3-0.3-0.6-0.6-0.7-0.9
			c-0.2-0.3-0.2-0.7-0.2-1.1c0-0.4,0.1-0.9,0.2-1.3c0.2-0.4,0.4-0.7,0.7-1c0.3-0.3,0.6-0.5,1.1-0.7c0.3-0.2,0.7-0.3,1.1-0.4V8.5
			c0-0.2,0.1-0.3,0.2-0.4c0.1-0.1,0.2-0.2,0.5-0.2h0.8c0.2,0,0.3,0.1,0.4,0.2c0.1,0.1,0.2,0.3,0.2,0.5v0.9c0.2,0,0.5,0.1,0.7,0.2
			c0.3,0.1,0.6,0.2,0.9,0.4c0.3,0.1,0.6,0.3,0.8,0.5c0.3,0.2,0.5,0.4,0.7,0.6c0.1,0.1,0.1,0.1,0.1,0.2c0,0.1,0.1,0.2,0.1,0.2
			c0,0.2-0.1,0.3-0.2,0.4l-0.6,0.5c-0.1,0.1-0.3,0.2-0.4,0.2c-0.1,0-0.3,0-0.4-0.2c-0.1-0.1-0.2-0.1-0.4-0.3
			c-0.2-0.1-0.4-0.3-0.6-0.4c-0.2-0.1-0.5-0.3-0.8-0.4c-0.6-0.2-1.4-0.2-1.9,0c-0.3,0.1-0.5,0.2-0.7,0.3c-0.2,0.1-0.3,0.3-0.4,0.5
			c-0.1,0.2-0.1,0.3-0.1,0.5c0,0.2,0.1,0.4,0.2,0.5c0.2,0.2,0.4,0.3,0.7,0.5c0.3,0.1,0.7,0.3,1.1,0.4c0.4,0.1,0.8,0.2,1.3,0.4
			c0.4,0.1,0.9,0.3,1.3,0.4c0.4,0.2,0.8,0.4,1.2,0.6c0.3,0.3,0.6,0.6,0.8,0.9c0.2,0.4,0.3,0.8,0.3,1.4c0,0.5-0.1,1-0.3,1.5
			c-0.2,0.5-0.5,0.9-0.9,1.2c-0.4,0.3-0.8,0.6-1.3,0.8c-0.4,0.2-0.9,0.3-1.3,0.4v0.8C16.2,23,16,23.3,15.6,23.3z M14.7,22.7
			C14.7,22.7,14.7,22.7,14.7,22.7l0.9,0c0.1,0,0.1,0,0.1,0c0,0,0,0,0-0.1v-1.3l0.2,0c0.5,0,1-0.2,1.4-0.4c0.4-0.2,0.8-0.4,1.1-0.7
			c0.3-0.3,0.6-0.6,0.7-1c0.2-0.4,0.3-0.8,0.3-1.3c0-0.4-0.1-0.8-0.3-1.1c-0.2-0.3-0.4-0.6-0.7-0.8c-0.3-0.2-0.6-0.4-1-0.6
			c-0.4-0.2-0.8-0.3-1.2-0.4c-0.4-0.1-0.8-0.3-1.2-0.4c-0.4-0.1-0.8-0.3-1.1-0.4c-0.4-0.2-0.6-0.4-0.9-0.6c-0.2-0.3-0.4-0.6-0.4-0.9
			c0-0.2,0.1-0.5,0.2-0.7c0.1-0.2,0.3-0.5,0.5-0.7c0.2-0.2,0.5-0.3,0.8-0.4c0.6-0.2,1.5-0.2,2.2,0c0.3,0.1,0.6,0.3,0.9,0.4
			c0.3,0.1,0.5,0.3,0.7,0.4c0.2,0.1,0.3,0.2,0.3,0.3l0,0c0,0,0,0,0.1,0c0,0,0,0,0,0l0.6-0.5c0,0,0,0,0,0c0,0,0,0,0-0.1
			c-0.2-0.2-0.4-0.4-0.6-0.6c-0.2-0.2-0.5-0.3-0.8-0.5c-0.3-0.1-0.5-0.2-0.8-0.3c-0.3-0.1-0.6-0.2-0.9-0.2l-0.2,0V8.5
			c0-0.1-0.1-0.1-0.1-0.1h-0.8c-0.1,0-0.1,0-0.1,0.1v1.4l-0.2,0c-0.4,0.1-0.9,0.2-1.2,0.4c-0.4,0.2-0.7,0.4-0.9,0.6
			c-0.2,0.2-0.4,0.5-0.6,0.9c-0.1,0.3-0.2,0.7-0.2,1c0,0.3,0.1,0.6,0.2,0.9c0.1,0.3,0.3,0.5,0.6,0.7c0.3,0.2,0.6,0.4,1.1,0.6
			c0.4,0.2,1,0.4,1.6,0.6c0.5,0.1,0.9,0.3,1.3,0.4c0.4,0.1,0.8,0.3,1.1,0.4c0.3,0.2,0.6,0.4,0.8,0.6c0.2,0.3,0.3,0.6,0.3,0.9
			c0,0.4-0.1,0.8-0.3,1.1c-0.2,0.3-0.5,0.5-0.8,0.7c-0.3,0.2-0.6,0.3-1,0.4c-0.4,0.1-0.7,0.1-1.1,0.1c-0.2,0-0.4,0-0.7-0.1
			c-0.3-0.1-0.6-0.2-0.9-0.3c-0.3-0.1-0.6-0.3-0.9-0.5c-0.3-0.2-0.6-0.4-0.8-0.7L12,18.8c0,0,0,0-0.1-0.1c0,0,0,0-0.1,0l-0.6,0.5
			c0,0.1,0,0.1,0,0.1c0.4,0.5,0.9,0.9,1.4,1.2c0.6,0.3,1.2,0.5,1.8,0.6l0.2,0L14.7,22.7C14.7,22.7,14.7,22.7,14.7,22.7L14.7,22.7z
			 M12,18.7C12,18.7,12,18.7,12,18.7C12,18.7,12,18.7,12,18.7z"/>
	</g>
</g>
</svg>
