<?xml version="1.0" encoding="utf-8"?>
<!-- Generator: Adobe Illustrator 22.1.0, SVG Export Plug-In . SVG Version: 6.00 Build 0)  -->
<svg version="1.1" id="Layer_1" xmlns="http://www.w3.org/2000/svg" xmlns:xlink="http://www.w3.org/1999/xlink" x="0px" y="0px"
	 viewBox="0 0 30.2 30.2" enable-background="new 0 0 30.2 30.2" xml:space="preserve">
<g>
	<path fill="#FFFFFF" d="M15.1,0.6C7,0.6,0.4,7.1,0.4,15.2S7,29.9,15.1,29.9s14.7-6.6,14.7-14.7S23.2,0.6,15.1,0.6z M15.1,27.9
		c-7,0-12.7-5.7-12.7-12.7S8.1,2.6,15.1,2.6s12.7,5.7,12.7,12.7S22.1,27.9,15.1,27.9z"/>
</g>
<g id="Mmhyet.tif">
	<g>
		<path fill="#FFFFFF" d="M10.6,8.6c0.1,0,0.2,0,0.2,0c2.1,0,4.2,0,6.2,0c2.2,0,4.1,1.5,4.5,3.6c0.7,3-1.5,5.7-4.6,5.8
			c-1.1,0-2.3,0-3.4,0c-0.1,0-0.2,0-0.4,0c0,1.3,0,2.7,0,4c-0.9,0-1.8,0-2.7,0C10.6,17.5,10.6,13.1,10.6,8.6z M13.2,15.3
			c1.3,0,2.5,0,3.7,0c1.2,0,2.1-0.9,2.1-2c0-1.1-0.9-2-2.1-2c-1.1,0-2.3,0-3.4,0c-0.1,0-0.2,0-0.3,0C13.2,12.6,13.2,13.9,13.2,15.3z
			"/>
	</g>
</g>
</svg>
