<?xml version="1.0" encoding="utf-8"?>
<!-- Generator: Adobe Illustrator 22.1.0, SVG Export Plug-In . SVG Version: 6.00 Build 0)  -->
<svg version="1.1" id="Layer_1" xmlns="http://www.w3.org/2000/svg" xmlns:xlink="http://www.w3.org/1999/xlink" x="0px" y="0px"
	 viewBox="0 0 30.2 30.2" enable-background="new 0 0 30.2 30.2" xml:space="preserve">
<path fill="#FFFFFF" d="M29.3,9.6c-0.8-4.2-3.8-6.9-7.7-6.9c-2,0-4.2,0.8-6.3,2.3c-2.1-1.5-4.4-2.3-6.4-2.3c-3.9,0-6.9,2.7-7.7,7
	C0,15.7,3.7,23.9,14.7,28.3c0.2,0.1,0.4,0.1,0.5,0.1c0.2,0,0.4,0,0.6-0.1C26.8,23.8,30.5,15.7,29.3,9.6z M15.2,25.3
	C6.2,21.5,3.1,15,4,10.2c0.5-2.8,2.4-4.6,4.8-4.6c1.7,0,3.6,0.8,5.5,2.4c0.5,0.4,1.3,0.4,1.9,0c1.9-1.5,3.8-2.3,5.4-2.3
	c2.4,0,4.3,1.8,4.8,4.5C27.3,14.9,24.2,21.4,15.2,25.3z"/>
</svg>
