<?xml version="1.0" encoding="utf-8"?>
<!-- Generator: Adobe Illustrator 22.1.0, SVG Export Plug-In . SVG Version: 6.00 Build 0)  -->
<svg version="1.1" id="Layer_1" xmlns="http://www.w3.org/2000/svg" xmlns:xlink="http://www.w3.org/1999/xlink" x="0px" y="0px"
	 viewBox="0 0 30.2 30.2" enable-background="new 0 0 30.2 30.2" xml:space="preserve">
<g>
	<path fill="#FFFFFF" d="M27.5,30.2H2.7C1.2,30.2,0,29,0,27.5V2.7C0,1.2,1.2,0,2.7,0h24.9c1.5,0,2.7,1.2,2.7,2.7v24.9
		C30.2,29,29,30.2,27.5,30.2z M2.7,2C2.3,2,2,2.3,2,2.7v24.9c0,0.4,0.3,0.7,0.7,0.7h24.9c0.4,0,0.7-0.3,0.7-0.7V2.7
		c0-0.4-0.3-0.7-0.7-0.7H2.7z"/>
</g>
<g>
	<polygon fill="#FFFFFF" points="15.1,16.4 0.5,3.5 1.9,2 15.1,13.8 28.7,2 30,3.5 	"/>
</g>
</svg>
