<?xml version="1.0" encoding="utf-8"?>
<!-- Generator: Adobe Illustrator 22.1.0, SVG Export Plug-In . SVG Version: 6.00 Build 0)  -->
<svg version="1.1" id="Layer_1" xmlns="http://www.w3.org/2000/svg" xmlns:xlink="http://www.w3.org/1999/xlink" x="0px" y="0px"
	 viewBox="0 0 29.7 24.6" enable-background="new 0 0 29.7 24.6" xml:space="preserve">
<path fill="#FFFFFF" d="M29.2,4.5l-9.3-4.4c0,0,0,0-0.1,0c0,0-0.1,0-0.1,0c0,0-0.1,0-0.1,0c0,0-0.1,0-0.1,0c0,0-0.1,0-0.1,0
	c0,0-0.1,0-0.1,0c0,0-0.1,0-0.1,0c0,0,0,0-0.1,0l-8.9,4.2L1.3,0.1C1,0,0.7,0,0.4,0.1C0.2,0.3,0,0.6,0,0.9v18.4
	c0,0.4,0.2,0.7,0.5,0.8l9.1,4.3c0,0,0,0,0,0c0.1,0.1,0.3,0.1,0.5,0.1c0,0,0,0,0,0c0,0,0,0,0,0c0.2,0,0.3,0,0.5-0.1c0,0,0,0,0,0
	l8.7-4.1l8.9,4.2c0.1,0.1,0.3,0.1,0.4,0.1c0.2,0,0.3,0,0.5-0.1c0.3-0.2,0.4-0.5,0.4-0.8V5.3C29.7,5,29.5,4.6,29.2,4.5z M27.9,5.9
	v16.4l-7.5-3.5V2.4L27.9,5.9z M11.2,5.9l7.4-3.5v16.4l-7.4,3.5V5.9z M9.3,22.2l-7.4-3.5V2.4l7.4,3.5V22.2z"/>
</svg>
