<?xml version="1.0" encoding="utf-8"?>
<!-- Generator: Adobe Illustrator 22.1.0, SVG Export Plug-In . SVG Version: 6.00 Build 0)  -->
<svg version="1.1" id="Layer_1" xmlns="http://www.w3.org/2000/svg" xmlns:xlink="http://www.w3.org/1999/xlink" x="0px" y="0px"
	 viewBox="0 0 18.2 19.3" enable-background="new 0 0 18.2 19.3" xml:space="preserve">
<g>
	<g>
		<g>
			<path fill="#FFFFFF" d="M18,5.3l-4.9-5.1c-0.1-0.1-0.2-0.1-0.3-0.1H5.6c-0.8,0-1.5,0.7-1.5,1.5v5.1H1.2c-0.6,0-1.1,0.5-1.1,1.1
				v5.5c0,0.6,0.5,1.1,1.1,1.1h2.9v3.3c0,0.8,0.7,1.5,1.5,1.5h11c0.8,0,1.5-0.7,1.5-1.5V5.5C18.1,5.4,18.1,5.3,18,5.3L18,5.3z
				 M13,1.1l4,4.2h-4V1.1z M1.2,13.7c-0.2,0-0.4-0.2-0.4-0.4V7.8c0-0.2,0.2-0.4,0.4-0.4h9.9c0.2,0,0.4,0.2,0.4,0.4v5.5
				c0,0.2-0.2,0.4-0.4,0.4H1.2z M17.4,17.8c0,0.4-0.3,0.7-0.7,0.7h-11c-0.4,0-0.7-0.3-0.7-0.7v-3.3h6.3c0.6,0,1.1-0.5,1.1-1.1V7.8
				c0-0.6-0.5-1.1-1.1-1.1H4.9V1.6c0-0.4,0.3-0.7,0.7-0.7h6.6v4.8c0,0.2,0.2,0.4,0.4,0.4h4.8V17.8z M17.4,17.8"/>
			<path fill="#FFFFFF" d="M16.6,19.3h-11c-0.9,0-1.6-0.7-1.6-1.6v-3.2H1.2C0.5,14.5,0,14,0,13.3V7.8c0-0.7,0.5-1.2,1.2-1.2H4V1.6
				C4,0.7,4.7,0,5.6,0h7.3c0.1,0,0.2,0.1,0.3,0.1l4.9,5.1c0.1,0.1,0.1,0.2,0.1,0.3v12.2C18.2,18.6,17.5,19.3,16.6,19.3z M1.2,6.8
				c-0.6,0-1,0.5-1,1v5.5c0,0.6,0.5,1,1,1h3v3.4c0,0.8,0.6,1.4,1.4,1.4h11c0.8,0,1.4-0.6,1.4-1.4V5.5c0-0.1,0-0.1-0.1-0.2l-4.9-5.1
				C13,0.2,13,0.2,12.9,0.2H5.6c-0.8,0-1.4,0.6-1.4,1.4v5.2H1.2z M16.6,18.6h-11c-0.5,0-0.8-0.4-0.8-0.8v-3.4h6.3c0.6,0,1-0.5,1-1
				V7.8c0-0.6-0.5-1-1-1H4.8V1.6c0-0.5,0.4-0.8,0.8-0.8h6.7v4.9c0,0.2,0.1,0.3,0.3,0.3h4.9v11.9C17.5,18.2,17.1,18.6,16.6,18.6z
				 M5,14.5v3.2c0,0.4,0.3,0.6,0.6,0.6h11c0.4,0,0.6-0.3,0.6-0.6V6.1h-4.7c-0.3,0-0.5-0.2-0.5-0.5V0.9H5.6C5.3,0.9,5,1.2,5,1.6v5.1
				h6.2c0.7,0,1.2,0.5,1.2,1.2v5.5c0,0.7-0.5,1.2-1.2,1.2H5z M11.1,13.8H1.2c-0.3,0-0.5-0.2-0.5-0.5V7.8c0-0.3,0.2-0.5,0.5-0.5h9.9
				c0.3,0,0.5,0.2,0.5,0.5v5.5C11.6,13.6,11.4,13.8,11.1,13.8z M1.2,7.5C1,7.5,0.9,7.7,0.9,7.8v5.5c0,0.2,0.1,0.3,0.3,0.3h9.9
				c0.2,0,0.3-0.1,0.3-0.3V7.8c0-0.2-0.1-0.3-0.3-0.3H1.2z M17.2,5.3h-4.3V0.9L17.2,5.3z M13.1,5.2h3.7l-3.7-3.8V5.2z"/>
		</g>
	</g>
	<g>
		<path fill="#FFFFFF" d="M4.5,9.4C4.4,9.3,4.2,9.2,4,9.1c-0.1,0-0.4,0-0.8,0h-1v3.2h0.6V11h0.4c0.3,0,0.5,0,0.7,0
			c0.1,0,0.2-0.1,0.3-0.1c0.1-0.1,0.2-0.2,0.3-0.3c0.1-0.1,0.1-0.3,0.1-0.5C4.7,9.8,4.6,9.6,4.5,9.4L4.5,9.4z M3.9,10.3
			c0,0.1-0.1,0.1-0.2,0.2c-0.1,0-0.3,0-0.5,0H2.9V9.6h0.3c0.2,0,0.4,0,0.5,0c0.1,0,0.2,0.1,0.3,0.1C4,9.8,4,9.9,4,10.1
			C4,10.1,4,10.2,3.9,10.3L3.9,10.3z M3.9,10.3"/>
		<path fill="#FFFFFF" d="M3,12.3H2.2V9h1.1C3.7,9,3.9,9,4.1,9c0.2,0.1,0.4,0.2,0.5,0.3C4.7,9.5,4.8,9.8,4.8,10c0,0.2,0,0.4-0.1,0.5
			c-0.1,0.1-0.2,0.3-0.3,0.3C4.2,11,4.1,11.1,4,11.1c-0.2,0-0.4,0-0.7,0H3V12.3z M2.3,12.1h0.5v-1.2h0.5c0.3,0,0.5,0,0.6,0
			c0.1,0,0.2-0.1,0.3-0.1c0.1-0.1,0.2-0.2,0.2-0.3c0.1-0.1,0.1-0.3,0.1-0.4c0-0.2-0.1-0.4-0.2-0.6l0,0C4.3,9.3,4.2,9.3,4,9.2
			c-0.1,0-0.4,0-0.7,0H2.3V12.1z M3.2,10.6H2.8V9.5h0.4c0.2,0,0.4,0,0.5,0c0.1,0,0.2,0.1,0.3,0.2c0.1,0.1,0.1,0.2,0.1,0.3
			c0,0.1,0,0.2-0.1,0.3h0c-0.1,0.1-0.1,0.1-0.2,0.2C3.7,10.6,3.5,10.6,3.2,10.6z M3,10.4h0.3c0.3,0,0.4,0,0.5,0
			c0.1,0,0.1-0.1,0.2-0.1l0,0c0-0.1,0.1-0.1,0.1-0.2c0-0.1,0-0.2-0.1-0.2C3.8,9.8,3.7,9.7,3.6,9.7c0,0-0.2,0-0.4,0H3V10.4z"/>
	</g>
	<g>
		<path fill="#FFFFFF" d="M7.7,9.9C7.7,9.7,7.6,9.6,7.4,9.4C7.3,9.3,7.1,9.2,7,9.1c-0.1,0-0.3-0.1-0.6-0.1H5.2v3.2h1.2
			c0.2,0,0.4,0,0.6-0.1c0.2-0.1,0.3-0.1,0.4-0.3c0.1-0.1,0.3-0.3,0.3-0.6c0.1-0.2,0.1-0.4,0.1-0.7C7.8,10.4,7.8,10.1,7.7,9.9
			L7.7,9.9z M7.1,11.2c0,0.1-0.1,0.2-0.2,0.3c-0.1,0.1-0.2,0.1-0.3,0.1c-0.1,0-0.2,0-0.4,0H5.8V9.6h0.3c0.3,0,0.4,0,0.5,0
			c0.1,0,0.2,0.1,0.3,0.1C7,9.9,7.1,10,7.1,10.1c0,0.1,0.1,0.3,0.1,0.6C7.2,10.9,7.2,11.1,7.1,11.2L7.1,11.2z M7.1,11.2"/>
		<path fill="#FFFFFF" d="M6.4,12.3H5.1V9h1.3C6.6,9,6.8,9,7,9c0.2,0.1,0.4,0.2,0.5,0.3c0.1,0.1,0.2,0.3,0.3,0.5l0,0
			c0.1,0.2,0.1,0.5,0.1,0.8c0,0.3,0,0.5-0.1,0.7c-0.1,0.2-0.2,0.4-0.4,0.6c-0.1,0.1-0.3,0.2-0.5,0.3C6.8,12.3,6.6,12.3,6.4,12.3z
			 M5.3,12.1h1.1c0.2,0,0.4,0,0.5-0.1c0.2-0.1,0.3-0.1,0.4-0.2c0.1-0.1,0.2-0.3,0.3-0.5c0.1-0.2,0.1-0.4,0.1-0.6
			c0-0.3,0-0.5-0.1-0.7l0,0C7.6,9.8,7.5,9.6,7.4,9.5C7.3,9.4,7.1,9.3,6.9,9.2c-0.1,0-0.3-0.1-0.6-0.1H5.3V12.1z M6.3,11.8H5.7V9.5
			h0.4c0.3,0,0.4,0,0.5,0c0.1,0,0.2,0.1,0.3,0.2c0.1,0.1,0.2,0.2,0.2,0.3c0,0.1,0.1,0.3,0.1,0.6c0,0.3,0,0.5-0.1,0.6v0
			c0,0.2-0.1,0.3-0.2,0.3c-0.1,0.1-0.2,0.1-0.3,0.2C6.6,11.8,6.5,11.8,6.3,11.8z M5.9,11.6h0.4c0.2,0,0.3,0,0.4,0
			c0.1,0,0.2-0.1,0.2-0.1C6.9,11.4,7,11.3,7,11.2c0-0.1,0.1-0.3,0.1-0.6c0-0.2,0-0.4-0.1-0.5C7,10,6.9,9.9,6.9,9.9
			C6.8,9.8,6.7,9.8,6.6,9.7c-0.1,0-0.2,0-0.5,0H5.9V11.6z"/>
	</g>
	<g>
		<path fill="#FFFFFF" d="M10.6,9.6V9.1H8.4v3.2H9v-1.3h1.3v-0.5H9V9.6H10.6z M10.6,9.6"/>
		<path fill="#FFFFFF" d="M9.1,12.3H8.3V9h2.4v0.7H9.1v0.6h1.3V11H9.1V12.3z M8.5,12.1h0.5v-1.3h1.3v-0.3H8.9V9.5h1.5V9.2h-2V12.1z"
			/>
	</g>
</g>
</svg>
