<?xml version="1.0" encoding="utf-8"?>
<!-- Generator: Adobe Illustrator 22.1.0, SVG Export Plug-In . SVG Version: 6.00 Build 0)  -->
<svg version="1.1" id="Layer_1" xmlns="http://www.w3.org/2000/svg" xmlns:xlink="http://www.w3.org/1999/xlink" x="0px" y="0px"
	 viewBox="0 0 30.2 30.2" enable-background="new 0 0 30.2 30.2" xml:space="preserve">
<path fill="#FFFFFF" d="M24,0.3H7.3c-2.2,0-4,1.8-4,4v21.3c0,2.2,1.8,4,4,4H24c2.2,0,4-1.8,4-4V4.3C28,2.1,26.2,0.3,24,0.3z
	 M7.6,27.2H7.3c-0.9,0-1.6-0.7-1.6-1.6V4.3c0-0.9,0.7-1.6,1.6-1.6h0.3V27.2z M9.9,2.7h6.5v3.1c0,0.5,0.3,0.9,0.7,1.1
	c0,0,0.1,0,0.1,0l0,0.2L17.4,7c0.4,0.1,0.7,0,1-0.3l1.5-1.4l1.4,1.4C21.6,6.9,21.9,7,22.2,7c0.1,0,0.1,0,0.2,0l0.2,0.2l0-0.2
	c0,0,0.1,0,0.1,0c0.4-0.2,0.7-0.6,0.7-1.1V2.7H24c0.9,0,1.6,0.7,1.6,1.6v21.3c0,0.9-0.7,1.6-1.6,1.6H9.9V2.7z"/>
</svg>
