<?xml version="1.0" encoding="utf-8"?>
<!-- Generator: Adobe Illustrator 22.1.0, SVG Export Plug-In . SVG Version: 6.00 Build 0)  -->
<svg version="1.1" id="Layer_1" xmlns="http://www.w3.org/2000/svg" xmlns:xlink="http://www.w3.org/1999/xlink" x="0px" y="0px"
	 viewBox="0 0 30.2 30.2" enable-background="new 0 0 30.2 30.2" xml:space="preserve">
<g>
	<path fill="#FFFFFF" d="M20.3,14.4l-6.7-5.3c-0.3-0.3-0.9,0-0.9,0.4v10.6c0,0.4,0.5,0.7,0.9,0.4l6.7-5.3
		C20.5,15,20.5,14.6,20.3,14.4z"/>
</g>
<g>
	<path fill="#FFFFFF" d="M14.9,29.6C6.9,29.6,0.4,23,0.4,15S6.9,0.5,14.9,0.5S29.5,7,29.5,15S22.9,29.6,14.9,29.6z M14.9,2.5
		C8,2.5,2.4,8.1,2.4,15S8,27.6,14.9,27.6S27.5,21.9,27.5,15S21.8,2.5,14.9,2.5z"/>
</g>
</svg>
